<?xml version="1.0" encoding="utf-8"?>
<!-- Generator: Adobe Illustrator 16.0.3, SVG Export Plug-In . SVG Version: 6.00 Build 0)  -->
<!DOCTYPE svg PUBLIC "-//W3C//DTD SVG 1.0//EN" "http://www.w3.org/TR/2001/REC-SVG-20010904/DTD/svg10.dtd">
<svg version="1.0" xmlns="http://www.w3.org/2000/svg" xmlns:xlink="http://www.w3.org/1999/xlink" x="0px" y="0px" width="800px"
	 height="456px" viewBox="0 0 800 456" enable-background="new 0 0 800 456" xml:space="preserve">
<g id="Layer_2" display="none">
	<rect display="inline" fill="#2E81FF" width="200" height="152"/>
	<rect y="152" display="inline" fill="#2E81FF" width="200" height="152"/>
	<rect y="304" display="inline" fill="#2E81FF" width="200" height="152"/>
	<rect x="200" display="inline" fill="#00A27B" width="200" height="152"/>
	<rect x="400" display="inline" fill="#FF45B2" width="200" height="152"/>
	<rect x="600" display="inline" fill="#E7DB00" width="200" height="152"/>
	<rect x="200" y="152" display="inline" fill="#00A27B" width="200" height="152"/>
	<rect x="400" y="152" display="inline" fill="#FF45B2" width="200" height="152"/>
	<rect x="600" y="152" display="inline" fill="#E7DB00" width="200" height="152"/>
	<rect x="200" y="304" display="inline" fill="#00A27B" width="200" height="152"/>
	<rect x="400" y="304" display="inline" fill="#FF45B2" width="200" height="152"/>
	<rect x="600" y="304" display="inline" fill="#E7DB00" width="200" height="152"/>
	<g display="inline">
		<path d="M752.76,147.666H647.426c-7.246,0-11.24-3.285-13.314-6.041c-3.045-4.043-4.029-9.71-2.568-14.787l25.592-92.411
			c-0.732-0.493-1.438-1.033-2.105-1.616c-6.709-5.857-8.566-14.332-4.232-19.295c1.85-2.119,4.629-3.286,7.822-3.286
			c1.865,0,3.801,0.386,5.717,1.126c2.771-4.554,6.979-7.021,12.09-7.021h47.334c5.395,0,9.475,2.325,12.166,6.925
			c1.832-0.679,3.682-1.031,5.459-1.031c3.197,0,5.975,1.169,7.826,3.288c2.18,2.495,2.861,6.093,1.873,9.873
			c-0.895,3.42-3.062,6.767-6.102,9.419c-0.623,0.545-1.277,1.052-1.959,1.52l25.627,92.539l0.035,0.12l0.021,0.121
			c1.115,5.89-0.045,11.439-3.18,15.225C763.51,144.764,759.66,147.666,752.76,147.666L752.76,147.666z"/>
		<g>
			
				<ellipse transform="matrix(0.6577 -0.7533 0.7533 0.6577 208.8005 507.4272)" fill="#808080" cx="662.755" cy="23.957" rx="8.75" ry="12.875"/>
			
				<ellipse transform="matrix(-0.6577 -0.7533 0.7533 -0.6577 1204.1177 595.0593)" fill="#808080" cx="737.255" cy="23.957" rx="8.75" ry="12.875"/>
		</g>
		<path fill="#3F3333" d="M765.76,127.666c1.5,7.916-1.5,17-13,17H647.426c-11.916,0-14.916-10.334-13-17l30-108.333
			c1.584-7.001,5.373-12,12-12h47.334c6.627,0,10.25,4.249,12,12L765.76,127.666z"/>
		<circle cx="688.631" cy="33.082" r="5.75"/>
		<g>
			<path fill="#EBE8C5" d="M698.881,67.332c0,1.104-0.896,2-2,2h-8.75c-1.105,0-2-0.896-2-2v-19.25c0-1.104,0.895-2,2-2h8.75
				c1.104,0,2,0.896,2,2V67.332z"/>
			<path fill="#EBE8C5" d="M713.881,67.332c0,1.104-0.896,2-2,2h-8.75c-1.105,0-2-0.896-2-2v-19.25c0-1.104,0.895-2,2-2h8.75
				c1.104,0,2,0.896,2,2V67.332z"/>
		</g>
		<ellipse fill="#808080" cx="700.005" cy="50.582" rx="15.366" ry="10.25"/>
		<circle cx="700.006" cy="44.082" r="5.75"/>
		<circle cx="711.381" cy="33.082" r="5.75"/>
		<circle fill="#FFFFFF" cx="688.631" cy="29.582" r="1.5"/>
		<circle fill="#FFFFFF" cx="711.381" cy="29.582" r="1.5"/>
		<g>
			<polygon fill="#666666" points="646.389,84.471 661.01,95.998 666.676,93.665 651.938,64.432 			"/>
			<circle fill="#666666" cx="660.26" cy="97.582" r="3.375"/>
			<circle fill="#666666" cx="665.76" cy="96.332" r="3.375"/>
			<circle fill="#666666" cx="666.76" cy="92.082" r="3.375"/>
		</g>
		<g>
			<polygon fill="#666666" points="753.822,84.471 739.201,95.998 733.535,93.665 748.271,64.432 			"/>
			<circle fill="#666666" cx="739.951" cy="97.582" r="3.375"/>
			<circle fill="#666666" cx="734.451" cy="96.332" r="3.375"/>
			<circle fill="#666666" cx="733.451" cy="92.082" r="3.375"/>
		</g>
	</g>
	<g display="inline">
		<path d="M552.76,147.666H447.426c-7.246,0-11.24-3.285-13.314-6.041c-3.045-4.043-4.029-9.71-2.568-14.787l25.592-92.411
			c-0.732-0.493-1.438-1.033-2.105-1.616c-6.709-5.857-8.566-14.332-4.232-19.295c1.85-2.119,4.629-3.286,7.822-3.286
			c1.865,0,3.801,0.386,5.717,1.126c2.771-4.554,6.979-7.021,12.09-7.021h47.334c5.395,0,9.475,2.325,12.166,6.925
			c1.832-0.679,3.682-1.031,5.459-1.031c3.197,0,5.975,1.169,7.826,3.288c2.18,2.495,2.861,6.093,1.873,9.873
			c-0.895,3.42-3.062,6.767-6.102,9.419c-0.623,0.545-1.277,1.052-1.959,1.52l25.627,92.539l0.035,0.12l0.021,0.121
			c1.115,5.89-0.045,11.439-3.18,15.225C563.51,144.764,559.66,147.666,552.76,147.666L552.76,147.666z"/>
		<g>
			
				<ellipse transform="matrix(0.6577 -0.7533 0.7533 0.6577 140.3449 356.775)" fill="#754C24" cx="462.755" cy="23.957" rx="8.75" ry="12.875"/>
			
				<ellipse transform="matrix(-0.6577 -0.7533 0.7533 -0.6577 872.5734 444.4071)" fill="#754C24" cx="537.255" cy="23.957" rx="8.75" ry="12.875"/>
		</g>
		<path fill="#9C8E84" d="M565.76,127.666c1.5,7.916-1.5,17-13,17H447.426c-11.916,0-14.916-10.334-12.999-17l29.999-108.333
			c1.584-7.001,5.373-12,12-12h47.334c6.627,0,10.25,4.249,12,12L565.76,127.666z"/>
		<circle cx="488.631" cy="33.082" r="5.75"/>
		<g>
			<path fill="#EBE8C5" d="M498.881,67.332c0,1.104-0.896,2-2,2h-8.75c-1.105,0-2-0.896-2-2v-19.25c0-1.104,0.895-2,2-2h8.75
				c1.104,0,2,0.896,2,2V67.332z"/>
			<path fill="#EBE8C5" d="M513.881,67.332c0,1.104-0.896,2-2,2h-8.75c-1.105,0-2-0.896-2-2v-19.25c0-1.104,0.895-2,2-2h8.75
				c1.104,0,2,0.896,2,2V67.332z"/>
		</g>
		<ellipse fill="#8C6239" cx="500.005" cy="50.582" rx="15.366" ry="10.25"/>
		<circle cx="500.006" cy="44.082" r="5.75"/>
		<circle cx="511.381" cy="33.082" r="5.75"/>
		<circle fill="#FFFFFF" cx="488.631" cy="29.582" r="1.5"/>
		<circle fill="#FFFFFF" cx="511.381" cy="29.582" r="1.5"/>
		<g>
			<polygon fill="#8C6239" points="446.389,84.471 461.01,95.998 466.676,93.665 451.938,64.432 			"/>
			<circle fill="#8C6239" cx="460.26" cy="97.582" r="3.375"/>
			<circle fill="#8C6239" cx="465.76" cy="96.332" r="3.375"/>
			<circle fill="#8C6239" cx="466.76" cy="92.082" r="3.375"/>
		</g>
		<g>
			<polygon fill="#8C6239" points="553.822,84.471 539.201,95.998 533.535,93.665 548.271,64.432 			"/>
			<circle fill="#8C6239" cx="539.951" cy="97.582" r="3.375"/>
			<circle fill="#8C6239" cx="534.451" cy="96.332" r="3.375"/>
			<circle fill="#8C6239" cx="533.451" cy="92.082" r="3.375"/>
		</g>
	</g>
	<g display="inline">
		<path d="M352.76,147.666H247.427c-7.246,0-11.241-3.285-13.315-6.041c-3.045-4.043-4.028-9.71-2.568-14.787l25.592-92.411
			c-0.731-0.493-1.437-1.033-2.104-1.616c-6.709-5.857-8.566-14.332-4.232-19.295c1.849-2.119,4.628-3.286,7.821-3.286
			c1.865,0,3.802,0.386,5.717,1.126c2.772-4.554,6.979-7.021,12.091-7.021h47.333c5.396,0,9.475,2.325,12.167,6.925
			c1.831-0.679,3.681-1.031,5.459-1.031c3.196,0,5.975,1.169,7.826,3.288c2.179,2.495,2.861,6.093,1.872,9.873
			c-0.895,3.42-3.062,6.767-6.101,9.419c-0.624,0.545-1.278,1.052-1.96,1.52l25.627,92.539l0.035,0.12l0.022,0.121
			c1.115,5.89-0.046,11.439-3.181,15.225C363.511,144.764,359.66,147.666,352.76,147.666L352.76,147.666z"/>
		<g>
			
				<ellipse transform="matrix(0.6578 -0.7532 0.7532 0.6578 71.8818 206.1152)" fill="#E6E6E6" cx="262.755" cy="23.957" rx="8.75" ry="12.875"/>
			
				<ellipse transform="matrix(-0.6578 -0.7532 0.7532 -0.6578 541.0411 293.7468)" fill="#E6E6E6" cx="337.255" cy="23.957" rx="8.75" ry="12.875"/>
		</g>
		<path fill="#F2F2F2" d="M365.76,127.666c1.5,7.916-1.5,17-13,17H247.427c-11.917,0-14.917-10.334-13-17l30-108.333
			c1.583-7.001,5.373-12,12-12h47.333c6.628,0,10.25,4.249,12,12L365.76,127.666z"/>
		<circle fill="#47272D" cx="288.631" cy="33.082" r="5.75"/>
		<g>
			<path fill="#EBE8C5" d="M298.881,67.332c0,1.104-0.896,2-2,2h-8.75c-1.104,0-2-0.896-2-2v-19.25c0-1.104,0.896-2,2-2h8.75
				c1.104,0,2,0.896,2,2V67.332z"/>
			<path fill="#EBE8C5" d="M313.881,67.332c0,1.104-0.896,2-2,2h-8.75c-1.104,0-2-0.896-2-2v-19.25c0-1.104,0.896-2,2-2h8.75
				c1.104,0,2,0.896,2,2V67.332z"/>
		</g>
		<ellipse fill="#CCCCCC" cx="300.005" cy="50.582" rx="15.366" ry="10.25"/>
		<circle fill="#ED9CC0" cx="300.006" cy="44.082" r="5.75"/>
		<circle fill="#47272D" cx="311.381" cy="33.082" r="5.75"/>
		<circle fill="#FFFFFF" cx="288.631" cy="29.582" r="1.5"/>
		<circle fill="#FFFFFF" cx="311.381" cy="29.582" r="1.5"/>
		<g>
			<polygon fill="#CCCCCC" points="246.389,84.471 261.01,95.998 266.676,93.665 251.938,64.432 			"/>
			<circle fill="#CCCCCC" cx="260.26" cy="97.582" r="3.375"/>
			<circle fill="#CCCCCC" cx="265.76" cy="96.332" r="3.375"/>
			<circle fill="#CCCCCC" cx="266.76" cy="92.082" r="3.375"/>
		</g>
		<g>
			<polygon fill="#CCCCCC" points="353.822,84.471 339.201,95.998 333.535,93.665 348.272,64.432 			"/>
			<circle fill="#CCCCCC" cx="339.951" cy="97.582" r="3.375"/>
			<circle fill="#CCCCCC" cx="334.451" cy="96.332" r="3.375"/>
			<circle fill="#CCCCCC" cx="333.451" cy="92.082" r="3.375"/>
		</g>
	</g>
</g>
<g id="Layer_1">
	<path d="M40.058,388.517c-1.593,0-3.119-0.592-4.296-1.665c-1.097-0.999-1.782-2.336-1.995-3.753
		c-0.438-0.24-0.85-0.533-1.226-0.876c-2.597-2.368-2.783-6.408-0.415-9.006c0.174-0.19,0.358-0.369,0.553-0.535
		c0.194-1.212,0.732-2.358,1.572-3.279c1.206-1.321,2.922-2.079,4.71-2.079c1.593,0,3.119,0.592,4.297,1.666
		c0.177,0.161,0.344,0.332,0.5,0.511l30.978-11.814l-13.821,27.252l-14.717-1.059c-0.264,0.931-0.744,1.808-1.43,2.56
		C43.564,387.759,41.847,388.517,40.058,388.517z"/>
	<path d="M41.442,226.492c-0.65,0.715-1.471,1.287-2.42,1.655c-0.739,0.286-1.513,0.431-2.301,0.431
		c-2.612,0-5.002-1.637-5.946-4.073c-0.536-1.384-0.553-2.886-0.113-4.248c-0.285-0.41-0.522-0.856-0.707-1.332
		c-1.27-3.276,0.363-6.976,3.64-8.248c0.24-0.093,0.485-0.171,0.735-0.233c0.713-0.998,1.707-1.785,2.869-2.235
		c0.739-0.287,1.513-0.432,2.301-0.432c2.612,0,5.002,1.637,5.947,4.074c0.086,0.224,0.16,0.451,0.22,0.682l32.997,3.224
		l-24.515,18.239L41.442,226.492z"/>
	<path d="M40.006,68.304c-0.727,0.285-1.514,0.438-2.329,0.438c-0.189,0-0.381-0.008-0.574-0.026
		c-3.499-0.313-6.093-3.417-5.78-6.918c0.133-1.478,0.783-2.832,1.781-3.858c-0.074-0.495-0.089-1.001-0.043-1.511
		c0.297-3.308,3.026-5.804,6.346-5.804c0.189,0,0.38,0.008,0.572,0.025c0.255,0.023,0.507,0.062,0.756,0.115
		c0.915-0.491,1.943-0.757,2.998-0.757c0.188,0,0.377,0.008,0.568,0.025c3.501,0.315,6.094,3.419,5.781,6.919
		c-0.022,0.239-0.057,0.476-0.105,0.709l28.15,17.511L48.07,80.663L40.006,68.304z"/>
	<path d="M153.407,148.416H48.074c-7.246,0-11.242-3.285-13.316-6.041c-3.045-4.043-4.027-9.71-2.568-14.787l25.592-92.412
		c-0.73-0.492-1.436-1.032-2.104-1.615c-6.709-5.857-8.566-14.332-4.232-19.295c1.849-2.119,4.627-3.286,7.82-3.286
		c1.866,0,3.803,0.386,5.717,1.126c2.773-4.555,6.979-7.021,12.092-7.021h47.333c5.396,0,9.475,2.325,12.167,6.924
		c1.831-0.678,3.68-1.03,5.459-1.03c3.195,0,5.975,1.169,7.826,3.288c2.179,2.494,2.861,6.092,1.871,9.873
		c-0.895,3.42-3.061,6.766-6.1,9.419c-0.625,0.544-1.278,1.052-1.961,1.52l25.627,92.539l0.035,0.12l0.023,0.121
		c1.115,5.89-0.046,11.439-3.182,15.225C164.158,145.514,160.307,148.416,153.407,148.416L153.407,148.416z"/>
	<g>
		<polygon fill="#8C6239" points="49.493,77.354 39.319,61.761 42.149,56.326 69.948,73.618 		"/>
		<circle fill="#8C6239" cx="37.675" cy="62.366" r="3.375"/>
		<circle fill="#8C6239" cx="39.411" cy="57" r="3.375"/>
		<circle fill="#8C6239" cx="43.733" cy="56.384" r="3.375"/>
	</g>
	<g>
		
			<ellipse transform="matrix(0.6578 -0.7532 0.7532 0.6578 3.09 56.2127)" fill="#754C24" cx="63.403" cy="24.706" rx="8.75" ry="12.876"/>
		
			<ellipse transform="matrix(-0.6578 -0.7532 0.7532 -0.6578 209.9995 144.8295)" fill="#754C24" cx="137.903" cy="24.706" rx="8.75" ry="12.876"/>
	</g>
	<path fill="#603813" d="M166.407,128.416c1.499,7.916-1.501,17-13,17H48.074c-11.918,0-14.918-10.334-13-17l30-108.333
		c1.582-7.001,5.373-12,12-12h47.333c6.628,0,10.249,4.249,12,12L166.407,128.416z"/>
	<circle cx="89.277" cy="33.832" r="5.75"/>
	<g>
		<path fill="#EBE8C5" d="M99.527,68.082c0,1.104-0.895,2-2,2h-8.75c-1.104,0-2-0.896-2-2v-19.25c0-1.105,0.896-2,2-2h8.75
			c1.105,0,2,0.895,2,2V68.082z"/>
		<path fill="#EBE8C5" d="M114.527,68.082c0,1.104-0.895,2-2,2h-8.75c-1.104,0-2-0.896-2-2v-19.25c0-1.105,0.896-2,2-2h8.75
			c1.105,0,2,0.895,2,2V68.082z"/>
	</g>
	<ellipse fill="#8C6239" cx="100.653" cy="51.332" rx="15.366" ry="10.25"/>
	<circle cx="100.652" cy="44.832" r="5.75"/>
	<circle cx="112.027" cy="33.832" r="5.75"/>
	<circle fill="#FFFFFF" cx="89.277" cy="30.332" r="1.5"/>
	<circle fill="#FFFFFF" cx="112.027" cy="30.332" r="1.5"/>
	<g>
		<polygon fill="#8C6239" points="154.469,85.221 139.849,96.748 134.182,94.415 148.92,65.182 		"/>
		<circle fill="#8C6239" cx="140.599" cy="98.332" r="3.375"/>
		<circle fill="#8C6239" cx="135.099" cy="97.082" r="3.375"/>
		<circle fill="#8C6239" cx="134.099" cy="92.832" r="3.375"/>
	</g>
	<path d="M153.407,300.416H48.074c-7.246,0-11.242-3.285-13.316-6.041c-3.045-4.043-4.027-9.71-2.568-14.787l25.592-92.412
		c-0.73-0.492-1.436-1.032-2.104-1.615c-6.709-5.857-8.566-14.332-4.232-19.295c1.849-2.119,4.627-3.286,7.82-3.286
		c1.866,0,3.803,0.386,5.717,1.126c2.773-4.555,6.979-7.021,12.092-7.021h47.333c5.396,0,9.475,2.325,12.167,6.924
		c1.831-0.678,3.68-1.03,5.459-1.03c3.195,0,5.975,1.169,7.826,3.288c2.179,2.494,2.861,6.092,1.871,9.873
		c-0.895,3.42-3.061,6.766-6.1,9.419c-0.625,0.544-1.278,1.052-1.961,1.52l25.627,92.539l0.035,0.12l0.023,0.121
		c1.115,5.89-0.046,11.439-3.182,15.225C164.158,297.514,160.307,300.416,153.407,300.416L153.407,300.416z"/>
	<g>
		<polygon fill="#8C6239" points="53.956,230.4 37.926,220.931 38.055,214.805 70.639,217.988 		"/>
		<circle fill="#8C6239" cx="36.72" cy="222.203" r="3.375"/>
		<circle fill="#8C6239" cx="35.898" cy="216.622" r="3.375"/>
		<circle fill="#8C6239" cx="39.501" cy="214.154" r="3.375"/>
	</g>
	<g>
		
			<ellipse transform="matrix(0.6578 -0.7532 0.7532 0.6578 -111.4015 108.2341)" fill="#754C24" cx="63.403" cy="176.706" rx="8.75" ry="12.876"/>
		
			<ellipse transform="matrix(-0.6578 -0.7532 0.7532 -0.6578 95.5081 396.8081)" fill="#754C24" cx="137.903" cy="176.706" rx="8.75" ry="12.876"/>
	</g>
	<path fill="#603813" d="M166.407,280.416c1.499,7.916-1.501,17-13,17H48.074c-11.918,0-14.918-10.334-13-17l30-108.333
		c1.582-7.001,5.373-12,12-12h47.333c6.628,0,10.249,4.249,12,12L166.407,280.416z"/>
	<circle cx="89.277" cy="185.832" r="5.75"/>
	<g>
		<path fill="#EBE8C5" d="M99.527,220.082c0,1.104-0.895,2-2,2h-8.75c-1.104,0-2-0.896-2-2v-19.25c0-1.105,0.896-2,2-2h8.75
			c1.105,0,2,0.895,2,2V220.082z"/>
		<path fill="#EBE8C5" d="M114.527,220.082c0,1.104-0.895,2-2,2h-8.75c-1.104,0-2-0.896-2-2v-19.25c0-1.105,0.896-2,2-2h8.75
			c1.105,0,2,0.895,2,2V220.082z"/>
	</g>
	<ellipse fill="#8C6239" cx="100.653" cy="203.332" rx="15.366" ry="10.25"/>
	<circle cx="100.652" cy="196.832" r="5.75"/>
	<circle cx="112.027" cy="185.832" r="5.75"/>
	<circle fill="#FFFFFF" cx="89.277" cy="182.332" r="1.5"/>
	<circle fill="#FFFFFF" cx="112.027" cy="182.332" r="1.5"/>
	<g>
		<polygon fill="#8C6239" points="154.469,237.221 139.849,248.748 134.182,246.415 148.92,217.182 		"/>
		<circle fill="#8C6239" cx="140.599" cy="250.332" r="3.375"/>
		<circle fill="#8C6239" cx="135.099" cy="249.082" r="3.375"/>
		<circle fill="#8C6239" cx="134.099" cy="244.832" r="3.375"/>
	</g>
	<path d="M153.407,452.416H48.074c-7.246,0-11.242-3.285-13.316-6.041c-3.045-4.043-4.027-9.71-2.568-14.787l25.592-92.412
		c-0.73-0.492-1.436-1.032-2.104-1.615c-6.709-5.857-8.566-14.332-4.232-19.295c1.849-2.119,4.627-3.286,7.82-3.286
		c1.866,0,3.803,0.386,5.717,1.126c2.773-4.555,6.979-7.021,12.092-7.021h47.333c5.396,0,9.475,2.325,12.167,6.924
		c1.831-0.678,3.68-1.03,5.459-1.03c3.195,0,5.975,1.169,7.826,3.288c2.179,2.494,2.861,6.092,1.871,9.873
		c-0.895,3.42-3.061,6.766-6.1,9.419c-0.625,0.544-1.278,1.052-1.961,1.52l25.627,92.539l0.035,0.12l0.023,0.121
		c1.115,5.89-0.046,11.439-3.182,15.225C164.158,449.514,160.307,452.416,153.407,452.416L153.407,452.416z"/>
	<g>
		<polygon fill="#8C6239" points="59.142,381.802 40.572,380.467 37.957,374.924 68.547,363.257 		"/>
		<circle fill="#8C6239" cx="40.059" cy="382.142" r="3.374"/>
		<circle fill="#8C6239" cx="36.837" cy="377.512" r="3.375"/>
		<circle fill="#8C6239" cx="38.963" cy="373.698" r="3.376"/>
	</g>
	<g>
		
			<ellipse transform="matrix(0.6578 -0.7532 0.7532 0.6578 -225.8929 160.2556)" fill="#754C24" cx="63.403" cy="328.706" rx="8.75" ry="12.876"/>
		
			<ellipse transform="matrix(-0.6578 -0.7532 0.7532 -0.6578 -18.9834 648.7866)" fill="#754C24" cx="137.903" cy="328.706" rx="8.75" ry="12.876"/>
	</g>
	<path fill="#603813" d="M166.407,432.416c1.499,7.916-1.501,17-13,17H48.074c-11.918,0-14.918-10.334-13-17l30-108.333
		c1.582-7.001,5.373-12,12-12h47.333c6.628,0,10.249,4.249,12,12L166.407,432.416z"/>
	<circle cx="89.277" cy="337.832" r="5.75"/>
	<g>
		<path fill="#EBE8C5" d="M99.527,372.082c0,1.104-0.895,2-2,2h-8.75c-1.104,0-2-0.896-2-2v-19.25c0-1.105,0.896-2,2-2h8.75
			c1.105,0,2,0.895,2,2V372.082z"/>
		<path fill="#EBE8C5" d="M114.527,372.082c0,1.104-0.895,2-2,2h-8.75c-1.104,0-2-0.896-2-2v-19.25c0-1.105,0.896-2,2-2h8.75
			c1.105,0,2,0.895,2,2V372.082z"/>
	</g>
	<ellipse fill="#8C6239" cx="100.653" cy="355.332" rx="15.366" ry="10.25"/>
	<circle cx="100.652" cy="348.832" r="5.75"/>
	<circle cx="112.027" cy="337.832" r="5.75"/>
	<circle fill="#FFFFFF" cx="89.277" cy="334.332" r="1.5"/>
	<circle fill="#FFFFFF" cx="112.027" cy="334.332" r="1.5"/>
	<g>
		<polygon fill="#8C6239" points="154.469,389.221 139.849,400.748 134.182,398.415 148.92,369.182 		"/>
		<circle fill="#8C6239" cx="140.599" cy="402.332" r="3.375"/>
		<circle fill="#8C6239" cx="135.099" cy="401.082" r="3.375"/>
		<circle fill="#8C6239" cx="134.099" cy="396.832" r="3.375"/>
	</g>
	<g>
	</g>
	<g>
	</g>
	<g>
	</g>
	<g>
	</g>
	<g>
	</g>
	<g>
	</g>
	<g>
	</g>
	<g>
	</g>
	<g>
	</g>
	<g>
	</g>
	<g>
	</g>
	<g>
	</g>
	<g>
	</g>
	<g>
	</g>
	<g>
	</g>
</g>
</svg>
