<svg version="1" xmlns="http://www.w3.org/2000/svg" width="800" height="608" viewBox="0 -228 800 608" enable-background="new 0 -228 800 608"><path d="M152.76-79.833h-105.333c-7.248 0-11.244-3.287-13.316-6.045-3.045-4.041-4.028-9.709-2.565-14.787l9.629-34.779c-1.487-5.926-2.561-10.106-3.197-12.434-.732-2.695-2.453-9.002 3.181-12.92 2.204-1.535 5.915-3.721 8.478-5.197l6.331-22.863c-2.671-.658-4.841-2.141-6.177-4.275-3.49-5.59-.309-13.662 7.242-18.377 1.967-1.23 4.095-2.127 6.24-2.633 2.698-5.836 7.317-9.025 13.154-9.025h47.334c6.134 0 10.565 3.014 13.194 8.961 2.235.49 4.46 1.408 6.525 2.697 3.421 2.137 6.092 5.094 7.521 8.33 1.576 3.572 1.475 7.234-.281 10.045-1.382 2.213-3.666 3.723-6.481 4.342l6.346 22.92c2.5 1.441 6.109 3.572 8.269 5.076 5.634 3.918 3.914 10.226 3.181 12.918-.817 3.002-2.231 8.582-3.114 12.103l9.732 35.143.034.121.023.123c1.113 5.889-.045 11.438-3.183 15.225-2.015 2.429-5.868 5.331-12.767 5.331z"/><g fill="#8C6239"><path d="M53.372-164.668s-7.16 4.01-10.5 6.332c-3.834 2.668-2.744 6.939-2 9.668 1.5 5.5 5 19.666 5 19.666l7.5-35.666z"/><path d="M146.638-164.668s7.16 4.01 10.5 6.332c3.833 2.668 2.744 6.939 2 9.668-1.5 5.5-5 19.666-5 19.666l-7.5-35.666z"/></g><g fill="#754C24"><ellipse transform="matrix(-.848 -.53 .53 -.848 359.502 -300.066)" cx="136.752" cy="-201.549" rx="12.875" ry="8.75"/><ellipse transform="matrix(-.848 .53 -.53 -.848 10.148 -406.001)" cx="63.256" cy="-201.546" rx="12.875" ry="8.75"/></g><path fill="#603813" d="M165.759-99.834c1.5 7.916-1.5 17-13 17h-105.333c-11.917 0-14.917-10.334-13-17l30-108.332c1.583-7.002 5.373-12 12-12h47.333c6.628 0 10.25 4.248 12 12l30 108.332z"/><g fill="#EBE8C5"><path d="M98.88-157.168c0 1.104-.896 2-2 2h-8.75c-1.104 0-2-.896-2-2v-19.25c0-1.105.896-2 2-2h8.75c1.104 0 2 .895 2 2v19.25z"/><path d="M113.88-157.168c0 1.104-.896 2-2 2h-8.75c-1.104 0-2-.896-2-2v-19.25c0-1.105.896-2 2-2h8.75c1.104 0 2 .895 2 2v19.25z"/></g><ellipse fill="#8C6239" cx="100.004" cy="-173.918" rx="15.366" ry="10.25"/><circle cx="97.005" cy="-179.418" r="5.75"/><circle cx="111.38" cy="-190.418" r="5.75"/><circle cx="88.63" cy="-190.418" r="5.75"/><circle fill="#fff" cx="112.38" cy="-187.918" r="1.5"/><circle fill="#fff" cx="89.63" cy="-187.918" r="1.5"/><path d="M352.76-79.833h-105.333c-7.248 0-11.244-3.287-13.317-6.045-3.045-4.041-4.028-9.709-2.565-14.787l9.629-34.779c-1.487-5.926-2.561-10.106-3.197-12.434-.733-2.695-2.453-9.002 3.181-12.92 2.204-1.535 5.915-3.721 8.478-5.197l6.331-22.863c-2.671-.658-4.841-2.141-6.177-4.275-3.491-5.59-.309-13.662 7.242-18.377 1.967-1.23 4.095-2.127 6.24-2.633 2.698-5.836 7.318-9.025 13.154-9.025h47.334c6.134 0 10.565 3.014 13.194 8.961 2.235.49 4.46 1.408 6.525 2.697 3.421 2.137 6.092 5.094 7.521 8.33 1.576 3.572 1.475 7.234-.281 10.045-1.382 2.213-3.666 3.723-6.481 4.342l6.346 22.92c2.5 1.441 6.109 3.572 8.269 5.076 5.634 3.918 3.914 10.226 3.181 12.918-.818 3.002-2.231 8.582-3.115 12.103l9.733 35.143.034.121.023.123c1.113 5.889-.044 11.438-3.183 15.225-2.014 2.429-5.866 5.331-12.766 5.331z"/><g fill="#ccc"><path d="M253.372-164.668s-7.16 4.01-10.5 6.332c-3.833 2.668-2.744 6.939-2 9.668 1.5 5.5 5 19.666 5 19.666l7.5-35.666z"/><path d="M346.638-164.668s7.16 4.01 10.5 6.332c3.833 2.668 2.744 6.939 2 9.668-1.5 5.5-5 19.666-5 19.666l-7.5-35.666z"/></g><g fill="#E6E6E6"><ellipse transform="matrix(-.848 -.53 .53 -.848 729.148 -194.129)" cx="336.756" cy="-201.55" rx="12.875" ry="8.75"/><ellipse transform="matrix(-.848 .53 -.53 -.848 379.786 -511.944)" cx="263.254" cy="-201.549" rx="12.875" ry="8.75"/></g><path fill="#F2F2F2" d="M365.759-99.834c1.5 7.916-1.5 17-13 17h-105.333c-11.917 0-14.917-10.334-13-17l30-108.332c1.583-7.002 5.373-12 12-12h47.333c6.627 0 10.25 4.248 12 12l30 108.332z"/><g fill="#EBE8C5"><path d="M298.88-157.168c0 1.104-.896 2-2 2h-8.75c-1.104 0-2-.896-2-2v-19.25c0-1.105.896-2 2-2h8.75c1.104 0 2 .895 2 2v19.25z"/><path d="M313.88-157.168c0 1.104-.896 2-2 2h-8.75c-1.104 0-2-.896-2-2v-19.25c0-1.105.896-2 2-2h8.75c1.104 0 2 .895 2 2v19.25z"/></g><ellipse fill="#ccc" cx="300.005" cy="-173.918" rx="15.366" ry="10.25"/><circle fill="#ED9CC0" cx="297.005" cy="-179.418" r="5.75"/><circle fill="#47272D" cx="311.38" cy="-190.418" r="5.75"/><circle fill="#47272D" cx="288.63" cy="-190.418" r="5.75"/><circle fill="#fff" cx="312.38" cy="-187.918" r="1.5"/><circle fill="#fff" cx="289.63" cy="-187.918" r="1.5"/><path d="M552.761-79.833h-105.334c-7.248 0-11.244-3.287-13.315-6.045-3.045-4.041-4.028-9.709-2.565-14.787l9.63-34.779c-1.488-5.926-2.562-10.106-3.197-12.434-.732-2.695-2.452-9.002 3.181-12.92 2.204-1.535 5.915-3.721 8.479-5.197l6.33-22.863c-2.67-.658-4.841-2.141-6.176-4.275-3.491-5.59-.309-13.662 7.241-18.377 1.968-1.23 4.095-2.127 6.24-2.633 2.697-5.836 7.316-9.025 13.153-9.025h47.334c6.134 0 10.565 3.014 13.194 8.961 2.234.49 4.461 1.408 6.525 2.697 3.421 2.137 6.092 5.094 7.521 8.33 1.576 3.572 1.476 7.234-.281 10.045-1.382 2.213-3.666 3.723-6.48 4.342l6.346 22.92c2.5 1.441 6.109 3.572 8.271 5.076 5.633 3.918 3.912 10.226 3.18 12.918-.817 3.002-2.23 8.582-3.114 12.103l9.733 35.143.032.121.023.123c1.113 5.889-.045 11.438-3.183 15.225-2.017 2.429-5.87 5.331-12.768 5.331z"/><g fill="#8C6239"><path d="M453.372-164.668s-7.16 4.01-10.5 6.332c-3.834 2.668-2.744 6.939-2 9.668 1.5 5.5 5 19.666 5 19.666l7.5-35.666z"/><path d="M546.638-164.668s7.16 4.01 10.5 6.332c3.834 2.668 2.744 6.939 2 9.668-1.5 5.5-5 19.666-5 19.666l-7.5-35.666z"/></g><g fill="#754C24"><ellipse transform="matrix(-.848 -.53 .53 -.848 1098.804 -88.174)" cx="536.767" cy="-201.546" rx="12.876" ry="8.75"/><ellipse transform="matrix(-.848 .53 -.53 -.848 749.398 -617.879)" cx="463.245" cy="-201.547" rx="12.875" ry="8.75"/></g><path fill="#9C8E84" d="M565.759-99.834c1.5 7.916-1.5 17-13 17h-105.332c-11.918 0-14.918-10.334-13-17l30-108.332c1.582-7.002 5.372-12 12-12h47.332c6.628 0 10.25 4.248 12 12l30 108.332z"/><g fill="#EBE8C5"><path d="M498.88-157.168c0 1.104-.896 2-2 2h-8.75c-1.104 0-2-.896-2-2v-19.25c0-1.105.896-2 2-2h8.75c1.104 0 2 .895 2 2v19.25z"/><path d="M513.88-157.168c0 1.104-.896 2-2 2h-8.75c-1.104 0-2-.896-2-2v-19.25c0-1.105.896-2 2-2h8.75c1.104 0 2 .895 2 2v19.25z"/></g><ellipse fill="#8C6239" cx="500.005" cy="-173.918" rx="15.365" ry="10.25"/><circle cx="497.005" cy="-179.418" r="5.75"/><circle cx="511.38" cy="-190.418" r="5.75"/><circle cx="488.63" cy="-190.418" r="5.75"/><circle fill="#fff" cx="512.38" cy="-187.918" r="1.5"/><circle fill="#fff" cx="489.63" cy="-187.918" r="1.5"/><path d="M752.761-79.833h-105.334c-7.248 0-11.244-3.287-13.315-6.045-3.045-4.041-4.027-9.709-2.565-14.787l9.63-34.779c-1.487-5.926-2.562-10.106-3.197-12.434-.732-2.695-2.452-9.002 3.181-12.92 2.204-1.535 5.915-3.721 8.479-5.197l6.33-22.863c-2.67-.658-4.841-2.141-6.176-4.275-3.491-5.59-.309-13.662 7.241-18.377 1.968-1.23 4.095-2.127 6.24-2.633 2.697-5.836 7.316-9.025 13.153-9.025h47.334c6.134 0 10.565 3.014 13.194 8.961 2.234.49 4.461 1.408 6.525 2.697 3.421 2.137 6.092 5.094 7.521 8.33 1.576 3.572 1.476 7.234-.281 10.045-1.382 2.213-3.666 3.723-6.48 4.342l6.346 22.92c2.5 1.441 6.109 3.572 8.271 5.076 5.633 3.918 3.912 10.226 3.18 12.918-.817 3.002-2.23 8.582-3.114 12.103l9.733 35.143.032.121.023.123c1.113 5.889-.045 11.438-3.183 15.225-2.017 2.429-5.87 5.331-12.768 5.331z"/><g fill="#666"><path d="M653.372-164.668s-7.16 4.01-10.5 6.332c-3.834 2.668-2.744 6.939-2 9.668 1.5 5.5 5 19.666 5 19.666l7.5-35.666z"/><path d="M746.638-164.668s7.16 4.01 10.5 6.332c3.834 2.668 2.744 6.939 2 9.668-1.5 5.5-5 19.666-5 19.666l-7.5-35.666z"/></g><g fill="#808080"><ellipse transform="matrix(-.848 -.53 .53 -.848 1468.449 17.77)" cx="736.771" cy="-201.546" rx="12.875" ry="8.75"/><ellipse transform="matrix(-.848 .53 -.53 -.848 1119.044 -723.803)" cx="663.24" cy="-201.547" rx="12.875" ry="8.75"/></g><path fill="#3F3333" d="M765.759-99.834c1.5 7.916-1.5 17-13 17h-105.332c-11.918 0-14.918-10.334-13-17l30-108.332c1.582-7.002 5.372-12 12-12h47.332c6.628 0 10.25 4.248 12 12l30 108.332z"/><g fill="#EBE8C5"><path d="M698.88-157.168c0 1.104-.896 2-2 2h-8.75c-1.104 0-2-.896-2-2v-19.25c0-1.105.896-2 2-2h8.75c1.104 0 2 .895 2 2v19.25z"/><path d="M713.88-157.168c0 1.104-.896 2-2 2h-8.75c-1.104 0-2-.896-2-2v-19.25c0-1.105.896-2 2-2h8.75c1.104 0 2 .895 2 2v19.25z"/></g><ellipse fill="#808080" cx="700.005" cy="-173.918" rx="15.365" ry="10.25"/><circle cx="697.005" cy="-179.418" r="5.75"/><circle cx="711.38" cy="-190.418" r="5.75"/><circle cx="688.63" cy="-190.418" r="5.75"/><circle fill="#fff" cx="712.38" cy="-187.918" r="1.5"/><circle fill="#fff" cx="689.63" cy="-187.918" r="1.5"/><path d="M753.26 71.166h-105.334c-7.246 0-11.24-3.285-13.314-6.041-3.045-4.043-4.029-9.71-2.568-14.787l25.592-92.411c-.732-.493-1.438-1.033-2.105-1.616-6.709-5.857-8.566-14.332-4.232-19.295 1.85-2.119 4.629-3.286 7.822-3.286 1.865 0 3.801.386 5.717 1.126 2.771-4.554 6.979-7.021 12.09-7.021h47.334c5.395 0 9.475 2.325 12.166 6.925 1.832-.679 3.682-1.031 5.459-1.031 3.197 0 5.975 1.169 7.826 3.288 2.18 2.495 2.861 6.093 1.873 9.873-.895 3.42-3.062 6.767-6.102 9.419-.623.545-1.277 1.052-1.959 1.52l25.627 92.539.035.12.021.121c1.115 5.89-.045 11.439-3.18 15.225-2.018 2.43-5.868 5.332-12.768 5.332z"/><g fill="#808080"><ellipse transform="matrix(.658 -.753 .753 .658 266.596 481.62)" cx="663.255" cy="-52.543" rx="8.75" ry="12.875"/><ellipse transform="matrix(-.658 -.753 .753 -.658 1262.571 468.62)" cx="737.755" cy="-52.543" rx="8.75" ry="12.875"/></g><path fill="#3F3333" d="M766.26 51.166c1.5 7.916-1.5 17-13 17h-105.334c-11.916 0-14.916-10.334-13-17l30-108.333c1.584-7.001 5.373-12 12-12h47.334c6.627 0 10.25 4.249 12 12l30 108.333z"/><circle cx="689.131" cy="-43.418" r="5.75"/><g fill="#EBE8C5"><path d="M699.381-9.168c0 1.104-.896 2-2 2h-8.75c-1.105 0-2-.896-2-2v-19.25c0-1.104.895-2 2-2h8.75c1.104 0 2 .896 2 2v19.25z"/><path d="M714.381-9.168c0 1.104-.896 2-2 2h-8.75c-1.105 0-2-.896-2-2v-19.25c0-1.104.895-2 2-2h8.75c1.104 0 2 .896 2 2v19.25z"/></g><ellipse fill="#808080" cx="700.505" cy="-25.918" rx="15.366" ry="10.25"/><circle cx="700.506" cy="-32.418" r="5.75"/><circle cx="711.881" cy="-43.418" r="5.75"/><circle fill="#fff" cx="689.131" cy="-46.918" r="1.5"/><circle fill="#fff" cx="711.881" cy="-46.918" r="1.5"/><g fill="#666"><polygon points="646.889,7.971 661.51,19.498 667.176,17.165 652.438,-12.068"/><circle cx="660.76" cy="21.082" r="3.375"/><circle cx="666.26" cy="19.832" r="3.375"/><circle cx="667.26" cy="15.582" r="3.375"/></g><g fill="#666"><polygon points="754.322,7.971 739.701,19.498 734.035,17.165 748.771,-12.068"/><circle cx="740.451" cy="21.082" r="3.375"/><circle cx="734.951" cy="19.832" r="3.375"/><circle cx="733.951" cy="15.582" r="3.375"/></g><path d="M553.26 71.166h-105.334c-7.246 0-11.24-3.285-13.314-6.041-3.045-4.043-4.029-9.71-2.568-14.787l25.592-92.411c-.732-.493-1.438-1.033-2.105-1.616-6.709-5.857-8.566-14.332-4.232-19.295 1.85-2.119 4.629-3.286 7.822-3.286 1.865 0 3.801.386 5.717 1.126 2.771-4.554 6.979-7.021 12.09-7.021h47.334c5.395 0 9.475 2.325 12.166 6.925 1.832-.679 3.682-1.031 5.459-1.031 3.197 0 5.975 1.169 7.826 3.288 2.18 2.495 2.861 6.093 1.873 9.873-.895 3.42-3.062 6.767-6.102 9.419-.623.545-1.277 1.052-1.959 1.52l25.627 92.539.035.12.021.121c1.115 5.89-.045 11.439-3.18 15.225-2.018 2.43-5.868 5.332-12.768 5.332z"/><g fill="#754C24"><ellipse transform="matrix(.658 -.753 .753 .658 198.141 330.967)" cx="463.255" cy="-52.543" rx="8.75" ry="12.875"/><ellipse transform="matrix(-.658 -.753 .753 -.658 931.027 317.968)" cx="537.755" cy="-52.543" rx="8.75" ry="12.875"/></g><path fill="#9C8E84" d="M566.26 51.166c1.5 7.916-1.5 17-13 17h-105.334c-11.916 0-14.916-10.334-12.999-17l29.999-108.333c1.584-7.001 5.373-12 12-12h47.334c6.627 0 10.25 4.249 12 12l30 108.333z"/><circle cx="489.131" cy="-43.418" r="5.75"/><g fill="#EBE8C5"><path d="M499.381-9.168c0 1.104-.896 2-2 2h-8.75c-1.105 0-2-.896-2-2v-19.25c0-1.104.895-2 2-2h8.75c1.104 0 2 .896 2 2v19.25z"/><path d="M514.381-9.168c0 1.104-.896 2-2 2h-8.75c-1.105 0-2-.896-2-2v-19.25c0-1.104.895-2 2-2h8.75c1.104 0 2 .896 2 2v19.25z"/></g><ellipse fill="#8C6239" cx="500.505" cy="-25.918" rx="15.366" ry="10.25"/><circle cx="500.506" cy="-32.418" r="5.75"/><circle cx="511.881" cy="-43.418" r="5.75"/><circle fill="#fff" cx="489.131" cy="-46.918" r="1.5"/><circle fill="#fff" cx="511.881" cy="-46.918" r="1.5"/><g fill="#8C6239"><polygon points="446.889,7.971 461.51,19.498 467.176,17.165 452.438,-12.068"/><circle cx="460.76" cy="21.082" r="3.375"/><circle cx="466.26" cy="19.832" r="3.375"/><circle cx="467.26" cy="15.582" r="3.375"/></g><g fill="#8C6239"><polygon points="554.322,7.971 539.701,19.498 534.035,17.165 548.771,-12.068"/><circle cx="540.451" cy="21.082" r="3.375"/><circle cx="534.951" cy="19.832" r="3.375"/><circle cx="533.951" cy="15.582" r="3.375"/></g><path d="M353.26 71.166h-105.333c-7.246 0-11.241-3.285-13.315-6.041-3.045-4.043-4.028-9.71-2.568-14.787l25.592-92.411c-.731-.493-1.437-1.033-2.104-1.616-6.709-5.857-8.566-14.332-4.232-19.295 1.849-2.119 4.628-3.286 7.821-3.286 1.865 0 3.802.386 5.717 1.126 2.772-4.554 6.979-7.021 12.091-7.021h47.333c5.396 0 9.475 2.325 12.167 6.925 1.831-.679 3.681-1.031 5.459-1.031 3.196 0 5.975 1.169 7.826 3.288 2.179 2.495 2.861 6.093 1.872 9.873-.895 3.42-3.062 6.767-6.101 9.419-.624.545-1.278 1.052-1.96 1.52l25.627 92.539.035.12.022.121c1.115 5.89-.046 11.439-3.181 15.225-2.017 2.43-5.868 5.332-12.768 5.332z"/><g fill="#E6E6E6"><ellipse transform="matrix(.658 -.753 .753 .658 129.675 180.31)" cx="263.255" cy="-52.543" rx="8.75" ry="12.875"/><ellipse transform="matrix(-.658 -.753 .753 -.658 599.492 167.305)" cx="337.755" cy="-52.543" rx="8.75" ry="12.875"/></g><path fill="#F2F2F2" d="M366.26 51.166c1.5 7.916-1.5 17-13 17h-105.333c-11.917 0-14.917-10.334-13-17l30-108.333c1.583-7.001 5.373-12 12-12h47.333c6.628 0 10.25 4.249 12 12l30 108.333z"/><circle fill="#47272D" cx="289.131" cy="-43.418" r="5.75"/><g fill="#EBE8C5"><path d="M299.381-9.168c0 1.104-.896 2-2 2h-8.75c-1.104 0-2-.896-2-2v-19.25c0-1.104.896-2 2-2h8.75c1.104 0 2 .896 2 2v19.25z"/><path d="M314.381-9.168c0 1.104-.896 2-2 2h-8.75c-1.104 0-2-.896-2-2v-19.25c0-1.104.896-2 2-2h8.75c1.104 0 2 .896 2 2v19.25z"/></g><ellipse fill="#ccc" cx="300.505" cy="-25.918" rx="15.366" ry="10.25"/><circle fill="#ED9CC0" cx="300.506" cy="-32.418" r="5.75"/><circle fill="#47272D" cx="311.881" cy="-43.418" r="5.75"/><circle fill="#fff" cx="289.131" cy="-46.918" r="1.5"/><circle fill="#fff" cx="311.881" cy="-46.918" r="1.5"/><g fill="#ccc"><polygon points="246.889,7.971 261.51,19.498 267.176,17.165 252.438,-12.068"/><circle cx="260.76" cy="21.082" r="3.375"/><circle cx="266.26" cy="19.832" r="3.375"/><circle cx="267.26" cy="15.582" r="3.375"/></g><g fill="#ccc"><polygon points="354.322,7.971 339.701,19.498 334.035,17.165 348.772,-12.068"/><circle cx="340.451" cy="21.082" r="3.375"/><circle cx="334.951" cy="19.832" r="3.375"/><circle cx="333.951" cy="15.582" r="3.375"/></g><path d="M40.558 312.017c-1.593 0-3.119-.592-4.296-1.665-1.097-.999-1.782-2.336-1.995-3.753-.438-.24-.85-.533-1.226-.876-2.597-2.368-2.783-6.408-.415-9.006.174-.19.358-.369.553-.535.194-1.212.732-2.358 1.572-3.279 1.206-1.321 2.922-2.079 4.71-2.079 1.593 0 3.119.592 4.297 1.666.177.161.344.332.5.511l30.978-11.814-13.821 27.252-14.717-1.059c-.264.931-.744 1.808-1.43 2.56-1.204 1.319-2.921 2.077-4.71 2.077z"/><path d="M41.942 149.992c-.65.715-1.471 1.287-2.42 1.654-.739.287-1.513.432-2.301.432-2.612 0-5.002-1.637-5.946-4.072-.536-1.385-.553-2.887-.113-4.248-.285-.41-.522-.857-.707-1.332-1.27-3.277.363-6.977 3.64-8.248.24-.094.485-.171.735-.232.713-.998 1.707-1.785 2.869-2.235.739-.286 1.513-.432 2.301-.432 2.612 0 5.002 1.638 5.947 4.073.086.225.16.451.22.682l32.997 3.225-24.515 18.239-12.707-7.506z"/><path d="M40.506-8.196c-.727.285-1.514.438-2.329.438-.189 0-.381-.008-.574-.026-3.499-.313-6.093-3.417-5.78-6.918.133-1.478.783-2.832 1.781-3.858-.074-.495-.089-1.001-.043-1.511.297-3.308 3.026-5.804 6.346-5.804.189 0 .38.008.572.025.255.023.507.062.756.115.915-.491 1.943-.757 2.998-.757.188 0 .377.008.568.025 3.501.315 6.094 3.419 5.781 6.919-.022.239-.057.476-.105.709l28.15 17.511-30.057 5.491-8.064-12.359z"/><path d="M153.907 71.916h-105.333c-7.246 0-11.242-3.285-13.316-6.041-3.045-4.043-4.027-9.71-2.568-14.787l25.592-92.412c-.73-.492-1.436-1.032-2.104-1.615-6.709-5.857-8.566-14.332-4.232-19.295 1.849-2.119 4.627-3.286 7.82-3.286 1.866 0 3.803.386 5.717 1.126 2.773-4.555 6.979-7.021 12.092-7.021h47.333c5.396 0 9.475 2.325 12.167 6.924 1.831-.678 3.68-1.03 5.459-1.03 3.195 0 5.975 1.169 7.826 3.288 2.179 2.494 2.861 6.092 1.871 9.873-.895 3.42-3.061 6.766-6.1 9.419-.625.544-1.278 1.052-1.961 1.52l25.627 92.539.035.12.023.121c1.115 5.89-.046 11.439-3.182 15.225-2.015 2.43-5.866 5.332-12.766 5.332z"/><g fill="#8C6239"><polygon points="49.993,0.854 39.819,-14.739 42.649,-20.174 70.448,-2.882"/><circle cx="38.175" cy="-14.134" r="3.375"/><circle cx="39.911" cy="-19.5" r="3.375"/><circle cx="44.233" cy="-20.116" r="3.375"/></g><g fill="#754C24"><ellipse transform="matrix(.658 -.753 .753 .658 60.883 30.407)" cx="63.903" cy="-51.794" rx="8.75" ry="12.876"/><ellipse transform="matrix(-.658 -.753 .753 -.658 268.451 18.388)" cx="138.403" cy="-51.794" rx="8.75" ry="12.876"/></g><path fill="#603813" d="M166.907 51.916c1.499 7.916-1.501 17-13 17h-105.333c-11.918 0-14.918-10.334-13-17l30-108.333c1.582-7.001 5.373-12 12-12h47.333c6.628 0 10.249 4.249 12 12l30 108.333z"/><circle cx="89.777" cy="-42.668" r="5.75"/><g fill="#EBE8C5"><path d="M100.027-8.418c0 1.104-.895 2-2 2h-8.75c-1.104 0-2-.896-2-2v-19.25c0-1.105.896-2 2-2h8.75c1.105 0 2 .895 2 2v19.25z"/><path d="M115.027-8.418c0 1.104-.895 2-2 2h-8.75c-1.104 0-2-.896-2-2v-19.25c0-1.105.896-2 2-2h8.75c1.105 0 2 .895 2 2v19.25z"/></g><ellipse fill="#8C6239" cx="101.153" cy="-25.168" rx="15.366" ry="10.25"/><circle cx="101.152" cy="-31.668" r="5.75"/><circle cx="112.527" cy="-42.668" r="5.75"/><circle fill="#fff" cx="89.777" cy="-46.168" r="1.5"/><circle fill="#fff" cx="112.527" cy="-46.168" r="1.5"/><g fill="#8C6239"><polygon points="154.969,8.721 140.349,20.248 134.682,17.915 149.42,-11.318"/><circle cx="141.099" cy="21.832" r="3.375"/><circle cx="135.599" cy="20.582" r="3.375"/><circle cx="134.599" cy="16.332" r="3.375"/></g><path d="M153.907 223.916h-105.333c-7.246 0-11.242-3.285-13.316-6.041-3.045-4.043-4.027-9.71-2.568-14.787l25.592-92.412c-.73-.492-1.436-1.032-2.104-1.615-6.709-5.857-8.566-14.332-4.232-19.295 1.849-2.119 4.627-3.286 7.82-3.286 1.866 0 3.803.386 5.717 1.126 2.773-4.555 6.979-7.021 12.092-7.021h47.333c5.396 0 9.475 2.325 12.167 6.924 1.831-.678 3.68-1.03 5.459-1.03 3.195 0 5.975 1.169 7.826 3.288 2.179 2.494 2.861 6.092 1.871 9.873-.895 3.42-3.061 6.766-6.1 9.419-.625.544-1.278 1.052-1.961 1.52l25.627 92.539.035.12.023.121c1.115 5.89-.046 11.439-3.182 15.225-2.015 2.43-5.866 5.332-12.766 5.332z"/><g fill="#8C6239"><polygon points="54.456,153.9 38.426,144.431 38.555,138.305 71.139,141.488"/><circle cx="37.22" cy="145.703" r="3.375"/><circle cx="36.398" cy="140.122" r="3.375"/><circle cx="40.001" cy="137.654" r="3.375"/></g><g fill="#754C24"><ellipse transform="matrix(.658 -.753 .753 .658 -53.608 82.429)" cx="63.903" cy="100.206" rx="8.75" ry="12.876"/><ellipse transform="matrix(-.658 -.753 .753 -.658 153.959 270.366)" cx="138.403" cy="100.206" rx="8.75" ry="12.876"/></g><path fill="#603813" d="M166.907 203.916c1.499 7.916-1.501 17-13 17h-105.333c-11.918 0-14.918-10.334-13-17l30-108.333c1.582-7.001 5.373-12 12-12h47.333c6.628 0 10.249 4.249 12 12l30 108.333z"/><circle cx="89.777" cy="109.332" r="5.75"/><g fill="#EBE8C5"><path d="M100.027 143.582c0 1.104-.895 2-2 2h-8.75c-1.104 0-2-.896-2-2v-19.25c0-1.105.896-2 2-2h8.75c1.105 0 2 .895 2 2v19.25z"/><path d="M115.027 143.582c0 1.104-.895 2-2 2h-8.75c-1.104 0-2-.896-2-2v-19.25c0-1.105.896-2 2-2h8.75c1.105 0 2 .895 2 2v19.25z"/></g><ellipse fill="#8C6239" cx="101.153" cy="126.832" rx="15.366" ry="10.25"/><circle cx="101.152" cy="120.332" r="5.75"/><circle cx="112.527" cy="109.332" r="5.75"/><circle fill="#fff" cx="89.777" cy="105.832" r="1.5"/><circle fill="#fff" cx="112.527" cy="105.832" r="1.5"/><g fill="#8C6239"><polygon points="154.969,160.721 140.349,172.248 134.682,169.915 149.42,140.682"/><circle cx="141.099" cy="173.832" r="3.375"/><circle cx="135.599" cy="172.582" r="3.375"/><circle cx="134.599" cy="168.332" r="3.375"/></g><path d="M153.907 375.916h-105.333c-7.246 0-11.242-3.285-13.316-6.041-3.045-4.043-4.027-9.71-2.568-14.787l25.592-92.412c-.73-.492-1.436-1.032-2.104-1.615-6.709-5.857-8.566-14.332-4.232-19.295 1.849-2.119 4.627-3.286 7.82-3.286 1.866 0 3.803.386 5.717 1.126 2.773-4.555 6.979-7.021 12.092-7.021h47.333c5.396 0 9.475 2.325 12.167 6.924 1.831-.678 3.68-1.03 5.459-1.03 3.195 0 5.975 1.169 7.826 3.288 2.179 2.494 2.861 6.092 1.871 9.873-.895 3.42-3.061 6.766-6.1 9.419-.625.544-1.278 1.052-1.961 1.52l25.627 92.539.035.12.023.121c1.115 5.89-.046 11.439-3.182 15.225-2.015 2.43-5.866 5.332-12.766 5.332z"/><g fill="#8C6239"><polygon points="59.642,305.302 41.072,303.967 38.457,298.424 69.047,286.757"/><circle cx="40.559" cy="305.642" r="3.374"/><circle cx="37.337" cy="301.012" r="3.375"/><circle cx="39.463" cy="297.198" r="3.376"/></g><g fill="#754C24"><ellipse transform="matrix(.658 -.753 .753 .658 -168.099 134.45)" cx="63.903" cy="252.206" rx="8.75" ry="12.876"/><ellipse transform="matrix(-.658 -.753 .753 -.658 39.468 522.345)" cx="138.403" cy="252.206" rx="8.75" ry="12.876"/></g><path fill="#603813" d="M166.907 355.916c1.499 7.916-1.501 17-13 17h-105.333c-11.918 0-14.918-10.334-13-17l30-108.333c1.582-7.001 5.373-12 12-12h47.333c6.628 0 10.249 4.249 12 12l30 108.333z"/><circle cx="89.777" cy="261.332" r="5.75"/><g fill="#EBE8C5"><path d="M100.027 295.582c0 1.104-.895 2-2 2h-8.75c-1.104 0-2-.896-2-2v-19.25c0-1.105.896-2 2-2h8.75c1.105 0 2 .895 2 2v19.25z"/><path d="M115.027 295.582c0 1.104-.895 2-2 2h-8.75c-1.104 0-2-.896-2-2v-19.25c0-1.105.896-2 2-2h8.75c1.105 0 2 .895 2 2v19.25z"/></g><ellipse fill="#8C6239" cx="101.153" cy="278.832" rx="15.366" ry="10.25"/><circle cx="101.152" cy="272.332" r="5.75"/><circle cx="112.527" cy="261.332" r="5.75"/><circle fill="#fff" cx="89.777" cy="257.832" r="1.5"/><circle fill="#fff" cx="112.527" cy="257.832" r="1.5"/><g fill="#8C6239"><polygon points="154.969,312.721 140.349,324.248 134.682,321.915 149.42,292.682"/><circle cx="141.099" cy="325.832" r="3.375"/><circle cx="135.599" cy="324.582" r="3.375"/><circle cx="134.599" cy="320.332" r="3.375"/></g></svg>