<?xml version="1.0" encoding="utf-8"?>
<!-- Generator: Adobe Illustrator 16.0.3, SVG Export Plug-In . SVG Version: 6.00 Build 0)  -->
<!DOCTYPE svg PUBLIC "-//W3C//DTD SVG 1.0//EN" "http://www.w3.org/TR/2001/REC-SVG-20010904/DTD/svg10.dtd">
<svg version="1.0" xmlns="http://www.w3.org/2000/svg" xmlns:xlink="http://www.w3.org/1999/xlink" x="0px" y="0px" width="800px"
	 height="152px" viewBox="0 0 800 152" enable-background="new 0 0 800 152" xml:space="preserve">
<g id="Layer_2" display="none">
	<rect x="200" display="inline" fill="#00A27B" width="200" height="152"/>
	<rect x="400" display="inline" fill="#FF45B2" width="200" height="152"/>
	<rect x="600" display="inline" fill="#E7DB00" width="200" height="152"/>
	<rect display="inline" fill="#2E81FF" width="200" height="152"/>
</g>
<g id="Layer_1">
	<g>
		<path d="M153.407,148.416H48.074c-7.247,0-11.242-3.285-13.316-6.041c-3.045-4.043-4.028-9.71-2.568-14.787l25.592-92.412
			c-0.731-0.493-1.437-1.033-2.104-1.616c-6.708-5.857-8.566-14.332-4.232-19.294c1.849-2.119,4.628-3.286,7.821-3.286
			c1.866,0,3.802,0.386,5.717,1.126c2.773-4.554,6.979-7.022,12.091-7.022h47.333c5.396,0,9.475,2.326,12.167,6.925
			c1.831-0.678,3.68-1.031,5.459-1.031c3.195,0,5.975,1.169,7.826,3.288c2.179,2.495,2.861,6.092,1.871,9.873
			c-0.895,3.42-3.061,6.766-6.1,9.419c-0.625,0.544-1.278,1.052-1.961,1.52l25.627,92.539l0.035,0.12l0.023,0.121
			c1.115,5.89-0.046,11.439-3.182,15.225C164.158,145.514,160.307,148.416,153.407,148.416L153.407,148.416z"/>
		<g>
			
				<ellipse transform="matrix(0.6578 -0.7532 0.7532 0.6578 3.0896 56.2128)" fill="#754C24" cx="63.403" cy="24.707" rx="8.75" ry="12.875"/>
			
				<ellipse transform="matrix(-0.6578 -0.7532 0.7532 -0.6578 209.9991 144.8304)" fill="#754C24" cx="137.903" cy="24.707" rx="8.75" ry="12.875"/>
		</g>
		<path fill="#603813" d="M166.407,128.416c1.499,7.916-1.501,17-13,17H48.074c-11.917,0-14.917-10.334-13-17l30-108.333
			c1.583-7.001,5.373-12,12-12h47.333c6.628,0,10.249,4.249,12,12L166.407,128.416z"/>
		<circle cx="89.278" cy="33.832" r="5.75"/>
		<g>
			<path fill="#EBE8C5" d="M99.528,68.082c0,1.104-0.896,2-2,2h-8.75c-1.104,0-2-0.896-2-2v-19.25c0-1.104,0.896-2,2-2h8.75
				c1.104,0,2,0.896,2,2V68.082z"/>
			<path fill="#EBE8C5" d="M114.527,68.082c0,1.104-0.895,2-2,2h-8.75c-1.104,0-2-0.896-2-2v-19.25c0-1.104,0.896-2,2-2h8.75
				c1.105,0,2,0.896,2,2V68.082z"/>
		</g>
		<ellipse fill="#8C6239" cx="100.653" cy="51.332" rx="15.366" ry="10.25"/>
		<circle cx="100.653" cy="44.832" r="5.75"/>
		<circle cx="112.027" cy="33.832" r="5.75"/>
		<circle fill="#FFFFFF" cx="89.278" cy="30.332" r="1.5"/>
		<circle fill="#FFFFFF" cx="112.027" cy="30.332" r="1.5"/>
		<g>
			<polygon fill="#8C6239" points="47.036,85.221 61.657,96.748 67.323,94.415 52.585,65.182 			"/>
			<circle fill="#8C6239" cx="60.907" cy="98.332" r="3.375"/>
			<circle fill="#8C6239" cx="66.407" cy="97.082" r="3.375"/>
			<circle fill="#8C6239" cx="67.407" cy="92.832" r="3.375"/>
		</g>
		<g>
			<polygon fill="#8C6239" points="154.469,85.221 139.849,96.748 134.182,94.415 148.92,65.182 			"/>
			<circle fill="#8C6239" cx="140.599" cy="98.332" r="3.375"/>
			<circle fill="#8C6239" cx="135.099" cy="97.082" r="3.375"/>
			<circle fill="#8C6239" cx="134.099" cy="92.832" r="3.375"/>
		</g>
	</g>
	<g>
		<path d="M752.76,147.666H647.426c-7.246,0-11.24-3.285-13.314-6.041c-3.045-4.043-4.029-9.71-2.568-14.787l25.592-92.411
			c-0.732-0.493-1.438-1.033-2.105-1.616c-6.709-5.857-8.566-14.332-4.232-19.295c1.85-2.119,4.629-3.286,7.822-3.286
			c1.865,0,3.801,0.386,5.717,1.126c2.771-4.554,6.979-7.021,12.09-7.021h47.334c5.395,0,9.475,2.325,12.166,6.925
			c1.832-0.679,3.682-1.031,5.459-1.031c3.197,0,5.975,1.169,7.826,3.288c2.18,2.495,2.861,6.093,1.873,9.873
			c-0.895,3.42-3.062,6.767-6.102,9.419c-0.623,0.545-1.277,1.052-1.959,1.52l25.627,92.539l0.035,0.12l0.021,0.121
			c1.115,5.89-0.045,11.439-3.18,15.225C763.51,144.764,759.66,147.666,752.76,147.666L752.76,147.666z"/>
		<g>
			
				<ellipse transform="matrix(0.6577 -0.7533 0.7533 0.6577 208.8005 507.4272)" fill="#808080" cx="662.755" cy="23.957" rx="8.75" ry="12.875"/>
			
				<ellipse transform="matrix(-0.6577 -0.7533 0.7533 -0.6577 1204.1177 595.0593)" fill="#808080" cx="737.255" cy="23.957" rx="8.75" ry="12.875"/>
		</g>
		<path fill="#3F3333" d="M765.76,127.666c1.5,7.916-1.5,17-13,17H647.426c-11.916,0-14.916-10.334-13-17l30-108.333
			c1.584-7.001,5.373-12,12-12h47.334c6.627,0,10.25,4.249,12,12L765.76,127.666z"/>
		<circle cx="688.631" cy="33.082" r="5.75"/>
		<g>
			<path fill="#EBE8C5" d="M698.881,67.332c0,1.104-0.896,2-2,2h-8.75c-1.105,0-2-0.896-2-2v-19.25c0-1.104,0.895-2,2-2h8.75
				c1.104,0,2,0.896,2,2V67.332z"/>
			<path fill="#EBE8C5" d="M713.881,67.332c0,1.104-0.896,2-2,2h-8.75c-1.105,0-2-0.896-2-2v-19.25c0-1.104,0.895-2,2-2h8.75
				c1.104,0,2,0.896,2,2V67.332z"/>
		</g>
		<ellipse fill="#808080" cx="700.005" cy="50.582" rx="15.366" ry="10.25"/>
		<circle cx="700.006" cy="44.082" r="5.75"/>
		<circle cx="711.381" cy="33.082" r="5.75"/>
		<circle fill="#FFFFFF" cx="688.631" cy="29.582" r="1.5"/>
		<circle fill="#FFFFFF" cx="711.381" cy="29.582" r="1.5"/>
		<g>
			<polygon fill="#666666" points="646.389,84.471 661.01,95.998 666.676,93.665 651.938,64.432 			"/>
			<circle fill="#666666" cx="660.26" cy="97.582" r="3.375"/>
			<circle fill="#666666" cx="665.76" cy="96.332" r="3.375"/>
			<circle fill="#666666" cx="666.76" cy="92.082" r="3.375"/>
		</g>
		<g>
			<polygon fill="#666666" points="753.822,84.471 739.201,95.998 733.535,93.665 748.271,64.432 			"/>
			<circle fill="#666666" cx="739.951" cy="97.582" r="3.375"/>
			<circle fill="#666666" cx="734.451" cy="96.332" r="3.375"/>
			<circle fill="#666666" cx="733.451" cy="92.082" r="3.375"/>
		</g>
	</g>
	<g>
		<path d="M552.76,147.666H447.426c-7.246,0-11.24-3.285-13.314-6.041c-3.045-4.043-4.029-9.71-2.568-14.787l25.592-92.411
			c-0.732-0.493-1.438-1.033-2.105-1.616c-6.709-5.857-8.566-14.332-4.232-19.295c1.85-2.119,4.629-3.286,7.822-3.286
			c1.865,0,3.801,0.386,5.717,1.126c2.771-4.554,6.979-7.021,12.09-7.021h47.334c5.395,0,9.475,2.325,12.166,6.925
			c1.832-0.679,3.682-1.031,5.459-1.031c3.197,0,5.975,1.169,7.826,3.288c2.18,2.495,2.861,6.093,1.873,9.873
			c-0.895,3.42-3.062,6.767-6.102,9.419c-0.623,0.545-1.277,1.052-1.959,1.52l25.627,92.539l0.035,0.12l0.021,0.121
			c1.115,5.89-0.045,11.439-3.18,15.225C563.51,144.764,559.66,147.666,552.76,147.666L552.76,147.666z"/>
		<g>
			
				<ellipse transform="matrix(0.6577 -0.7533 0.7533 0.6577 140.3449 356.775)" fill="#754C24" cx="462.755" cy="23.957" rx="8.75" ry="12.875"/>
			
				<ellipse transform="matrix(-0.6577 -0.7533 0.7533 -0.6577 872.5734 444.4071)" fill="#754C24" cx="537.255" cy="23.957" rx="8.75" ry="12.875"/>
		</g>
		<path fill="#9C8E84" d="M565.76,127.666c1.5,7.916-1.5,17-13,17H447.426c-11.916,0-14.916-10.334-12.999-17l29.999-108.333
			c1.584-7.001,5.373-12,12-12h47.334c6.627,0,10.25,4.249,12,12L565.76,127.666z"/>
		<circle cx="488.631" cy="33.082" r="5.75"/>
		<g>
			<path fill="#EBE8C5" d="M498.881,67.332c0,1.104-0.896,2-2,2h-8.75c-1.105,0-2-0.896-2-2v-19.25c0-1.104,0.895-2,2-2h8.75
				c1.104,0,2,0.896,2,2V67.332z"/>
			<path fill="#EBE8C5" d="M513.881,67.332c0,1.104-0.896,2-2,2h-8.75c-1.105,0-2-0.896-2-2v-19.25c0-1.104,0.895-2,2-2h8.75
				c1.104,0,2,0.896,2,2V67.332z"/>
		</g>
		<ellipse fill="#8C6239" cx="500.005" cy="50.582" rx="15.366" ry="10.25"/>
		<circle cx="500.006" cy="44.082" r="5.75"/>
		<circle cx="511.381" cy="33.082" r="5.75"/>
		<circle fill="#FFFFFF" cx="488.631" cy="29.582" r="1.5"/>
		<circle fill="#FFFFFF" cx="511.381" cy="29.582" r="1.5"/>
		<g>
			<polygon fill="#8C6239" points="446.389,84.471 461.01,95.998 466.676,93.665 451.938,64.432 			"/>
			<circle fill="#8C6239" cx="460.26" cy="97.582" r="3.375"/>
			<circle fill="#8C6239" cx="465.76" cy="96.332" r="3.375"/>
			<circle fill="#8C6239" cx="466.76" cy="92.082" r="3.375"/>
		</g>
		<g>
			<polygon fill="#8C6239" points="553.822,84.471 539.201,95.998 533.535,93.665 548.271,64.432 			"/>
			<circle fill="#8C6239" cx="539.951" cy="97.582" r="3.375"/>
			<circle fill="#8C6239" cx="534.451" cy="96.332" r="3.375"/>
			<circle fill="#8C6239" cx="533.451" cy="92.082" r="3.375"/>
		</g>
	</g>
	<g>
		<path d="M352.76,147.666H247.427c-7.246,0-11.241-3.285-13.315-6.041c-3.045-4.043-4.028-9.71-2.568-14.787l25.592-92.411
			c-0.731-0.493-1.437-1.033-2.104-1.616c-6.709-5.857-8.566-14.332-4.232-19.295c1.849-2.119,4.628-3.286,7.821-3.286
			c1.865,0,3.802,0.386,5.717,1.126c2.772-4.554,6.979-7.021,12.091-7.021h47.333c5.396,0,9.475,2.325,12.167,6.925
			c1.831-0.679,3.681-1.031,5.459-1.031c3.196,0,5.975,1.169,7.826,3.288c2.179,2.495,2.861,6.093,1.872,9.873
			c-0.895,3.42-3.062,6.767-6.101,9.419c-0.624,0.545-1.278,1.052-1.96,1.52l25.627,92.539l0.035,0.12l0.022,0.121
			c1.115,5.89-0.046,11.439-3.181,15.225C363.511,144.764,359.66,147.666,352.76,147.666L352.76,147.666z"/>
		<g>
			
				<ellipse transform="matrix(0.6578 -0.7532 0.7532 0.6578 71.8818 206.1152)" fill="#E6E6E6" cx="262.755" cy="23.957" rx="8.75" ry="12.875"/>
			
				<ellipse transform="matrix(-0.6578 -0.7532 0.7532 -0.6578 541.0411 293.7468)" fill="#E6E6E6" cx="337.255" cy="23.957" rx="8.75" ry="12.875"/>
		</g>
		<path fill="#F2F2F2" d="M365.76,127.666c1.5,7.916-1.5,17-13,17H247.427c-11.917,0-14.917-10.334-13-17l30-108.333
			c1.583-7.001,5.373-12,12-12h47.333c6.628,0,10.25,4.249,12,12L365.76,127.666z"/>
		<circle fill="#47272D" cx="288.631" cy="33.082" r="5.75"/>
		<g>
			<path fill="#EBE8C5" d="M298.881,67.332c0,1.104-0.896,2-2,2h-8.75c-1.104,0-2-0.896-2-2v-19.25c0-1.104,0.896-2,2-2h8.75
				c1.104,0,2,0.896,2,2V67.332z"/>
			<path fill="#EBE8C5" d="M313.881,67.332c0,1.104-0.896,2-2,2h-8.75c-1.104,0-2-0.896-2-2v-19.25c0-1.104,0.896-2,2-2h8.75
				c1.104,0,2,0.896,2,2V67.332z"/>
		</g>
		<ellipse fill="#CCCCCC" cx="300.005" cy="50.582" rx="15.366" ry="10.25"/>
		<circle fill="#ED9CC0" cx="300.006" cy="44.082" r="5.75"/>
		<circle fill="#47272D" cx="311.381" cy="33.082" r="5.75"/>
		<circle fill="#FFFFFF" cx="288.631" cy="29.582" r="1.5"/>
		<circle fill="#FFFFFF" cx="311.381" cy="29.582" r="1.5"/>
		<g>
			<polygon fill="#CCCCCC" points="246.389,84.471 261.01,95.998 266.676,93.665 251.938,64.432 			"/>
			<circle fill="#CCCCCC" cx="260.26" cy="97.582" r="3.375"/>
			<circle fill="#CCCCCC" cx="265.76" cy="96.332" r="3.375"/>
			<circle fill="#CCCCCC" cx="266.76" cy="92.082" r="3.375"/>
		</g>
		<g>
			<polygon fill="#CCCCCC" points="353.822,84.471 339.201,95.998 333.535,93.665 348.272,64.432 			"/>
			<circle fill="#CCCCCC" cx="339.951" cy="97.582" r="3.375"/>
			<circle fill="#CCCCCC" cx="334.451" cy="96.332" r="3.375"/>
			<circle fill="#CCCCCC" cx="333.451" cy="92.082" r="3.375"/>
		</g>
	</g>
	<g>
	</g>
	<g>
	</g>
	<g>
	</g>
	<g>
	</g>
	<g>
	</g>
	<g>
	</g>
	<g>
	</g>
	<g>
	</g>
	<g>
	</g>
	<g>
	</g>
	<g>
	</g>
	<g>
	</g>
	<g>
	</g>
	<g>
	</g>
	<g>
	</g>
</g>
</svg>
