<?xml version="1.0" encoding="utf-8"?>
<!-- Generator: Adobe Illustrator 16.0.3, SVG Export Plug-In . SVG Version: 6.00 Build 0)  -->
<!DOCTYPE svg PUBLIC "-//W3C//DTD SVG 1.0//EN" "http://www.w3.org/TR/2001/REC-SVG-20010904/DTD/svg10.dtd">
<svg version="1.0" xmlns="http://www.w3.org/2000/svg" xmlns:xlink="http://www.w3.org/1999/xlink" x="0px" y="0px" width="800px"
	 height="608px" viewBox="0 0 800 608" enable-background="new 0 0 800 608" xml:space="preserve">
<g id="Layer_2" display="none">
	<rect x="200" display="inline" fill="#00A27B" width="200" height="152"/>
	<rect x="400" display="inline" fill="#FF45B2" width="200" height="152"/>
	<rect x="600" display="inline" fill="#E7DB00" width="200" height="152"/>
	<rect display="inline" fill="#2E81FF" width="200" height="152"/>
	<rect y="152" display="inline" fill="#2E81FF" width="200" height="152"/>
	<rect y="304" display="inline" fill="#2E81FF" width="200" height="152"/>
	<rect y="456" display="inline" fill="#2E81FF" width="200" height="152"/>
	<rect x="200" y="152" display="inline" fill="#00A27B" width="200" height="152"/>
	<rect x="400" y="152" display="inline" fill="#FF45B2" width="200" height="152"/>
	<rect x="600" y="152" display="inline" fill="#E7DB00" width="200" height="152"/>
	<rect x="200" y="304" display="inline" fill="#00A27B" width="200" height="152"/>
	<rect x="400" y="304" display="inline" fill="#FF45B2" width="200" height="152"/>
	<rect x="600" y="304" display="inline" fill="#E7DB00" width="200" height="152"/>
	<rect x="200" y="456" display="inline" fill="#00A27B" width="200" height="152"/>
	<rect x="400" y="456" display="inline" fill="#FF45B2" width="200" height="152"/>
	<rect x="600" y="456" display="inline" fill="#E7DB00" width="200" height="152"/>
</g>
<g id="Layer_1">
	<g>
		<path d="M153.407,148.416H48.074c-7.247,0-11.242-3.285-13.316-6.041c-3.045-4.043-4.028-9.71-2.568-14.787l25.592-92.412
			c-0.731-0.493-1.437-1.033-2.104-1.616c-6.708-5.857-8.566-14.332-4.232-19.294c1.849-2.119,4.628-3.286,7.821-3.286
			c1.866,0,3.802,0.386,5.717,1.126c2.773-4.554,6.979-7.022,12.091-7.022h47.333c5.396,0,9.475,2.326,12.167,6.925
			c1.831-0.678,3.68-1.031,5.459-1.031c3.195,0,5.975,1.169,7.826,3.288c2.179,2.495,2.861,6.092,1.871,9.873
			c-0.895,3.42-3.061,6.766-6.1,9.419c-0.625,0.544-1.278,1.052-1.961,1.52l25.627,92.539l0.035,0.12l0.023,0.121
			c1.115,5.89-0.046,11.439-3.182,15.225C164.158,145.514,160.307,148.416,153.407,148.416L153.407,148.416z"/>
		<g>
			
				<ellipse transform="matrix(0.6578 -0.7532 0.7532 0.6578 3.0896 56.2128)" fill="#754C24" cx="63.403" cy="24.707" rx="8.75" ry="12.875"/>
			
				<ellipse transform="matrix(-0.6578 -0.7532 0.7532 -0.6578 209.9991 144.8304)" fill="#754C24" cx="137.903" cy="24.707" rx="8.75" ry="12.875"/>
		</g>
		<path fill="#603813" d="M166.407,128.416c1.499,7.916-1.501,17-13,17H48.074c-11.917,0-14.917-10.334-13-17l30-108.333
			c1.583-7.001,5.373-12,12-12h47.333c6.628,0,10.249,4.249,12,12L166.407,128.416z"/>
		<circle cx="89.278" cy="33.832" r="5.75"/>
		<g>
			<path fill="#EBE8C5" d="M99.528,68.082c0,1.104-0.896,2-2,2h-8.75c-1.104,0-2-0.896-2-2v-19.25c0-1.104,0.896-2,2-2h8.75
				c1.104,0,2,0.896,2,2V68.082z"/>
			<path fill="#EBE8C5" d="M114.527,68.082c0,1.104-0.895,2-2,2h-8.75c-1.104,0-2-0.896-2-2v-19.25c0-1.104,0.896-2,2-2h8.75
				c1.105,0,2,0.896,2,2V68.082z"/>
		</g>
		<ellipse fill="#8C6239" cx="100.653" cy="51.332" rx="15.366" ry="10.25"/>
		<circle cx="100.653" cy="44.832" r="5.75"/>
		<circle cx="112.027" cy="33.832" r="5.75"/>
		<circle fill="#FFFFFF" cx="89.278" cy="30.332" r="1.5"/>
		<circle fill="#FFFFFF" cx="112.027" cy="30.332" r="1.5"/>
		<g>
			<polygon fill="#8C6239" points="47.036,85.221 61.657,96.748 67.323,94.415 52.585,65.182 			"/>
			<circle fill="#8C6239" cx="60.907" cy="98.332" r="3.375"/>
			<circle fill="#8C6239" cx="66.407" cy="97.082" r="3.375"/>
			<circle fill="#8C6239" cx="67.407" cy="92.832" r="3.375"/>
		</g>
		<g>
			<polygon fill="#8C6239" points="154.469,85.221 139.849,96.748 134.182,94.415 148.92,65.182 			"/>
			<circle fill="#8C6239" cx="140.599" cy="98.332" r="3.375"/>
			<circle fill="#8C6239" cx="135.099" cy="97.082" r="3.375"/>
			<circle fill="#8C6239" cx="134.099" cy="92.832" r="3.375"/>
		</g>
	</g>
	<g>
		<path d="M752.76,148.416H647.426c-7.246,0-11.24-3.285-13.314-6.041c-3.045-4.043-4.029-9.71-2.568-14.787l25.592-92.411
			c-0.732-0.493-1.438-1.033-2.105-1.616c-6.709-5.857-8.566-14.332-4.232-19.295c1.85-2.119,4.629-3.286,7.822-3.286
			c1.865,0,3.801,0.386,5.717,1.126c2.771-4.554,6.979-7.021,12.09-7.021h47.334c5.395,0,9.475,2.325,12.166,6.925
			c1.832-0.679,3.682-1.031,5.459-1.031c3.197,0,5.975,1.169,7.826,3.288c2.18,2.495,2.861,6.093,1.873,9.873
			c-0.895,3.42-3.062,6.767-6.102,9.419c-0.623,0.545-1.277,1.052-1.959,1.52l25.627,92.539l0.035,0.12l0.021,0.121
			c1.115,5.89-0.045,11.439-3.18,15.225C763.51,145.513,759.66,148.416,752.76,148.416L752.76,148.416z"/>
		<g>
			
				<ellipse transform="matrix(0.6577 -0.7533 0.7533 0.6577 208.2359 507.6837)" fill="#808080" cx="662.755" cy="24.707" rx="8.75" ry="12.875"/>
			
				<ellipse transform="matrix(-0.6577 -0.7533 0.7533 -0.6577 1203.5532 596.3018)" fill="#808080" cx="737.255" cy="24.707" rx="8.75" ry="12.875"/>
		</g>
		<path fill="#3F3333" d="M765.76,128.416c1.5,7.916-1.5,17-13,17H647.426c-11.916,0-14.916-10.334-13-17l30-108.333
			c1.584-7.001,5.373-12,12-12h47.334c6.627,0,10.25,4.249,12,12L765.76,128.416z"/>
		<circle cx="688.631" cy="33.832" r="5.75"/>
		<g>
			<path fill="#EBE8C5" d="M698.881,68.082c0,1.104-0.896,2-2,2h-8.75c-1.105,0-2-0.896-2-2v-19.25c0-1.104,0.895-2,2-2h8.75
				c1.104,0,2,0.896,2,2V68.082z"/>
			<path fill="#EBE8C5" d="M713.881,68.082c0,1.104-0.896,2-2,2h-8.75c-1.105,0-2-0.896-2-2v-19.25c0-1.104,0.895-2,2-2h8.75
				c1.104,0,2,0.896,2,2V68.082z"/>
		</g>
		<ellipse fill="#808080" cx="700.005" cy="51.332" rx="15.366" ry="10.25"/>
		<circle cx="700.006" cy="44.832" r="5.75"/>
		<circle cx="711.381" cy="33.832" r="5.75"/>
		<circle fill="#FFFFFF" cx="688.631" cy="30.332" r="1.5"/>
		<circle fill="#FFFFFF" cx="711.381" cy="30.332" r="1.5"/>
		<g>
			<polygon fill="#666666" points="646.389,85.22 661.01,96.748 666.676,94.415 651.938,65.181 			"/>
			<circle fill="#666666" cx="660.26" cy="98.332" r="3.375"/>
			<circle fill="#666666" cx="665.76" cy="97.082" r="3.375"/>
			<circle fill="#666666" cx="666.76" cy="92.832" r="3.375"/>
		</g>
		<g>
			<polygon fill="#666666" points="753.822,85.22 739.201,96.748 733.535,94.415 748.271,65.181 			"/>
			<circle fill="#666666" cx="739.951" cy="98.332" r="3.375"/>
			<circle fill="#666666" cx="734.451" cy="97.082" r="3.375"/>
			<circle fill="#666666" cx="733.451" cy="92.832" r="3.375"/>
		</g>
	</g>
	<g>
		<path d="M752.76,300.416H647.426c-7.246,0-11.24-3.285-13.314-6.041c-3.045-4.043-4.029-9.71-2.568-14.787l25.592-92.411
			c-0.732-0.493-1.438-1.033-2.105-1.616c-6.709-5.857-8.566-14.332-4.232-19.295c1.85-2.119,4.629-3.286,7.822-3.286
			c1.865,0,3.801,0.386,5.717,1.126c2.771-4.554,6.979-7.021,12.09-7.021h47.334c5.395,0,9.475,2.325,12.166,6.925
			c1.832-0.679,3.682-1.031,5.459-1.031c3.197,0,5.975,1.169,7.826,3.288c2.18,2.495,2.861,6.093,1.873,9.873
			c-0.895,3.42-3.062,6.767-6.102,9.419c-0.623,0.545-1.277,1.052-1.959,1.52l25.627,92.539l0.035,0.12l0.021,0.121
			c1.115,5.89-0.045,11.439-3.18,15.225C763.51,297.514,759.66,300.416,752.76,300.416L752.76,300.416z"/>
		<path d="M639.357,220.304c-0.727,0.285-1.514,0.438-2.328,0.438c-0.189,0-0.381-0.008-0.574-0.026
			c-3.498-0.313-6.092-3.417-5.779-6.918c0.133-1.478,0.783-2.832,1.781-3.858c-0.074-0.495-0.09-1.001-0.043-1.511
			c0.297-3.308,3.025-5.804,6.346-5.804c0.189,0,0.381,0.008,0.572,0.025c0.255,0.023,0.508,0.062,0.756,0.115
			c0.915-0.491,1.943-0.757,2.998-0.757c0.188,0,0.377,0.008,0.568,0.025c3.501,0.315,6.094,3.419,5.781,6.919
			c-0.021,0.239-0.057,0.476-0.105,0.709l28.15,17.511l-30.059,5.489L639.357,220.304z"/>
		<g>
			<polygon fill="#808080" points="648.845,229.354 638.671,213.761 641.501,208.326 669.3,225.618 			"/>
			<circle fill="#808080" cx="637.026" cy="214.366" r="3.375"/>
			<circle fill="#808080" cx="638.763" cy="209" r="3.375"/>
			<circle fill="#808080" cx="643.085" cy="208.384" r="3.375"/>
		</g>
		<g>
			
				<ellipse transform="matrix(0.6577 -0.7533 0.7533 0.6577 93.7399 559.7102)" fill="#808080" cx="662.755" cy="176.707" rx="8.75" ry="12.875"/>
			
				<ellipse transform="matrix(-0.6577 -0.7533 0.7533 -0.6577 1089.0571 848.2764)" fill="#808080" cx="737.255" cy="176.707" rx="8.75" ry="12.875"/>
		</g>
		<path fill="#3F3333" d="M765.76,280.416c1.5,7.916-1.5,17-13,17H647.426c-11.916,0-14.916-10.334-13-17l30-108.333
			c1.584-7.001,5.373-12,12-12h47.334c6.627,0,10.25,4.249,12,12L765.76,280.416z"/>
		<circle cx="688.631" cy="185.832" r="5.75"/>
		<g>
			<path fill="#EBE8C5" d="M698.881,220.082c0,1.104-0.896,2-2,2h-8.75c-1.105,0-2-0.896-2-2v-19.25c0-1.104,0.895-2,2-2h8.75
				c1.104,0,2,0.896,2,2V220.082z"/>
			<path fill="#EBE8C5" d="M713.881,220.082c0,1.104-0.896,2-2,2h-8.75c-1.105,0-2-0.896-2-2v-19.25c0-1.104,0.895-2,2-2h8.75
				c1.104,0,2,0.896,2,2V220.082z"/>
		</g>
		<ellipse fill="#808080" cx="700.005" cy="203.332" rx="15.366" ry="10.25"/>
		<circle cx="700.006" cy="196.832" r="5.75"/>
		<circle cx="711.381" cy="185.832" r="5.75"/>
		<circle fill="#FFFFFF" cx="688.631" cy="182.332" r="1.5"/>
		<circle fill="#FFFFFF" cx="711.381" cy="182.332" r="1.5"/>
		<g>
			<polygon fill="#666666" points="753.822,237.221 739.201,248.748 733.535,246.415 748.271,217.182 			"/>
			<circle fill="#666666" cx="739.951" cy="250.332" r="3.375"/>
			<circle fill="#666666" cx="734.451" cy="249.082" r="3.375"/>
			<circle fill="#666666" cx="733.451" cy="244.832" r="3.375"/>
		</g>
	</g>
	<g>
		<path d="M752.76,452.416H647.426c-7.246,0-11.24-3.285-13.314-6.041c-3.045-4.043-4.029-9.709-2.568-14.787l25.592-92.41
			c-0.732-0.494-1.438-1.033-2.105-1.617c-6.709-5.857-8.566-14.332-4.232-19.295c1.85-2.119,4.629-3.285,7.822-3.285
			c1.865,0,3.801,0.385,5.717,1.125c2.771-4.553,6.979-7.021,12.09-7.021h47.334c5.395,0,9.475,2.326,12.166,6.926
			c1.832-0.68,3.682-1.031,5.459-1.031c3.197,0,5.975,1.168,7.826,3.287c2.18,2.496,2.861,6.094,1.873,9.873
			c-0.895,3.42-3.062,6.768-6.102,9.42c-0.623,0.545-1.277,1.051-1.959,1.52l25.627,92.539l0.035,0.119l0.021,0.121
			c1.115,5.891-0.045,11.439-3.18,15.225C763.51,449.514,759.66,452.416,752.76,452.416L752.76,452.416z"/>
		<path d="M640.794,378.492c-0.65,0.715-1.471,1.287-2.42,1.654c-0.739,0.287-1.514,0.432-2.302,0.432
			c-2.612,0-5.002-1.637-5.946-4.072c-0.536-1.385-0.553-2.887-0.113-4.248c-0.285-0.41-0.522-0.857-0.707-1.332
			c-1.27-3.277,0.363-6.977,3.64-8.248c0.24-0.094,0.485-0.171,0.735-0.232c0.713-0.998,1.706-1.785,2.868-2.235
			c0.739-0.286,1.513-0.432,2.302-0.432c2.611,0,5.002,1.638,5.946,4.073c0.087,0.225,0.159,0.451,0.22,0.682l32.996,3.225
			l-24.515,18.239L640.794,378.492z"/>
		<g>
			<polygon fill="#808080" points="653.308,382.4 637.276,372.931 637.405,366.805 669.989,369.988 			"/>
			<circle fill="#808080" cx="636.071" cy="374.203" r="3.375"/>
			<circle fill="#808080" cx="635.249" cy="368.622" r="3.375"/>
			<circle fill="#808080" cx="638.853" cy="366.154" r="3.375"/>
		</g>
		<g>
			
				<ellipse transform="matrix(0.6577 -0.7533 0.7533 0.6577 -20.7564 611.7368)" fill="#808080" cx="662.755" cy="328.708" rx="8.75" ry="12.875"/>
			
				<ellipse transform="matrix(-0.6577 -0.7533 0.7533 -0.6577 974.5608 1100.2517)" fill="#808080" cx="737.255" cy="328.708" rx="8.75" ry="12.875"/>
		</g>
		<path fill="#3F3333" d="M765.76,432.416c1.5,7.916-1.5,17-13,17H647.426c-11.916,0-14.916-10.334-13-17l30-108.332
			c1.584-7.002,5.373-12,12-12h47.334c6.627,0,10.25,4.248,12,12L765.76,432.416z"/>
		<circle cx="688.631" cy="337.832" r="5.75"/>
		<g>
			<path fill="#EBE8C5" d="M698.881,372.082c0,1.105-0.896,2-2,2h-8.75c-1.105,0-2-0.895-2-2v-19.25c0-1.104,0.895-2,2-2h8.75
				c1.104,0,2,0.896,2,2V372.082z"/>
			<path fill="#EBE8C5" d="M713.881,372.082c0,1.105-0.896,2-2,2h-8.75c-1.105,0-2-0.895-2-2v-19.25c0-1.104,0.895-2,2-2h8.75
				c1.104,0,2,0.896,2,2V372.082z"/>
		</g>
		<ellipse fill="#808080" cx="700.005" cy="355.332" rx="15.366" ry="10.25"/>
		<circle cx="700.006" cy="348.832" r="5.75"/>
		<circle cx="711.381" cy="337.832" r="5.75"/>
		<circle fill="#FFFFFF" cx="688.631" cy="334.332" r="1.5"/>
		<circle fill="#FFFFFF" cx="711.381" cy="334.332" r="1.5"/>
		<g>
			<polygon fill="#666666" points="753.822,389.221 739.201,400.748 733.535,398.416 748.271,369.182 			"/>
			<circle fill="#666666" cx="739.951" cy="402.332" r="3.375"/>
			<circle fill="#666666" cx="734.451" cy="401.082" r="3.375"/>
			<circle fill="#666666" cx="733.451" cy="396.832" r="3.375"/>
		</g>
	</g>
	<g>
		<path d="M752.76,604.415H647.426c-7.246,0-11.24-3.285-13.314-6.041c-3.045-4.043-4.029-9.709-2.568-14.787l25.592-92.41
			c-0.732-0.494-1.438-1.033-2.105-1.617c-6.709-5.857-8.566-14.332-4.232-19.294c1.85-2.119,4.629-3.287,7.822-3.287
			c1.865,0,3.801,0.387,5.717,1.127c2.771-4.555,6.979-7.021,12.09-7.021h47.334c5.395,0,9.475,2.324,12.166,6.924
			c1.832-0.678,3.682-1.031,5.459-1.031c3.197,0,5.975,1.17,7.826,3.289c2.18,2.495,2.861,6.093,1.873,9.872
			c-0.895,3.42-3.062,6.768-6.102,9.42c-0.623,0.545-1.277,1.051-1.959,1.52l25.627,92.539l0.035,0.119l0.021,0.121
			c1.115,5.891-0.045,11.439-3.18,15.225C763.51,601.513,759.66,604.415,752.76,604.415L752.76,604.415z"/>
		<path d="M639.409,540.517c-1.594,0-3.119-0.592-4.297-1.665c-1.097-0.999-1.781-2.336-1.994-3.753
			c-0.438-0.24-0.85-0.533-1.226-0.876c-2.597-2.368-2.782-6.408-0.415-9.006c0.174-0.19,0.357-0.369,0.553-0.535
			c0.193-1.212,0.732-2.358,1.572-3.279c1.206-1.321,2.922-2.079,4.711-2.079c1.593,0,3.119,0.592,4.297,1.666
			c0.176,0.161,0.344,0.332,0.5,0.511l30.977-11.814l-13.82,27.252l-14.718-1.059c-0.264,0.931-0.743,1.808-1.431,2.56
			C642.915,539.759,641.198,540.517,639.409,540.517z"/>
		<g>
			<polygon fill="#808080" points="658.493,533.802 639.923,532.467 637.308,526.924 667.897,515.257 			"/>
			<circle fill="#808080" cx="639.41" cy="534.142" r="3.374"/>
			<circle fill="#808080" cx="636.188" cy="529.512" r="3.375"/>
			<circle fill="#808080" cx="638.313" cy="525.698" r="3.376"/>
		</g>
		<g>
			
				<ellipse transform="matrix(0.6577 -0.7533 0.7533 0.6577 -135.2513 663.7627)" fill="#808080" cx="662.755" cy="480.707" rx="8.75" ry="12.875"/>
			
				<ellipse transform="matrix(-0.6577 -0.7533 0.7533 -0.6577 860.0659 1352.2239)" fill="#808080" cx="737.255" cy="480.707" rx="8.75" ry="12.875"/>
		</g>
		<path fill="#3F3333" d="M765.76,584.415c1.5,7.916-1.5,17-13,17H647.426c-11.916,0-14.916-10.334-13-17l30-108.332
			c1.584-7.001,5.373-12.001,12-12.001h47.334c6.627,0,10.25,4.25,12,12.001L765.76,584.415z"/>
		<circle cx="688.631" cy="489.831" r="5.75"/>
		<g>
			<path fill="#EBE8C5" d="M698.881,524.081c0,1.105-0.896,2-2,2h-8.75c-1.105,0-2-0.895-2-2v-19.25c0-1.104,0.895-2,2-2h8.75
				c1.104,0,2,0.896,2,2V524.081z"/>
			<path fill="#EBE8C5" d="M713.881,524.081c0,1.105-0.896,2-2,2h-8.75c-1.105,0-2-0.895-2-2v-19.25c0-1.104,0.895-2,2-2h8.75
				c1.104,0,2,0.896,2,2V524.081z"/>
		</g>
		<ellipse fill="#808080" cx="700.005" cy="507.331" rx="15.366" ry="10.25"/>
		<circle cx="700.006" cy="500.831" r="5.75"/>
		<circle cx="711.381" cy="489.831" r="5.75"/>
		<circle fill="#FFFFFF" cx="688.631" cy="486.331" r="1.5"/>
		<circle fill="#FFFFFF" cx="711.381" cy="486.331" r="1.5"/>
		<g>
			<polygon fill="#666666" points="753.822,541.22 739.201,552.747 733.535,550.415 748.271,521.181 			"/>
			<circle fill="#666666" cx="739.951" cy="554.331" r="3.375"/>
			<circle fill="#666666" cx="734.451" cy="553.081" r="3.375"/>
			<circle fill="#666666" cx="733.451" cy="548.831" r="3.375"/>
		</g>
	</g>
	<g>
		<path d="M552.76,148.416H447.426c-7.246,0-11.24-3.285-13.314-6.041c-3.045-4.043-4.029-9.71-2.568-14.787l25.592-92.411
			c-0.732-0.493-1.438-1.033-2.105-1.616c-6.709-5.857-8.566-14.332-4.232-19.295c1.85-2.119,4.629-3.286,7.822-3.286
			c1.865,0,3.801,0.386,5.717,1.126c2.771-4.554,6.979-7.021,12.09-7.021h47.334c5.395,0,9.475,2.325,12.166,6.925
			c1.832-0.679,3.682-1.031,5.459-1.031c3.197,0,5.975,1.169,7.826,3.288c2.18,2.495,2.861,6.093,1.873,9.873
			c-0.895,3.42-3.062,6.767-6.102,9.419c-0.623,0.545-1.277,1.052-1.959,1.52l25.627,92.539l0.035,0.12l0.021,0.121
			c1.115,5.89-0.045,11.439-3.18,15.225C563.51,145.513,559.66,148.416,552.76,148.416L552.76,148.416z"/>
		<g>
			
				<ellipse transform="matrix(0.6577 -0.7533 0.7533 0.6577 139.7803 357.0316)" fill="#754C24" cx="462.755" cy="24.707" rx="8.75" ry="12.875"/>
			
				<ellipse transform="matrix(-0.6577 -0.7533 0.7533 -0.6577 872.0088 445.6496)" fill="#754C24" cx="537.255" cy="24.707" rx="8.75" ry="12.875"/>
		</g>
		<path fill="#9C8E84" d="M565.76,128.416c1.5,7.916-1.5,17-13,17H447.426c-11.916,0-14.916-10.334-12.999-17l29.999-108.333
			c1.584-7.001,5.373-12,12-12h47.334c6.627,0,10.25,4.249,12,12L565.76,128.416z"/>
		<circle cx="488.631" cy="33.832" r="5.75"/>
		<g>
			<path fill="#EBE8C5" d="M498.881,68.082c0,1.104-0.896,2-2,2h-8.75c-1.105,0-2-0.896-2-2v-19.25c0-1.104,0.895-2,2-2h8.75
				c1.104,0,2,0.896,2,2V68.082z"/>
			<path fill="#EBE8C5" d="M513.881,68.082c0,1.104-0.896,2-2,2h-8.75c-1.105,0-2-0.896-2-2v-19.25c0-1.104,0.895-2,2-2h8.75
				c1.104,0,2,0.896,2,2V68.082z"/>
		</g>
		<ellipse fill="#8C6239" cx="500.005" cy="51.332" rx="15.366" ry="10.25"/>
		<circle cx="500.006" cy="44.832" r="5.75"/>
		<circle cx="511.381" cy="33.832" r="5.75"/>
		<circle fill="#FFFFFF" cx="488.631" cy="30.332" r="1.5"/>
		<circle fill="#FFFFFF" cx="511.381" cy="30.332" r="1.5"/>
		<g>
			<polygon fill="#8C6239" points="446.389,85.22 461.01,96.748 466.676,94.415 451.938,65.181 			"/>
			<circle fill="#8C6239" cx="460.26" cy="98.332" r="3.375"/>
			<circle fill="#8C6239" cx="465.76" cy="97.082" r="3.375"/>
			<circle fill="#8C6239" cx="466.76" cy="92.832" r="3.375"/>
		</g>
		<g>
			<polygon fill="#8C6239" points="553.822,85.22 539.201,96.748 533.535,94.415 548.271,65.181 			"/>
			<circle fill="#8C6239" cx="539.951" cy="98.332" r="3.375"/>
			<circle fill="#8C6239" cx="534.451" cy="97.082" r="3.375"/>
			<circle fill="#8C6239" cx="533.451" cy="92.832" r="3.375"/>
		</g>
	</g>
	<g>
		<path d="M552.76,300.416H447.426c-7.246,0-11.24-3.285-13.314-6.041c-3.045-4.043-4.029-9.71-2.568-14.787l25.592-92.411
			c-0.732-0.493-1.438-1.033-2.105-1.616c-6.709-5.857-8.566-14.332-4.232-19.295c1.85-2.119,4.629-3.286,7.822-3.286
			c1.865,0,3.801,0.386,5.717,1.126c2.771-4.554,6.979-7.021,12.09-7.021h47.334c5.395,0,9.475,2.325,12.166,6.925
			c1.832-0.679,3.682-1.031,5.459-1.031c3.197,0,5.975,1.169,7.826,3.288c2.18,2.495,2.861,6.093,1.873,9.873
			c-0.895,3.42-3.062,6.767-6.102,9.419c-0.623,0.545-1.277,1.052-1.959,1.52l25.627,92.539l0.035,0.12l0.021,0.121
			c1.115,5.89-0.045,11.439-3.18,15.225C563.51,297.514,559.66,300.416,552.76,300.416L552.76,300.416z"/>
		<path d="M439.357,220.304c-0.727,0.285-1.514,0.438-2.328,0.438c-0.189,0-0.381-0.008-0.574-0.026
			c-3.498-0.313-6.092-3.417-5.779-6.918c0.133-1.478,0.783-2.832,1.781-3.858c-0.074-0.495-0.09-1.001-0.043-1.511
			c0.297-3.308,3.025-5.804,6.346-5.804c0.189,0,0.381,0.008,0.572,0.025c0.255,0.023,0.508,0.062,0.756,0.115
			c0.915-0.491,1.943-0.757,2.998-0.757c0.188,0,0.377,0.008,0.568,0.025c3.501,0.315,6.094,3.419,5.781,6.919
			c-0.021,0.239-0.057,0.476-0.105,0.709l28.15,17.511l-30.059,5.489L439.357,220.304z"/>
		<g>
			<polygon fill="#8C6239" points="448.845,229.354 438.671,213.761 441.501,208.326 469.3,225.618 			"/>
			<circle fill="#8C6239" cx="437.026" cy="214.366" r="3.375"/>
			<circle fill="#8C6239" cx="438.763" cy="209" r="3.375"/>
			<circle fill="#8C6239" cx="443.085" cy="208.384" r="3.375"/>
		</g>
		<g>
			
				<ellipse transform="matrix(0.6577 -0.7533 0.7533 0.6577 25.2844 409.058)" fill="#754C24" cx="462.755" cy="176.707" rx="8.75" ry="12.875"/>
			
				<ellipse transform="matrix(-0.6577 -0.7533 0.7533 -0.6577 757.5128 697.6241)" fill="#754C24" cx="537.255" cy="176.707" rx="8.75" ry="12.875"/>
		</g>
		<path fill="#9C8E84" d="M565.76,280.416c1.5,7.916-1.5,17-13,17H447.426c-11.916,0-14.916-10.334-12.999-17l29.999-108.333
			c1.584-7.001,5.373-12,12-12h47.334c6.627,0,10.25,4.249,12,12L565.76,280.416z"/>
		<circle cx="488.631" cy="185.832" r="5.75"/>
		<g>
			<path fill="#EBE8C5" d="M498.881,220.082c0,1.104-0.896,2-2,2h-8.75c-1.105,0-2-0.896-2-2v-19.25c0-1.104,0.895-2,2-2h8.75
				c1.104,0,2,0.896,2,2V220.082z"/>
			<path fill="#EBE8C5" d="M513.881,220.082c0,1.104-0.896,2-2,2h-8.75c-1.105,0-2-0.896-2-2v-19.25c0-1.104,0.895-2,2-2h8.75
				c1.104,0,2,0.896,2,2V220.082z"/>
		</g>
		<ellipse fill="#8C6239" cx="500.005" cy="203.332" rx="15.366" ry="10.25"/>
		<circle cx="500.006" cy="196.832" r="5.75"/>
		<circle cx="511.381" cy="185.832" r="5.75"/>
		<circle fill="#FFFFFF" cx="488.631" cy="182.332" r="1.5"/>
		<circle fill="#FFFFFF" cx="511.381" cy="182.332" r="1.5"/>
		<g>
			<polygon fill="#8C6239" points="553.822,237.221 539.201,248.748 533.535,246.415 548.271,217.182 			"/>
			<circle fill="#8C6239" cx="539.951" cy="250.332" r="3.375"/>
			<circle fill="#8C6239" cx="534.451" cy="249.082" r="3.375"/>
			<circle fill="#8C6239" cx="533.451" cy="244.832" r="3.375"/>
		</g>
	</g>
	<g>
		<path d="M552.76,452.416H447.426c-7.246,0-11.24-3.285-13.314-6.041c-3.045-4.043-4.029-9.71-2.568-14.787l25.592-92.411
			c-0.732-0.493-1.438-1.033-2.105-1.616c-6.709-5.857-8.566-14.332-4.232-19.295c1.85-2.119,4.629-3.286,7.822-3.286
			c1.865,0,3.801,0.386,5.717,1.126c2.771-4.554,6.979-7.021,12.09-7.021h47.334c5.395,0,9.475,2.325,12.166,6.925
			c1.832-0.679,3.682-1.031,5.459-1.031c3.197,0,5.975,1.169,7.826,3.288c2.18,2.495,2.861,6.093,1.873,9.873
			c-0.895,3.42-3.062,6.767-6.102,9.419c-0.623,0.545-1.277,1.052-1.959,1.52l25.627,92.539l0.035,0.12l0.021,0.121
			c1.115,5.89-0.045,11.439-3.18,15.225C563.51,449.514,559.66,452.416,552.76,452.416L552.76,452.416z"/>
		<path d="M440.794,378.492c-0.65,0.715-1.471,1.287-2.42,1.654c-0.739,0.287-1.514,0.432-2.302,0.432
			c-2.612,0-5.002-1.637-5.946-4.072c-0.536-1.385-0.553-2.887-0.113-4.248c-0.285-0.41-0.522-0.857-0.707-1.332
			c-1.27-3.277,0.363-6.977,3.64-8.248c0.24-0.094,0.485-0.171,0.735-0.232c0.713-0.998,1.706-1.785,2.868-2.235
			c0.739-0.286,1.513-0.432,2.302-0.432c2.611,0,5.002,1.638,5.946,4.073c0.087,0.225,0.159,0.451,0.22,0.682l32.996,3.225
			l-24.515,18.239L440.794,378.492z"/>
		<g>
			<polygon fill="#8C6239" points="453.308,382.4 437.276,372.931 437.405,366.805 469.989,369.988 			"/>
			<circle fill="#8C6239" cx="436.071" cy="374.203" r="3.375"/>
			<circle fill="#8C6239" cx="435.249" cy="368.622" r="3.375"/>
			<circle fill="#8C6239" cx="438.853" cy="366.154" r="3.375"/>
		</g>
		<g>
			
				<ellipse transform="matrix(0.6577 -0.7533 0.7533 0.6577 -89.2113 461.0843)" fill="#754C24" cx="462.755" cy="328.707" rx="8.75" ry="12.875"/>
			
				<ellipse transform="matrix(-0.6577 -0.7533 0.7533 -0.6577 643.0171 949.5979)" fill="#754C24" cx="537.255" cy="328.707" rx="8.75" ry="12.875"/>
		</g>
		<path fill="#9C8E84" d="M565.76,432.416c1.5,7.916-1.5,17-13,17H447.426c-11.916,0-14.916-10.334-12.999-17l29.999-108.333
			c1.584-7.001,5.373-12,12-12h47.334c6.627,0,10.25,4.249,12,12L565.76,432.416z"/>
		<circle cx="488.631" cy="337.832" r="5.75"/>
		<g>
			<path fill="#EBE8C5" d="M498.881,372.082c0,1.104-0.896,2-2,2h-8.75c-1.105,0-2-0.896-2-2v-19.25c0-1.104,0.895-2,2-2h8.75
				c1.104,0,2,0.896,2,2V372.082z"/>
			<path fill="#EBE8C5" d="M513.881,372.082c0,1.104-0.896,2-2,2h-8.75c-1.105,0-2-0.896-2-2v-19.25c0-1.104,0.895-2,2-2h8.75
				c1.104,0,2,0.896,2,2V372.082z"/>
		</g>
		<ellipse fill="#8C6239" cx="500.005" cy="355.332" rx="15.366" ry="10.25"/>
		<circle cx="500.006" cy="348.832" r="5.75"/>
		<circle cx="511.381" cy="337.832" r="5.75"/>
		<circle fill="#FFFFFF" cx="488.631" cy="334.332" r="1.5"/>
		<circle fill="#FFFFFF" cx="511.381" cy="334.332" r="1.5"/>
		<g>
			<polygon fill="#8C6239" points="553.822,389.221 539.201,400.748 533.535,398.415 548.271,369.182 			"/>
			<circle fill="#8C6239" cx="539.951" cy="402.332" r="3.375"/>
			<circle fill="#8C6239" cx="534.451" cy="401.082" r="3.375"/>
			<circle fill="#8C6239" cx="533.451" cy="396.832" r="3.375"/>
		</g>
	</g>
	<g>
		<path d="M552.76,604.416H447.426c-7.246,0-11.24-3.285-13.314-6.041c-3.045-4.043-4.029-9.71-2.568-14.787l25.592-92.411
			c-0.732-0.493-1.438-1.033-2.105-1.616c-6.709-5.857-8.566-14.332-4.232-19.295c1.85-2.119,4.629-3.286,7.822-3.286
			c1.865,0,3.801,0.386,5.717,1.126c2.771-4.554,6.979-7.021,12.09-7.021h47.334c5.395,0,9.475,2.325,12.166,6.925
			c1.832-0.679,3.682-1.031,5.459-1.031c3.197,0,5.975,1.169,7.826,3.288c2.18,2.495,2.861,6.093,1.873,9.873
			c-0.895,3.42-3.062,6.767-6.102,9.419c-0.623,0.545-1.277,1.052-1.959,1.52l25.627,92.539l0.035,0.12l0.021,0.121
			c1.115,5.89-0.045,11.439-3.18,15.225C563.51,601.514,559.66,604.416,552.76,604.416L552.76,604.416z"/>
		<path d="M439.409,540.517c-1.594,0-3.119-0.592-4.297-1.665c-1.097-0.999-1.781-2.336-1.994-3.753
			c-0.438-0.24-0.85-0.533-1.226-0.876c-2.597-2.368-2.782-6.408-0.415-9.006c0.174-0.19,0.357-0.369,0.553-0.535
			c0.193-1.212,0.732-2.358,1.572-3.279c1.206-1.321,2.922-2.079,4.711-2.079c1.593,0,3.119,0.592,4.297,1.666
			c0.176,0.161,0.344,0.332,0.5,0.511l30.977-11.814l-13.82,27.252l-14.718-1.059c-0.264,0.931-0.743,1.808-1.431,2.56
			C442.915,539.759,441.198,540.517,439.409,540.517z"/>
		<g>
			<polygon fill="#8C6239" points="458.493,533.802 439.923,532.467 437.308,526.924 467.897,515.257 			"/>
			<circle fill="#8C6239" cx="439.41" cy="534.142" r="3.374"/>
			<circle fill="#8C6239" cx="436.188" cy="529.512" r="3.375"/>
			<circle fill="#8C6239" cx="438.313" cy="525.698" r="3.376"/>
		</g>
		<g>
			
				<ellipse transform="matrix(0.6577 -0.7533 0.7533 0.6577 -203.7069 513.1105)" fill="#754C24" cx="462.755" cy="480.707" rx="8.75" ry="12.875"/>
			
				<ellipse transform="matrix(-0.6577 -0.7533 0.7533 -0.6577 528.5215 1201.5717)" fill="#754C24" cx="537.255" cy="480.707" rx="8.75" ry="12.875"/>
		</g>
		<path fill="#9C8E84" d="M565.76,584.416c1.5,7.916-1.5,17-13,17H447.426c-11.916,0-14.916-10.334-12.999-17l29.999-108.333
			c1.584-7.001,5.373-12,12-12h47.334c6.627,0,10.25,4.249,12,12L565.76,584.416z"/>
		<circle cx="488.631" cy="489.832" r="5.75"/>
		<g>
			<path fill="#EBE8C5" d="M498.881,524.082c0,1.104-0.896,2-2,2h-8.75c-1.105,0-2-0.896-2-2v-19.25c0-1.104,0.895-2,2-2h8.75
				c1.104,0,2,0.896,2,2V524.082z"/>
			<path fill="#EBE8C5" d="M513.881,524.082c0,1.104-0.896,2-2,2h-8.75c-1.105,0-2-0.896-2-2v-19.25c0-1.104,0.895-2,2-2h8.75
				c1.104,0,2,0.896,2,2V524.082z"/>
		</g>
		<ellipse fill="#8C6239" cx="500.005" cy="507.332" rx="15.366" ry="10.25"/>
		<circle cx="500.006" cy="500.832" r="5.75"/>
		<circle cx="511.381" cy="489.832" r="5.75"/>
		<circle fill="#FFFFFF" cx="488.631" cy="486.332" r="1.5"/>
		<circle fill="#FFFFFF" cx="511.381" cy="486.332" r="1.5"/>
		<g>
			<polygon fill="#8C6239" points="553.822,541.221 539.201,552.748 533.535,550.415 548.271,521.182 			"/>
			<circle fill="#8C6239" cx="539.951" cy="554.332" r="3.375"/>
			<circle fill="#8C6239" cx="534.451" cy="553.082" r="3.375"/>
			<circle fill="#8C6239" cx="533.451" cy="548.832" r="3.375"/>
		</g>
	</g>
	<g>
		<path d="M352.76,148.416H247.427c-7.246,0-11.241-3.285-13.315-6.041c-3.045-4.043-4.028-9.71-2.568-14.787l25.592-92.411
			c-0.731-0.493-1.437-1.033-2.104-1.616c-6.709-5.857-8.566-14.332-4.232-19.295c1.849-2.119,4.628-3.286,7.821-3.286
			c1.865,0,3.802,0.386,5.717,1.126c2.772-4.554,6.979-7.021,12.091-7.021h47.333c5.396,0,9.475,2.325,12.167,6.925
			c1.831-0.679,3.681-1.031,5.459-1.031c3.196,0,5.975,1.169,7.826,3.288c2.179,2.495,2.861,6.093,1.872,9.873
			c-0.895,3.42-3.062,6.767-6.101,9.419c-0.624,0.545-1.278,1.052-1.96,1.52l25.627,92.539l0.035,0.12l0.022,0.121
			c1.115,5.89-0.046,11.439-3.181,15.225C363.511,145.513,359.66,148.416,352.76,148.416L352.76,148.416z"/>
		<g>
			
				<ellipse transform="matrix(0.6578 -0.7532 0.7532 0.6578 71.3173 206.3718)" fill="#E6E6E6" cx="262.755" cy="24.707" rx="8.75" ry="12.875"/>
			
				<ellipse transform="matrix(-0.6578 -0.7532 0.7532 -0.6578 540.4765 294.9893)" fill="#E6E6E6" cx="337.255" cy="24.707" rx="8.75" ry="12.875"/>
		</g>
		<path fill="#F2F2F2" d="M365.76,128.416c1.5,7.916-1.5,17-13,17H247.427c-11.917,0-14.917-10.334-13-17l30-108.333
			c1.583-7.001,5.373-12,12-12h47.333c6.628,0,10.25,4.249,12,12L365.76,128.416z"/>
		<circle fill="#47272D" cx="288.631" cy="33.832" r="5.75"/>
		<g>
			<path fill="#EBE8C5" d="M298.881,68.082c0,1.104-0.896,2-2,2h-8.75c-1.104,0-2-0.896-2-2v-19.25c0-1.104,0.896-2,2-2h8.75
				c1.104,0,2,0.896,2,2V68.082z"/>
			<path fill="#EBE8C5" d="M313.881,68.082c0,1.104-0.896,2-2,2h-8.75c-1.104,0-2-0.896-2-2v-19.25c0-1.104,0.896-2,2-2h8.75
				c1.104,0,2,0.896,2,2V68.082z"/>
		</g>
		<ellipse fill="#CCCCCC" cx="300.005" cy="51.332" rx="15.366" ry="10.25"/>
		<circle fill="#ED9CC0" cx="300.006" cy="44.832" r="5.75"/>
		<circle fill="#47272D" cx="311.381" cy="33.832" r="5.75"/>
		<circle fill="#FFFFFF" cx="288.631" cy="30.332" r="1.5"/>
		<circle fill="#FFFFFF" cx="311.381" cy="30.332" r="1.5"/>
		<g>
			<polygon fill="#CCCCCC" points="246.389,85.22 261.01,96.748 266.676,94.415 251.938,65.181 			"/>
			<circle fill="#CCCCCC" cx="260.26" cy="98.332" r="3.375"/>
			<circle fill="#CCCCCC" cx="265.76" cy="97.082" r="3.375"/>
			<circle fill="#CCCCCC" cx="266.76" cy="92.832" r="3.375"/>
		</g>
		<g>
			<polygon fill="#CCCCCC" points="353.822,85.22 339.201,96.748 333.535,94.415 348.272,65.181 			"/>
			<circle fill="#CCCCCC" cx="339.951" cy="98.332" r="3.375"/>
			<circle fill="#CCCCCC" cx="334.451" cy="97.082" r="3.375"/>
			<circle fill="#CCCCCC" cx="333.451" cy="92.832" r="3.375"/>
		</g>
	</g>
	<g>
		<path d="M40.006,220.304c-0.727,0.285-1.514,0.438-2.329,0.438c-0.189,0-0.381-0.008-0.574-0.026
			c-3.499-0.313-6.093-3.417-5.78-6.918c0.133-1.478,0.783-2.832,1.781-3.858c-0.074-0.495-0.089-1.001-0.043-1.511
			c0.297-3.308,3.026-5.804,6.346-5.804c0.189,0,0.38,0.008,0.572,0.025c0.255,0.023,0.507,0.062,0.756,0.115
			c0.915-0.491,1.943-0.757,2.998-0.757c0.188,0,0.377,0.008,0.568,0.025c3.501,0.315,6.094,3.419,5.781,6.919
			c-0.022,0.239-0.057,0.476-0.105,0.709l28.15,17.511l-30.059,5.489L40.006,220.304z"/>
		<path d="M153.407,300.416H48.074c-7.246,0-11.242-3.285-13.316-6.041c-3.045-4.043-4.027-9.71-2.568-14.787l25.592-92.412
			c-0.73-0.492-1.436-1.032-2.104-1.615c-6.709-5.857-8.566-14.332-4.232-19.295c1.849-2.119,4.627-3.286,7.82-3.286
			c1.866,0,3.803,0.386,5.717,1.126c2.773-4.555,6.979-7.021,12.092-7.021h47.333c5.396,0,9.475,2.325,12.167,6.924
			c1.831-0.678,3.68-1.03,5.459-1.03c3.195,0,5.975,1.169,7.826,3.288c2.179,2.494,2.861,6.092,1.871,9.873
			c-0.895,3.42-3.061,6.766-6.1,9.419c-0.625,0.544-1.278,1.052-1.961,1.52l25.627,92.539l0.035,0.12l0.023,0.121
			c1.115,5.89-0.046,11.439-3.182,15.225C164.158,297.514,160.307,300.416,153.407,300.416L153.407,300.416z"/>
		<g>
			<polygon fill="#8C6239" points="49.493,229.354 39.319,213.761 42.149,208.326 69.948,225.618 			"/>
			<circle fill="#8C6239" cx="37.675" cy="214.366" r="3.375"/>
			<circle fill="#8C6239" cx="39.411" cy="209" r="3.375"/>
			<circle fill="#8C6239" cx="43.733" cy="208.384" r="3.375"/>
		</g>
		<g>
			
				<ellipse transform="matrix(0.6578 -0.7532 0.7532 0.6578 -111.4015 108.2341)" fill="#754C24" cx="63.403" cy="176.706" rx="8.75" ry="12.876"/>
			
				<ellipse transform="matrix(-0.6578 -0.7532 0.7532 -0.6578 95.5081 396.8081)" fill="#754C24" cx="137.903" cy="176.706" rx="8.75" ry="12.876"/>
		</g>
		<path fill="#603813" d="M166.407,280.416c1.499,7.916-1.501,17-13,17H48.074c-11.918,0-14.918-10.334-13-17l30-108.333
			c1.582-7.001,5.373-12,12-12h47.333c6.628,0,10.249,4.249,12,12L166.407,280.416z"/>
		<circle cx="89.277" cy="185.832" r="5.75"/>
		<g>
			<path fill="#EBE8C5" d="M99.527,220.082c0,1.104-0.895,2-2,2h-8.75c-1.104,0-2-0.896-2-2v-19.25c0-1.105,0.896-2,2-2h8.75
				c1.105,0,2,0.895,2,2V220.082z"/>
			<path fill="#EBE8C5" d="M114.527,220.082c0,1.104-0.895,2-2,2h-8.75c-1.104,0-2-0.896-2-2v-19.25c0-1.105,0.896-2,2-2h8.75
				c1.105,0,2,0.895,2,2V220.082z"/>
		</g>
		<ellipse fill="#8C6239" cx="100.653" cy="203.332" rx="15.366" ry="10.25"/>
		<circle cx="100.652" cy="196.832" r="5.75"/>
		<circle cx="112.027" cy="185.832" r="5.75"/>
		<circle fill="#FFFFFF" cx="89.277" cy="182.332" r="1.5"/>
		<circle fill="#FFFFFF" cx="112.027" cy="182.332" r="1.5"/>
		<g>
			<polygon fill="#8C6239" points="154.469,237.221 139.849,248.748 134.182,246.415 148.92,217.182 			"/>
			<circle fill="#8C6239" cx="140.599" cy="250.332" r="3.375"/>
			<circle fill="#8C6239" cx="135.099" cy="249.082" r="3.375"/>
			<circle fill="#8C6239" cx="134.099" cy="244.832" r="3.375"/>
		</g>
	</g>
	<g>
		<path d="M41.442,378.492c-0.65,0.715-1.471,1.287-2.42,1.654c-0.739,0.287-1.513,0.432-2.301,0.432
			c-2.612,0-5.002-1.637-5.946-4.072c-0.536-1.385-0.553-2.887-0.113-4.248c-0.285-0.41-0.522-0.857-0.707-1.332
			c-1.27-3.277,0.363-6.977,3.64-8.248c0.24-0.094,0.485-0.171,0.735-0.232c0.713-0.998,1.707-1.785,2.869-2.235
			c0.739-0.286,1.513-0.432,2.301-0.432c2.612,0,5.002,1.638,5.947,4.073c0.086,0.225,0.16,0.451,0.22,0.682l32.997,3.225
			l-24.515,18.239L41.442,378.492z"/>
		<path d="M153.407,452.416H48.074c-7.246,0-11.242-3.285-13.316-6.041c-3.045-4.043-4.027-9.71-2.568-14.787l25.592-92.412
			c-0.73-0.492-1.436-1.032-2.104-1.615c-6.709-5.857-8.566-14.332-4.232-19.295c1.849-2.119,4.627-3.286,7.82-3.286
			c1.866,0,3.803,0.386,5.717,1.126c2.773-4.555,6.979-7.021,12.092-7.021h47.333c5.396,0,9.475,2.325,12.167,6.924
			c1.831-0.678,3.68-1.03,5.459-1.03c3.195,0,5.975,1.169,7.826,3.288c2.179,2.494,2.861,6.092,1.871,9.873
			c-0.895,3.42-3.061,6.766-6.1,9.419c-0.625,0.544-1.278,1.052-1.961,1.52l25.627,92.539l0.035,0.12l0.023,0.121
			c1.115,5.89-0.046,11.439-3.182,15.225C164.158,449.514,160.307,452.416,153.407,452.416L153.407,452.416z"/>
		<g>
			<polygon fill="#8C6239" points="53.956,382.4 37.926,372.931 38.055,366.805 70.639,369.988 			"/>
			<circle fill="#8C6239" cx="36.72" cy="374.203" r="3.375"/>
			<circle fill="#8C6239" cx="35.898" cy="368.622" r="3.375"/>
			<circle fill="#8C6239" cx="39.501" cy="366.154" r="3.375"/>
		</g>
		<g>
			
				<ellipse transform="matrix(0.6578 -0.7532 0.7532 0.6578 -225.8929 160.2556)" fill="#754C24" cx="63.403" cy="328.706" rx="8.75" ry="12.876"/>
			
				<ellipse transform="matrix(-0.6578 -0.7532 0.7532 -0.6578 -18.9834 648.7866)" fill="#754C24" cx="137.903" cy="328.706" rx="8.75" ry="12.876"/>
		</g>
		<path fill="#603813" d="M166.407,432.416c1.499,7.916-1.501,17-13,17H48.074c-11.918,0-14.918-10.334-13-17l30-108.333
			c1.582-7.001,5.373-12,12-12h47.333c6.628,0,10.249,4.249,12,12L166.407,432.416z"/>
		<circle cx="89.277" cy="337.832" r="5.75"/>
		<g>
			<path fill="#EBE8C5" d="M99.527,372.082c0,1.104-0.895,2-2,2h-8.75c-1.104,0-2-0.896-2-2v-19.25c0-1.105,0.896-2,2-2h8.75
				c1.105,0,2,0.895,2,2V372.082z"/>
			<path fill="#EBE8C5" d="M114.527,372.082c0,1.104-0.895,2-2,2h-8.75c-1.104,0-2-0.896-2-2v-19.25c0-1.105,0.896-2,2-2h8.75
				c1.105,0,2,0.895,2,2V372.082z"/>
		</g>
		<ellipse fill="#8C6239" cx="100.653" cy="355.332" rx="15.366" ry="10.25"/>
		<circle cx="100.652" cy="348.832" r="5.75"/>
		<circle cx="112.027" cy="337.832" r="5.75"/>
		<circle fill="#FFFFFF" cx="89.277" cy="334.332" r="1.5"/>
		<circle fill="#FFFFFF" cx="112.027" cy="334.332" r="1.5"/>
		<g>
			<polygon fill="#8C6239" points="154.469,389.221 139.849,400.748 134.182,398.415 148.92,369.182 			"/>
			<circle fill="#8C6239" cx="140.599" cy="402.332" r="3.375"/>
			<circle fill="#8C6239" cx="135.099" cy="401.082" r="3.375"/>
			<circle fill="#8C6239" cx="134.099" cy="396.832" r="3.375"/>
		</g>
	</g>
	<g>
		<path d="M40.058,540.517c-1.593,0-3.119-0.592-4.296-1.665c-1.097-0.999-1.782-2.336-1.995-3.753
			c-0.438-0.24-0.85-0.533-1.226-0.876c-2.597-2.368-2.783-6.408-0.415-9.006c0.174-0.19,0.358-0.369,0.553-0.535
			c0.194-1.212,0.732-2.358,1.572-3.279c1.206-1.321,2.922-2.079,4.71-2.079c1.593,0,3.119,0.592,4.297,1.666
			c0.177,0.161,0.344,0.332,0.5,0.511l30.978-11.814l-13.821,27.252l-14.717-1.059c-0.264,0.931-0.744,1.808-1.43,2.56
			C43.564,539.759,41.847,540.517,40.058,540.517z"/>
		<path d="M153.407,604.416H48.074c-7.246,0-11.242-3.285-13.316-6.041c-3.045-4.043-4.027-9.71-2.568-14.787l25.592-92.412
			c-0.73-0.492-1.436-1.032-2.104-1.615c-6.709-5.857-8.566-14.332-4.232-19.295c1.849-2.119,4.627-3.286,7.82-3.286
			c1.866,0,3.803,0.386,5.717,1.126c2.773-4.555,6.979-7.021,12.092-7.021h47.333c5.396,0,9.475,2.325,12.167,6.924
			c1.831-0.678,3.68-1.03,5.459-1.03c3.195,0,5.975,1.169,7.826,3.288c2.179,2.494,2.861,6.092,1.871,9.873
			c-0.895,3.42-3.061,6.766-6.1,9.419c-0.625,0.544-1.278,1.052-1.961,1.52l25.627,92.539l0.035,0.12l0.023,0.121
			c1.115,5.89-0.046,11.439-3.182,15.225C164.158,601.514,160.307,604.416,153.407,604.416L153.407,604.416z"/>
		<g>
			<polygon fill="#8C6239" points="59.142,533.802 40.572,532.467 37.957,526.924 68.547,515.257 			"/>
			<circle fill="#8C6239" cx="40.059" cy="534.142" r="3.374"/>
			<circle fill="#8C6239" cx="36.837" cy="529.512" r="3.375"/>
			<circle fill="#8C6239" cx="38.963" cy="525.698" r="3.376"/>
		</g>
		<g>
			
				<ellipse transform="matrix(0.6578 -0.7532 0.7532 0.6578 -340.3843 212.277)" fill="#754C24" cx="63.403" cy="480.706" rx="8.75" ry="12.876"/>
			
				<ellipse transform="matrix(-0.6578 -0.7532 0.7532 -0.6578 -133.4749 900.7651)" fill="#754C24" cx="137.903" cy="480.706" rx="8.75" ry="12.876"/>
		</g>
		<path fill="#603813" d="M166.407,584.416c1.499,7.916-1.501,17-13,17H48.074c-11.918,0-14.918-10.334-13-17l30-108.333
			c1.582-7.001,5.373-12,12-12h47.333c6.628,0,10.249,4.249,12,12L166.407,584.416z"/>
		<circle cx="89.277" cy="489.832" r="5.75"/>
		<g>
			<path fill="#EBE8C5" d="M99.527,524.082c0,1.104-0.895,2-2,2h-8.75c-1.104,0-2-0.896-2-2v-19.25c0-1.105,0.896-2,2-2h8.75
				c1.105,0,2,0.895,2,2V524.082z"/>
			<path fill="#EBE8C5" d="M114.527,524.082c0,1.104-0.895,2-2,2h-8.75c-1.104,0-2-0.896-2-2v-19.25c0-1.105,0.896-2,2-2h8.75
				c1.105,0,2,0.895,2,2V524.082z"/>
		</g>
		<ellipse fill="#8C6239" cx="100.653" cy="507.332" rx="15.366" ry="10.25"/>
		<circle cx="100.652" cy="500.832" r="5.75"/>
		<circle cx="112.027" cy="489.832" r="5.75"/>
		<circle fill="#FFFFFF" cx="89.277" cy="486.332" r="1.5"/>
		<circle fill="#FFFFFF" cx="112.027" cy="486.332" r="1.5"/>
		<g>
			<polygon fill="#8C6239" points="154.469,541.221 139.849,552.748 134.182,550.415 148.92,521.182 			"/>
			<circle fill="#8C6239" cx="140.599" cy="554.332" r="3.375"/>
			<circle fill="#8C6239" cx="135.099" cy="553.082" r="3.375"/>
			<circle fill="#8C6239" cx="134.099" cy="548.832" r="3.375"/>
		</g>
	</g>
	<g>
		<path d="M352.76,300.416H247.427c-7.246,0-11.241-3.285-13.315-6.041c-3.045-4.043-4.028-9.71-2.568-14.787l25.592-92.411
			c-0.731-0.493-1.437-1.033-2.104-1.616c-6.709-5.857-8.566-14.332-4.232-19.295c1.849-2.119,4.628-3.286,7.821-3.286
			c1.865,0,3.802,0.386,5.717,1.126c2.772-4.554,6.979-7.021,12.091-7.021h47.333c5.396,0,9.475,2.325,12.167,6.925
			c1.831-0.679,3.681-1.031,5.459-1.031c3.196,0,5.975,1.169,7.826,3.288c2.179,2.495,2.861,6.093,1.872,9.873
			c-0.895,3.42-3.062,6.767-6.101,9.419c-0.624,0.545-1.278,1.052-1.96,1.52l25.627,92.539l0.035,0.12l0.022,0.121
			c1.115,5.89-0.046,11.439-3.181,15.225C363.511,297.514,359.66,300.416,352.76,300.416L352.76,300.416z"/>
		<path d="M239.006,220.304c-0.727,0.285-1.514,0.438-2.329,0.438c-0.189,0-0.381-0.008-0.574-0.026
			c-3.499-0.313-6.093-3.417-5.78-6.918c0.133-1.478,0.783-2.832,1.781-3.858c-0.074-0.495-0.089-1.001-0.043-1.511
			c0.297-3.308,3.026-5.804,6.346-5.804c0.189,0,0.38,0.008,0.572,0.025c0.255,0.023,0.507,0.062,0.756,0.115
			c0.915-0.491,1.943-0.757,2.998-0.757c0.188,0,0.377,0.008,0.568,0.025c3.501,0.315,6.094,3.419,5.781,6.919
			c-0.022,0.239-0.057,0.476-0.105,0.709l28.15,17.511l-30.059,5.489L239.006,220.304z"/>
		<g>
			<polygon fill="#CCCCCC" points="248.845,229.354 238.671,213.761 241.501,208.326 269.3,225.618 			"/>
			<circle fill="#CCCCCC" cx="237.027" cy="214.366" r="3.375"/>
			<circle fill="#CCCCCC" cx="238.763" cy="209" r="3.375"/>
			<circle fill="#CCCCCC" cx="243.085" cy="208.384" r="3.375"/>
		</g>
		<g>
			
				<ellipse transform="matrix(0.6578 -0.7532 0.7532 0.6578 -43.1745 258.3934)" fill="#E6E6E6" cx="262.755" cy="176.707" rx="8.75" ry="12.875"/>
			
				<ellipse transform="matrix(-0.6578 -0.7532 0.7532 -0.6578 425.9847 546.9686)" fill="#E6E6E6" cx="337.255" cy="176.707" rx="8.75" ry="12.875"/>
		</g>
		<path fill="#F2F2F2" d="M365.76,280.416c1.5,7.916-1.5,17-13,17H247.427c-11.917,0-14.917-10.334-13-17l30-108.333
			c1.583-7.001,5.373-12,12-12h47.333c6.628,0,10.25,4.249,12,12L365.76,280.416z"/>
		<circle fill="#47272D" cx="288.631" cy="185.832" r="5.75"/>
		<g>
			<path fill="#EBE8C5" d="M298.881,220.082c0,1.104-0.896,2-2,2h-8.75c-1.104,0-2-0.896-2-2v-19.25c0-1.104,0.896-2,2-2h8.75
				c1.104,0,2,0.896,2,2V220.082z"/>
			<path fill="#EBE8C5" d="M313.881,220.082c0,1.104-0.896,2-2,2h-8.75c-1.104,0-2-0.896-2-2v-19.25c0-1.104,0.896-2,2-2h8.75
				c1.104,0,2,0.896,2,2V220.082z"/>
		</g>
		<ellipse fill="#CCCCCC" cx="300.005" cy="203.332" rx="15.366" ry="10.25"/>
		<circle fill="#ED9CC0" cx="300.006" cy="196.832" r="5.75"/>
		<circle fill="#47272D" cx="311.381" cy="185.832" r="5.75"/>
		<circle fill="#FFFFFF" cx="288.631" cy="182.332" r="1.5"/>
		<circle fill="#FFFFFF" cx="311.381" cy="182.332" r="1.5"/>
		<g>
			<polygon fill="#CCCCCC" points="353.822,237.221 339.201,248.748 333.535,246.415 348.272,217.182 			"/>
			<circle fill="#CCCCCC" cx="339.951" cy="250.332" r="3.375"/>
			<circle fill="#CCCCCC" cx="334.451" cy="249.082" r="3.375"/>
			<circle fill="#CCCCCC" cx="333.451" cy="244.832" r="3.375"/>
		</g>
	</g>
	<g>
		<path d="M352.76,452.416H247.427c-7.246,0-11.241-3.285-13.315-6.041c-3.045-4.043-4.028-9.71-2.568-14.787l25.592-92.411
			c-0.731-0.493-1.437-1.033-2.104-1.616c-6.709-5.857-8.566-14.332-4.232-19.295c1.849-2.119,4.628-3.286,7.821-3.286
			c1.865,0,3.802,0.386,5.717,1.126c2.772-4.554,6.979-7.021,12.091-7.021h47.333c5.396,0,9.475,2.325,12.167,6.925
			c1.831-0.679,3.681-1.031,5.459-1.031c3.196,0,5.975,1.169,7.826,3.288c2.179,2.495,2.861,6.093,1.872,9.873
			c-0.895,3.42-3.062,6.767-6.101,9.419c-0.624,0.545-1.278,1.052-1.96,1.52l25.627,92.539l0.035,0.12l0.022,0.121
			c1.115,5.89-0.046,11.439-3.181,15.225C363.511,449.514,359.66,452.416,352.76,452.416L352.76,452.416z"/>
		<path d="M240.794,378.492c-0.65,0.715-1.471,1.287-2.42,1.654c-0.739,0.287-1.513,0.432-2.301,0.432
			c-2.612,0-5.002-1.637-5.946-4.072c-0.536-1.385-0.553-2.887-0.113-4.248c-0.285-0.41-0.522-0.857-0.707-1.332
			c-1.27-3.277,0.363-6.977,3.64-8.248c0.24-0.094,0.485-0.171,0.735-0.232c0.713-0.998,1.707-1.785,2.869-2.235
			c0.739-0.286,1.513-0.432,2.301-0.432c2.612,0,5.002,1.638,5.947,4.073c0.086,0.225,0.16,0.451,0.22,0.682l32.997,3.225
			l-24.515,18.239L240.794,378.492z"/>
		<g>
			<polygon fill="#CCCCCC" points="253.308,382.4 237.278,372.931 237.407,366.805 269.991,369.988 			"/>
			<circle fill="#CCCCCC" cx="236.072" cy="374.203" r="3.375"/>
			<circle fill="#CCCCCC" cx="235.25" cy="368.622" r="3.375"/>
			<circle fill="#CCCCCC" cx="238.854" cy="366.154" r="3.375"/>
		</g>
		<g>
			
				<ellipse transform="matrix(0.6578 -0.7532 0.7532 0.6578 -157.666 310.4148)" fill="#E6E6E6" cx="262.755" cy="328.707" rx="8.75" ry="12.875"/>
			
				<ellipse transform="matrix(-0.6578 -0.7532 0.7532 -0.6578 311.4933 798.9472)" fill="#E6E6E6" cx="337.255" cy="328.707" rx="8.75" ry="12.875"/>
		</g>
		<path fill="#F2F2F2" d="M365.76,432.416c1.5,7.916-1.5,17-13,17H247.427c-11.917,0-14.917-10.334-13-17l30-108.333
			c1.583-7.001,5.373-12,12-12h47.333c6.628,0,10.25,4.249,12,12L365.76,432.416z"/>
		<circle fill="#47272D" cx="288.631" cy="337.832" r="5.75"/>
		<g>
			<path fill="#EBE8C5" d="M298.881,372.082c0,1.104-0.896,2-2,2h-8.75c-1.104,0-2-0.896-2-2v-19.25c0-1.104,0.896-2,2-2h8.75
				c1.104,0,2,0.896,2,2V372.082z"/>
			<path fill="#EBE8C5" d="M313.881,372.082c0,1.104-0.896,2-2,2h-8.75c-1.104,0-2-0.896-2-2v-19.25c0-1.104,0.896-2,2-2h8.75
				c1.104,0,2,0.896,2,2V372.082z"/>
		</g>
		<ellipse fill="#CCCCCC" cx="300.005" cy="355.332" rx="15.366" ry="10.25"/>
		<circle fill="#ED9CC0" cx="300.006" cy="348.832" r="5.75"/>
		<circle fill="#47272D" cx="311.381" cy="337.832" r="5.75"/>
		<circle fill="#FFFFFF" cx="288.631" cy="334.332" r="1.5"/>
		<circle fill="#FFFFFF" cx="311.381" cy="334.332" r="1.5"/>
		<g>
			<polygon fill="#CCCCCC" points="353.822,389.221 339.201,400.748 333.535,398.415 348.272,369.182 			"/>
			<circle fill="#CCCCCC" cx="339.951" cy="402.332" r="3.375"/>
			<circle fill="#CCCCCC" cx="334.451" cy="401.082" r="3.375"/>
			<circle fill="#CCCCCC" cx="333.451" cy="396.832" r="3.375"/>
		</g>
	</g>
	<g>
		<path d="M352.76,604.416H247.427c-7.246,0-11.241-3.285-13.315-6.041c-3.045-4.043-4.028-9.71-2.568-14.787l25.592-92.411
			c-0.731-0.493-1.437-1.033-2.104-1.616c-6.709-5.857-8.566-14.332-4.232-19.295c1.849-2.119,4.628-3.286,7.821-3.286
			c1.865,0,3.802,0.386,5.717,1.126c2.772-4.554,6.979-7.021,12.091-7.021h47.333c5.396,0,9.475,2.325,12.167,6.925
			c1.831-0.679,3.681-1.031,5.459-1.031c3.196,0,5.975,1.169,7.826,3.288c2.179,2.495,2.861,6.093,1.872,9.873
			c-0.895,3.42-3.062,6.767-6.101,9.419c-0.624,0.545-1.278,1.052-1.96,1.52l25.627,92.539l0.035,0.12l0.022,0.121
			c1.115,5.89-0.046,11.439-3.181,15.225C363.511,601.514,359.66,604.416,352.76,604.416L352.76,604.416z"/>
		<path d="M239.41,540.517c-1.593,0-3.119-0.592-4.296-1.665c-1.097-0.999-1.782-2.336-1.995-3.753
			c-0.438-0.24-0.85-0.533-1.226-0.876c-2.597-2.368-2.783-6.408-0.415-9.006c0.174-0.19,0.358-0.369,0.553-0.535
			c0.194-1.212,0.732-2.358,1.572-3.279c1.206-1.321,2.922-2.079,4.71-2.079c1.593,0,3.119,0.592,4.297,1.666
			c0.177,0.161,0.344,0.332,0.5,0.511l30.978-11.814l-13.821,27.252l-14.717-1.059c-0.264,0.931-0.744,1.808-1.43,2.56
			C242.917,539.759,241.199,540.517,239.41,540.517z"/>
		<g>
			<polygon fill="#CCCCCC" points="258.494,533.802 239.924,532.467 237.309,526.924 267.899,515.257 			"/>
			<circle fill="#CCCCCC" cx="239.411" cy="534.142" r="3.374"/>
			<circle fill="#CCCCCC" cx="236.189" cy="529.512" r="3.375"/>
			<circle fill="#CCCCCC" cx="238.315" cy="525.698" r="3.376"/>
		</g>
		<g>
			
				<ellipse transform="matrix(0.6578 -0.7532 0.7532 0.6578 -272.1574 362.4363)" fill="#E6E6E6" cx="262.755" cy="480.707" rx="8.75" ry="12.875"/>
			
				<ellipse transform="matrix(-0.6578 -0.7532 0.7532 -0.6578 197.0018 1050.9258)" fill="#E6E6E6" cx="337.255" cy="480.707" rx="8.75" ry="12.875"/>
		</g>
		<path fill="#F2F2F2" d="M365.76,584.416c1.5,7.916-1.5,17-13,17H247.427c-11.917,0-14.917-10.334-13-17l30-108.333
			c1.583-7.001,5.373-12,12-12h47.333c6.628,0,10.25,4.249,12,12L365.76,584.416z"/>
		<circle fill="#47272D" cx="288.631" cy="489.832" r="5.75"/>
		<g>
			<path fill="#EBE8C5" d="M298.881,524.082c0,1.104-0.896,2-2,2h-8.75c-1.104,0-2-0.896-2-2v-19.25c0-1.104,0.896-2,2-2h8.75
				c1.104,0,2,0.896,2,2V524.082z"/>
			<path fill="#EBE8C5" d="M313.881,524.082c0,1.104-0.896,2-2,2h-8.75c-1.104,0-2-0.896-2-2v-19.25c0-1.104,0.896-2,2-2h8.75
				c1.104,0,2,0.896,2,2V524.082z"/>
		</g>
		<ellipse fill="#CCCCCC" cx="300.005" cy="507.332" rx="15.366" ry="10.25"/>
		<circle fill="#ED9CC0" cx="300.006" cy="500.832" r="5.75"/>
		<circle fill="#47272D" cx="311.381" cy="489.832" r="5.75"/>
		<circle fill="#FFFFFF" cx="288.631" cy="486.332" r="1.5"/>
		<circle fill="#FFFFFF" cx="311.381" cy="486.332" r="1.5"/>
		<g>
			<polygon fill="#CCCCCC" points="353.822,541.221 339.201,552.748 333.535,550.415 348.272,521.182 			"/>
			<circle fill="#CCCCCC" cx="339.951" cy="554.332" r="3.375"/>
			<circle fill="#CCCCCC" cx="334.451" cy="553.082" r="3.375"/>
			<circle fill="#CCCCCC" cx="333.451" cy="548.832" r="3.375"/>
		</g>
	</g>
	<g>
	</g>
	<g>
	</g>
	<g>
	</g>
	<g>
	</g>
	<g>
	</g>
	<g>
	</g>
	<g>
	</g>
	<g>
	</g>
	<g>
	</g>
	<g>
	</g>
	<g>
	</g>
	<g>
	</g>
	<g>
	</g>
	<g>
	</g>
	<g>
	</g>
</g>
</svg>
