<?xml version="1.0" encoding="utf-8"?>
<!-- Generator: Adobe Illustrator 16.0.3, SVG Export Plug-In . SVG Version: 6.00 Build 0)  -->
<!DOCTYPE svg PUBLIC "-//W3C//DTD SVG 1.0//EN" "http://www.w3.org/TR/2001/REC-SVG-20010904/DTD/svg10.dtd">
<svg version="1.0" xmlns="http://www.w3.org/2000/svg" xmlns:xlink="http://www.w3.org/1999/xlink" x="0px" y="0px" width="800px"
	 height="152px" viewBox="0 0 800 152" enable-background="new 0 0 800 152" xml:space="preserve">
<g id="Layer_2" display="none">
	<rect x="200" display="inline" fill="#00A27B" width="200" height="152"/>
	<rect x="400" display="inline" fill="#FF45B2" width="200" height="152"/>
	<rect x="600" display="inline" fill="#E7DB00" width="200" height="152"/>
	<rect display="inline" fill="#2E81FF" width="200" height="152"/>
</g>
<g id="Layer_1">
	<g>
		<path d="M152.76,147.668H47.427c-7.248,0-11.244-3.287-13.316-6.045c-3.045-4.041-4.028-9.709-2.565-14.787l9.629-34.779
			c-1.487-5.926-2.561-10.107-3.197-12.434c-0.732-2.695-2.453-9.002,3.181-12.92c2.204-1.535,5.915-3.721,8.478-5.197l6.331-22.863
			c-2.671-0.658-4.841-2.141-6.177-4.275c-3.49-5.59-0.309-13.662,7.242-18.377c1.967-1.23,4.095-2.127,6.24-2.633
			c2.698-5.836,7.317-9.025,13.154-9.025h47.334c6.134,0,10.565,3.014,13.194,8.961c2.235,0.49,4.46,1.408,6.525,2.697
			c3.421,2.137,6.092,5.094,7.521,8.33c1.576,3.572,1.475,7.234-0.281,10.045c-1.382,2.213-3.666,3.723-6.481,4.342l6.346,22.92
			c2.5,1.441,6.109,3.572,8.269,5.076c5.634,3.918,3.914,10.225,3.181,12.918c-0.817,3.002-2.231,8.582-3.114,12.102l9.732,35.143
			l0.034,0.121l0.023,0.123c1.113,5.889-0.045,11.439-3.183,15.225C163.512,144.766,159.659,147.668,152.76,147.668L152.76,147.668z
			"/>
		<g>
			<path fill="#8C6239" d="M53.372,62.832c0,0-7.16,4.01-10.5,6.332c-3.834,2.668-2.744,6.939-2,9.668c1.5,5.5,5,19.666,5,19.666
				L53.372,62.832z"/>
			<path fill="#8C6239" d="M146.638,62.832c0,0,7.16,4.01,10.5,6.332c3.833,2.668,2.744,6.939,2,9.668c-1.5,5.5-5,19.666-5,19.666
				L146.638,62.832z"/>
		</g>
		
			<ellipse transform="matrix(0.5297 -0.8482 0.8482 0.5297 42.5389 128.6267)" fill="#754C24" cx="137.255" cy="25.955" rx="8.75" ry="12.875"/>
		<g>
			
				<ellipse transform="matrix(0.5297 -0.8482 0.8482 0.5297 42.2987 128.1977)" fill="#754C24" cx="136.754" cy="25.955" rx="8.75" ry="12.875"/>
			
				<ellipse transform="matrix(-0.5297 -0.8482 0.8482 -0.5297 74.747 93.3547)" fill="#754C24" cx="63.254" cy="25.955" rx="8.75" ry="12.875"/>
		</g>
		<path fill="#603813" d="M165.759,127.666c1.5,7.916-1.5,17-13,17H47.426c-11.917,0-14.917-10.334-13-17l30-108.332
			c1.583-7.002,5.373-12,12-12h47.333c6.628,0,10.25,4.248,12,12L165.759,127.666z"/>
		<circle cx="87.63" cy="37.082" r="5.75"/>
		<g>
			<path fill="#EBE8C5" d="M98.88,70.332c0,1.104-0.896,2-2,2h-8.75c-1.104,0-2-0.896-2-2v-19.25c0-1.105,0.896-2,2-2h8.75
				c1.104,0,2,0.895,2,2V70.332z"/>
			<path fill="#EBE8C5" d="M113.88,70.332c0,1.104-0.896,2-2,2h-8.75c-1.104,0-2-0.896-2-2v-19.25c0-1.105,0.896-2,2-2h8.75
				c1.104,0,2,0.895,2,2V70.332z"/>
		</g>
		<ellipse fill="#8C6239" cx="100.004" cy="53.582" rx="15.366" ry="10.25"/>
		<circle cx="97.005" cy="48.082" r="5.75"/>
		<circle cx="110.38" cy="37.082" r="5.75"/>
		<circle fill="#FFFFFF" cx="86.63" cy="39.582" r="1.5"/>
		<circle fill="#FFFFFF" cx="109.38" cy="39.582" r="1.5"/>
	</g>
	<g>
		<path d="M352.76,147.668H247.427c-7.248,0-11.244-3.287-13.317-6.045c-3.045-4.041-4.028-9.709-2.565-14.787l9.629-34.779
			c-1.487-5.926-2.561-10.107-3.197-12.434c-0.733-2.695-2.453-9.002,3.181-12.92c2.204-1.535,5.915-3.721,8.478-5.197l6.331-22.863
			c-2.671-0.658-4.841-2.141-6.177-4.275c-3.491-5.59-0.309-13.662,7.242-18.377c1.967-1.23,4.095-2.127,6.24-2.633
			c2.698-5.836,7.318-9.025,13.154-9.025h47.334c6.134,0,10.565,3.014,13.194,8.961c2.235,0.49,4.46,1.408,6.525,2.697
			c3.421,2.137,6.092,5.094,7.521,8.33c1.576,3.572,1.475,7.234-0.281,10.045c-1.382,2.213-3.666,3.723-6.481,4.342l6.346,22.92
			c2.5,1.441,6.109,3.572,8.269,5.076c5.634,3.918,3.914,10.225,3.181,12.918c-0.818,3.002-2.231,8.582-3.115,12.102l9.733,35.143
			l0.034,0.121l0.023,0.123c1.113,5.889-0.044,11.439-3.183,15.225C363.512,144.766,359.66,147.668,352.76,147.668L352.76,147.668z"
			/>
		<g>
			<path fill="#CCCCCC" d="M253.372,62.832c0,0-7.16,4.01-10.5,6.332c-3.833,2.668-2.744,6.939-2,9.668c1.5,5.5,5,19.666,5,19.666
				L253.372,62.832z"/>
			<path fill="#CCCCCC" d="M346.638,62.832c0,0,7.16,4.01,10.5,6.332c3.833,2.668,2.744,6.939,2,9.668c-1.5,5.5-5,19.666-5,19.666
				L346.638,62.832z"/>
		</g>
		
			<ellipse transform="matrix(0.5297 -0.8482 0.8482 0.5297 136.597 298.2619)" fill="#754C24" cx="337.255" cy="25.955" rx="8.75" ry="12.875"/>
		<g>
			
				<ellipse transform="matrix(0.5297 -0.8482 0.8482 0.5297 136.3616 297.8374)" fill="#E6E6E6" cx="336.755" cy="25.955" rx="8.75" ry="12.875"/>
			
				<ellipse transform="matrix(-0.5297 -0.8482 0.8482 -0.5297 380.6854 262.9924)" fill="#E6E6E6" cx="263.255" cy="25.955" rx="8.75" ry="12.875"/>
		</g>
		<path fill="#F2F2F2" d="M365.759,127.666c1.5,7.916-1.5,17-13,17H247.426c-11.917,0-14.917-10.334-13-17l30-108.332
			c1.583-7.002,5.373-12,12-12h47.333c6.627,0,10.25,4.248,12,12L365.759,127.666z"/>
		<circle fill="#47272D" cx="287.63" cy="37.082" r="5.75"/>
		<g>
			<path fill="#EBE8C5" d="M298.88,70.332c0,1.104-0.896,2-2,2h-8.75c-1.104,0-2-0.896-2-2v-19.25c0-1.105,0.896-2,2-2h8.75
				c1.104,0,2,0.895,2,2V70.332z"/>
			<path fill="#EBE8C5" d="M313.88,70.332c0,1.104-0.896,2-2,2h-8.75c-1.104,0-2-0.896-2-2v-19.25c0-1.105,0.896-2,2-2h8.75
				c1.104,0,2,0.895,2,2V70.332z"/>
		</g>
		<ellipse fill="#CCCCCC" cx="300.005" cy="53.582" rx="15.366" ry="10.25"/>
		<circle fill="#ED9CC0" cx="297.005" cy="48.082" r="5.75"/>
		<circle fill="#47272D" cx="310.38" cy="37.082" r="5.75"/>
		<circle fill="#FFFFFF" cx="286.63" cy="39.582" r="1.5"/>
		<circle fill="#FFFFFF" cx="309.38" cy="39.582" r="1.5"/>
	</g>
	<g>
		<path d="M552.761,147.668H447.427c-7.248,0-11.244-3.287-13.316-6.045c-3.045-4.041-4.028-9.709-2.565-14.787l9.63-34.779
			c-1.488-5.926-2.562-10.107-3.197-12.434c-0.733-2.695-2.453-9.002,3.18-12.92c2.204-1.535,5.915-3.721,8.479-5.197l6.33-22.863
			c-2.67-0.658-4.841-2.141-6.176-4.275c-3.491-5.59-0.309-13.662,7.241-18.377c1.968-1.23,4.095-2.127,6.24-2.633
			c2.698-5.836,7.317-9.025,13.154-9.025h47.334c6.134,0,10.565,3.014,13.194,8.961c2.235,0.49,4.461,1.408,6.525,2.697
			c3.421,2.137,6.092,5.094,7.521,8.33c1.576,3.572,1.476,7.234-0.281,10.045c-1.382,2.213-3.666,3.723-6.481,4.342l6.346,22.92
			c2.5,1.441,6.109,3.572,8.27,5.076c5.633,3.918,3.913,10.225,3.18,12.918c-0.817,3.002-2.23,8.582-3.114,12.102l9.733,35.143
			l0.033,0.121l0.023,0.123c1.113,5.889-0.045,11.439-3.183,15.225C563.512,144.766,559.659,147.668,552.761,147.668
			L552.761,147.668z"/>
		<g>
			<path fill="#8C6239" d="M453.372,62.832c0,0-7.16,4.01-10.5,6.332c-3.834,2.668-2.744,6.939-2,9.668c1.5,5.5,5,19.666,5,19.666
				L453.372,62.832z"/>
			<path fill="#8C6239" d="M546.638,62.832c0,0,7.16,4.01,10.5,6.332c3.834,2.668,2.744,6.939,2,9.668c-1.5,5.5-5,19.666-5,19.666
				L546.638,62.832z"/>
		</g>
		
			<ellipse transform="matrix(0.5297 -0.8482 0.8482 0.5297 230.6678 467.9062)" fill="#754C24" cx="537.255" cy="25.955" rx="8.75" ry="12.875"/>
		<g>
			
				<ellipse transform="matrix(0.5297 -0.8482 0.8482 0.5297 230.4326 467.4821)" fill="#754C24" cx="536.755" cy="25.955" rx="8.75" ry="12.875"/>
			
				<ellipse transform="matrix(-0.5297 -0.8482 0.8482 -0.5297 686.6157 432.6352)" fill="#754C24" cx="463.255" cy="25.955" rx="8.75" ry="12.875"/>
		</g>
		<path fill="#9C8E84" d="M565.759,127.666c1.5,7.916-1.5,17-13,17H447.427c-11.918,0-14.918-10.334-13-17l30-108.332
			c1.582-7.002,5.372-12,12-12h47.332c6.628,0,10.25,4.248,12,12L565.759,127.666z"/>
		<circle cx="487.63" cy="37.082" r="5.75"/>
		<g>
			<path fill="#EBE8C5" d="M498.88,70.332c0,1.104-0.896,2-2,2h-8.75c-1.104,0-2-0.896-2-2v-19.25c0-1.105,0.896-2,2-2h8.75
				c1.104,0,2,0.895,2,2V70.332z"/>
			<path fill="#EBE8C5" d="M513.88,70.332c0,1.104-0.896,2-2,2h-8.75c-1.104,0-2-0.896-2-2v-19.25c0-1.105,0.896-2,2-2h8.75
				c1.104,0,2,0.895,2,2V70.332z"/>
		</g>
		<ellipse fill="#8C6239" cx="500.005" cy="53.582" rx="15.365" ry="10.25"/>
		<circle cx="497.005" cy="48.082" r="5.75"/>
		<circle cx="510.38" cy="37.082" r="5.75"/>
		<circle fill="#FFFFFF" cx="486.63" cy="39.582" r="1.5"/>
		<circle fill="#FFFFFF" cx="509.38" cy="39.582" r="1.5"/>
	</g>
	<g>
		<path d="M752.761,147.668H647.427c-7.248,0-11.244-3.287-13.316-6.045c-3.045-4.041-4.027-9.709-2.565-14.787l9.63-34.779
			c-1.488-5.926-2.562-10.107-3.197-12.434c-0.733-2.695-2.453-9.002,3.18-12.92c2.204-1.535,5.915-3.721,8.479-5.197l6.33-22.863
			c-2.67-0.658-4.841-2.141-6.176-4.275c-3.491-5.59-0.309-13.662,7.241-18.377c1.968-1.23,4.095-2.127,6.24-2.633
			c2.698-5.836,7.317-9.025,13.154-9.025h47.334c6.134,0,10.565,3.014,13.194,8.961c2.235,0.49,4.461,1.408,6.525,2.697
			c3.421,2.137,6.092,5.094,7.521,8.33c1.576,3.572,1.476,7.234-0.281,10.045c-1.382,2.213-3.666,3.723-6.481,4.342l6.346,22.92
			c2.5,1.441,6.109,3.572,8.27,5.076c5.633,3.918,3.913,10.225,3.18,12.918c-0.817,3.002-2.23,8.582-3.114,12.102l9.733,35.143
			l0.033,0.121l0.023,0.123c1.113,5.889-0.045,11.439-3.183,15.225C763.512,144.766,759.659,147.668,752.761,147.668
			L752.761,147.668z"/>
		<g>
			<path fill="#666666" d="M653.372,62.832c0,0-7.16,4.01-10.5,6.332c-3.834,2.668-2.744,6.939-2,9.668c1.5,5.5,5,19.666,5,19.666
				L653.372,62.832z"/>
			<path fill="#666666" d="M746.638,62.832c0,0,7.16,4.01,10.5,6.332c3.834,2.668,2.744,6.939,2,9.668c-1.5,5.5-5,19.666-5,19.666
				L746.638,62.832z"/>
		</g>
		
			<ellipse transform="matrix(0.5297 -0.8482 0.8482 0.5297 324.7322 637.546)" fill="#754C24" cx="737.255" cy="25.955" rx="8.75" ry="12.875"/>
		<g>
			
				<ellipse transform="matrix(0.5297 -0.8482 0.8482 0.5297 324.497 637.1219)" fill="#808080" cx="736.755" cy="25.955" rx="8.75" ry="12.875"/>
			
				<ellipse transform="matrix(-0.5297 -0.8482 0.8482 -0.5297 992.5513 602.2749)" fill="#808080" cx="663.255" cy="25.955" rx="8.75" ry="12.875"/>
		</g>
		<path fill="#3F3333" d="M765.759,127.666c1.5,7.916-1.5,17-13,17H647.427c-11.918,0-14.918-10.334-13-17l30-108.332
			c1.582-7.002,5.372-12,12-12h47.332c6.628,0,10.25,4.248,12,12L765.759,127.666z"/>
		<circle cx="687.63" cy="37.082" r="5.75"/>
		<g>
			<path fill="#EBE8C5" d="M698.88,70.332c0,1.104-0.896,2-2,2h-8.75c-1.104,0-2-0.896-2-2v-19.25c0-1.105,0.896-2,2-2h8.75
				c1.104,0,2,0.895,2,2V70.332z"/>
			<path fill="#EBE8C5" d="M713.88,70.332c0,1.104-0.896,2-2,2h-8.75c-1.104,0-2-0.896-2-2v-19.25c0-1.105,0.896-2,2-2h8.75
				c1.104,0,2,0.895,2,2V70.332z"/>
		</g>
		<ellipse fill="#808080" cx="700.005" cy="53.582" rx="15.365" ry="10.25"/>
		<circle cx="697.005" cy="48.082" r="5.75"/>
		<circle cx="710.38" cy="37.082" r="5.75"/>
		<circle fill="#FFFFFF" cx="686.63" cy="39.582" r="1.5"/>
		<circle fill="#FFFFFF" cx="709.38" cy="39.582" r="1.5"/>
	</g>
	<g>
	</g>
	<g>
	</g>
	<g>
	</g>
	<g>
	</g>
	<g>
	</g>
	<g>
	</g>
	<g>
	</g>
	<g>
	</g>
	<g>
	</g>
	<g>
	</g>
	<g>
	</g>
	<g>
	</g>
	<g>
	</g>
	<g>
	</g>
	<g>
	</g>
</g>
</svg>
