<svg version="1" xmlns="http://www.w3.org/2000/svg" width="800" height="152"><path d="M152.76 147.668h-105.333c-7.248 0-11.244-3.287-13.316-6.045-3.045-4.041-4.028-9.709-2.565-14.787l9.629-34.779c-1.487-5.926-2.561-10.107-3.197-12.434-.732-2.695-2.453-9.002 3.181-12.92 2.204-1.535 5.915-3.721 8.478-5.197l6.331-22.863c-2.671-.658-4.841-2.141-6.177-4.275-3.49-5.59-.309-13.662 7.242-18.377 1.967-1.23 4.095-2.127 6.24-2.633 2.698-5.836 7.317-9.025 13.154-9.025h47.334c6.134 0 10.565 3.014 13.194 8.961 2.235.49 4.46 1.408 6.525 2.697 3.421 2.137 6.092 5.094 7.521 8.33 1.576 3.572 1.475 7.234-.281 10.045-1.382 2.213-3.666 3.723-6.481 4.342l6.346 22.92c2.5 1.441 6.109 3.572 8.269 5.076 5.634 3.918 3.914 10.225 3.181 12.918-.817 3.002-2.231 8.582-3.114 12.102l9.732 35.143.034.121.023.123c1.113 5.889-.045 11.439-3.183 15.225-2.015 2.43-5.868 5.332-12.767 5.332z"/><g fill="#8C6239"><path d="M53.372 62.832s-7.16 4.01-10.5 6.332c-3.834 2.668-2.744 6.939-2 9.668 1.5 5.5 5 19.666 5 19.666l7.5-35.666z"/><path d="M146.638 62.832s7.16 4.01 10.5 6.332c3.833 2.668 2.744 6.939 2 9.668-1.5 5.5-5 19.666-5 19.666l-7.5-35.666z"/></g><g fill="#754C24"><ellipse transform="matrix(.53 -.848 .848 .53 42.299 128.198)" cx="136.754" cy="25.955" rx="8.75" ry="12.875"/><ellipse transform="matrix(-.53 -.848 .848 -.53 74.747 93.355)" cx="63.254" cy="25.955" rx="8.75" ry="12.875"/></g><path fill="#603813" d="M165.759 127.666c1.5 7.916-1.5 17-13 17h-105.333c-11.917 0-14.917-10.334-13-17l30-108.332c1.583-7.002 5.373-12 12-12h47.333c6.628 0 10.25 4.248 12 12l30 108.332z"/><g fill="#EBE8C5"><path d="M98.88 70.332c0 1.104-.896 2-2 2h-8.75c-1.104 0-2-.896-2-2v-19.25c0-1.105.896-2 2-2h8.75c1.104 0 2 .895 2 2v19.25z"/><path d="M113.88 70.332c0 1.104-.896 2-2 2h-8.75c-1.104 0-2-.896-2-2v-19.25c0-1.105.896-2 2-2h8.75c1.104 0 2 .895 2 2v19.25z"/></g><ellipse fill="#8C6239" cx="100.004" cy="53.582" rx="15.366" ry="10.25"/><circle cx="97.004" cy="48.082" r="5.75"/><circle cx="111.38" cy="37.082" r="5.75"/><circle cx="88.63" cy="37.082" r="5.75"/><circle fill="#fff" cx="112.38" cy="39.582" r="1.5"/><circle fill="#fff" cx="89.63" cy="39.582" r="1.5"/><path d="M352.76 147.668h-105.333c-7.248 0-11.244-3.287-13.317-6.045-3.045-4.041-4.028-9.709-2.565-14.787l9.629-34.779c-1.487-5.926-2.561-10.107-3.197-12.434-.733-2.695-2.453-9.002 3.181-12.92 2.204-1.535 5.915-3.721 8.478-5.197l6.331-22.863c-2.671-.658-4.841-2.141-6.177-4.275-3.491-5.59-.309-13.662 7.242-18.377 1.967-1.23 4.095-2.127 6.24-2.633 2.698-5.836 7.318-9.025 13.154-9.025h47.334c6.134 0 10.565 3.014 13.194 8.961 2.235.49 4.46 1.408 6.525 2.697 3.421 2.137 6.092 5.094 7.521 8.33 1.576 3.572 1.475 7.234-.281 10.045-1.382 2.213-3.666 3.723-6.481 4.342l6.346 22.92c2.5 1.441 6.109 3.572 8.269 5.076 5.634 3.918 3.914 10.225 3.181 12.918-.818 3.002-2.231 8.582-3.115 12.102l9.733 35.143.034.121.023.123c1.113 5.889-.044 11.439-3.183 15.225-2.014 2.43-5.866 5.332-12.766 5.332z"/><g fill="#ccc"><path d="M253.372 62.832s-7.16 4.01-10.5 6.332c-3.833 2.668-2.744 6.939-2 9.668 1.5 5.5 5 19.666 5 19.666l7.5-35.666z"/><path d="M346.638 62.832s7.16 4.01 10.5 6.332c3.833 2.668 2.744 6.939 2 9.668-1.5 5.5-5 19.666-5 19.666l-7.5-35.666z"/></g><g fill="#E6E6E6"><ellipse transform="matrix(.53 -.848 .848 .53 136.362 297.837)" cx="336.755" cy="25.955" rx="8.75" ry="12.875"/><ellipse transform="matrix(-.53 -.848 .848 -.53 380.685 262.992)" cx="263.255" cy="25.955" rx="8.75" ry="12.875"/></g><path fill="#F2F2F2" d="M365.759 127.666c1.5 7.916-1.5 17-13 17h-105.333c-11.917 0-14.917-10.334-13-17l30-108.332c1.583-7.002 5.373-12 12-12h47.333c6.627 0 10.25 4.248 12 12l30 108.332z"/><g fill="#EBE8C5"><path d="M298.88 70.332c0 1.104-.896 2-2 2h-8.75c-1.104 0-2-.896-2-2v-19.25c0-1.105.896-2 2-2h8.75c1.104 0 2 .895 2 2v19.25z"/><path d="M313.88 70.332c0 1.104-.896 2-2 2h-8.75c-1.104 0-2-.896-2-2v-19.25c0-1.105.896-2 2-2h8.75c1.104 0 2 .895 2 2v19.25z"/></g><ellipse fill="#ccc" cx="300.005" cy="53.582" rx="15.366" ry="10.25"/><circle fill="#ED9CC0" cx="300.005" cy="48.082" r="5.75"/><circle fill="#47272D" cx="311.38" cy="37.082" r="5.75"/><circle fill="#47272D" cx="288.63" cy="37.082" r="5.75"/><circle fill="#fff" cx="312.38" cy="39.582" r="1.5"/><circle fill="#fff" cx="289.63" cy="39.582" r="1.5"/><path d="M552.761 147.668h-105.334c-7.248 0-11.244-3.287-13.316-6.045-3.045-4.041-4.028-9.709-2.565-14.787l9.63-34.779c-1.488-5.926-2.562-10.107-3.197-12.434-.733-2.695-2.453-9.002 3.18-12.92 2.204-1.535 5.915-3.721 8.479-5.197l6.33-22.863c-2.67-.658-4.841-2.141-6.176-4.275-3.491-5.59-.309-13.662 7.241-18.377 1.968-1.23 4.095-2.127 6.24-2.633 2.698-5.836 7.317-9.025 13.154-9.025h47.334c6.134 0 10.565 3.014 13.194 8.961 2.235.49 4.461 1.408 6.525 2.697 3.421 2.137 6.092 5.094 7.521 8.33 1.576 3.572 1.476 7.234-.281 10.045-1.382 2.213-3.666 3.723-6.481 4.342l6.346 22.92c2.5 1.441 6.109 3.572 8.27 5.076 5.633 3.918 3.913 10.225 3.18 12.918-.817 3.002-2.23 8.582-3.114 12.102l9.733 35.143.033.121.023.123c1.113 5.889-.045 11.439-3.183 15.225-2.015 2.43-5.868 5.332-12.766 5.332z"/><g fill="#8C6239"><path d="M453.372 62.832s-7.16 4.01-10.5 6.332c-3.834 2.668-2.744 6.939-2 9.668 1.5 5.5 5 19.666 5 19.666l7.5-35.666z"/><path d="M546.638 62.832s7.16 4.01 10.5 6.332c3.834 2.668 2.744 6.939 2 9.668-1.5 5.5-5 19.666-5 19.666l-7.5-35.666z"/></g><g fill="#754C24"><ellipse transform="matrix(.53 -.848 .848 .53 230.433 467.482)" cx="536.755" cy="25.955" rx="8.75" ry="12.875"/><ellipse transform="matrix(-.53 -.848 .848 -.53 686.616 432.635)" cx="463.255" cy="25.955" rx="8.75" ry="12.875"/></g><path fill="#9C8E84" d="M565.759 127.666c1.5 7.916-1.5 17-13 17h-105.332c-11.918 0-14.918-10.334-13-17l30-108.332c1.582-7.002 5.372-12 12-12h47.332c6.628 0 10.25 4.248 12 12l30 108.332z"/><g fill="#EBE8C5"><path d="M498.88 70.332c0 1.104-.896 2-2 2h-8.75c-1.104 0-2-.896-2-2v-19.25c0-1.105.896-2 2-2h8.75c1.104 0 2 .895 2 2v19.25z"/><path d="M513.88 70.332c0 1.104-.896 2-2 2h-8.75c-1.104 0-2-.896-2-2v-19.25c0-1.105.896-2 2-2h8.75c1.104 0 2 .895 2 2v19.25z"/></g><ellipse fill="#8C6239" cx="500.005" cy="53.582" rx="15.365" ry="10.25"/><circle cx="503.005" cy="48.082" r="5.75"/><circle cx="511.38" cy="37.082" r="5.75"/><circle cx="488.63" cy="37.082" r="5.75"/><circle fill="#fff" cx="512.38" cy="39.582" r="1.5"/><circle fill="#fff" cx="489.63" cy="39.582" r="1.5"/><path d="M752.761 147.668h-105.334c-7.248 0-11.244-3.287-13.316-6.045-3.045-4.041-4.027-9.709-2.565-14.787l9.63-34.779c-1.488-5.926-2.562-10.107-3.197-12.434-.733-2.695-2.453-9.002 3.18-12.92 2.204-1.535 5.915-3.721 8.479-5.197l6.33-22.863c-2.67-.658-4.841-2.141-6.176-4.275-3.491-5.59-.309-13.662 7.241-18.377 1.968-1.23 4.095-2.127 6.24-2.633 2.698-5.836 7.317-9.025 13.154-9.025h47.334c6.134 0 10.565 3.014 13.194 8.961 2.235.49 4.461 1.408 6.525 2.697 3.421 2.137 6.092 5.094 7.521 8.33 1.576 3.572 1.476 7.234-.281 10.045-1.382 2.213-3.666 3.723-6.481 4.342l6.346 22.92c2.5 1.441 6.109 3.572 8.27 5.076 5.633 3.918 3.913 10.225 3.18 12.918-.817 3.002-2.23 8.582-3.114 12.102l9.733 35.143.033.121.023.123c1.113 5.889-.045 11.439-3.183 15.225-2.015 2.43-5.868 5.332-12.766 5.332z"/><g fill="#666"><path d="M653.372 62.832s-7.16 4.01-10.5 6.332c-3.834 2.668-2.744 6.939-2 9.668 1.5 5.5 5 19.666 5 19.666l7.5-35.666z"/><path d="M746.638 62.832s7.16 4.01 10.5 6.332c3.834 2.668 2.744 6.939 2 9.668-1.5 5.5-5 19.666-5 19.666l-7.5-35.666z"/></g><g fill="#808080"><ellipse transform="matrix(.53 -.848 .848 .53 324.497 637.122)" cx="736.755" cy="25.955" rx="8.75" ry="12.875"/><ellipse transform="matrix(-.53 -.848 .848 -.53 992.551 602.275)" cx="663.255" cy="25.955" rx="8.75" ry="12.875"/></g><path fill="#3F3333" d="M765.759 127.666c1.5 7.916-1.5 17-13 17h-105.332c-11.918 0-14.918-10.334-13-17l30-108.332c1.582-7.002 5.372-12 12-12h47.332c6.628 0 10.25 4.248 12 12l30 108.332z"/><g fill="#EBE8C5"><path d="M698.88 70.332c0 1.104-.896 2-2 2h-8.75c-1.104 0-2-.896-2-2v-19.25c0-1.105.896-2 2-2h8.75c1.104 0 2 .895 2 2v19.25z"/><path d="M713.88 70.332c0 1.104-.896 2-2 2h-8.75c-1.104 0-2-.896-2-2v-19.25c0-1.105.896-2 2-2h8.75c1.104 0 2 .895 2 2v19.25z"/></g><ellipse fill="#808080" cx="700.005" cy="53.582" rx="15.365" ry="10.25"/><circle cx="699.005" cy="48.082" r="5.75"/><circle cx="711.38" cy="37.082" r="5.75"/><circle cx="688.63" cy="37.082" r="5.75"/><circle fill="#fff" cx="712.38" cy="39.582" r="1.5"/><circle fill="#fff" cx="689.63" cy="39.582" r="1.5"/></svg>