<?xml version="1.0" encoding="utf-8"?>
<!-- Generator: Adobe Illustrator 16.0.3, SVG Export Plug-In . SVG Version: 6.00 Build 0)  -->
<!DOCTYPE svg PUBLIC "-//W3C//DTD SVG 1.0//EN" "http://www.w3.org/TR/2001/REC-SVG-20010904/DTD/svg10.dtd">
<svg version="1.0" xmlns="http://www.w3.org/2000/svg" xmlns:xlink="http://www.w3.org/1999/xlink" x="0px" y="0px" width="800px"
	 height="608px" viewBox="0 -228 800 608" enable-background="new 0 -228 800 608" xml:space="preserve">
<g id="Layer_2_1_" display="none">
	<rect x="-0.5" y="-75.5" display="inline" fill="#2E81FF" width="200" height="152"/>
	<rect x="-0.5" y="76.5" display="inline" fill="#2E81FF" width="200" height="152"/>
	<rect x="-0.5" y="228.5" display="inline" fill="#2E81FF" width="200" height="152"/>
	<rect x="199.5" y="-75.5" display="inline" fill="#00A27B" width="200" height="152"/>
	<rect x="399.5" y="-75.5" display="inline" fill="#FF45B2" width="200" height="152"/>
	<rect x="599.5" y="-75.5" display="inline" fill="#E7DB00" width="200" height="152"/>
	<rect x="-0.5" y="-227.5" display="inline" fill="#2E81FF" width="200" height="152"/>
	<rect x="199.5" y="-227.5" display="inline" fill="#00A27B" width="200" height="152"/>
	<rect x="399.5" y="-227.5" display="inline" fill="#FF45B2" width="200" height="152"/>
	<rect x="599.5" y="-227.5" display="inline" fill="#E7DB00" width="200" height="152"/>
	<rect x="199.5" y="76.5" display="inline" fill="#00A27B" width="200" height="152"/>
	<rect x="399.5" y="76.5" display="inline" fill="#FF45B2" width="200" height="152"/>
	<rect x="599.5" y="76.5" display="inline" fill="#E7DB00" width="200" height="152"/>
	<rect x="199.5" y="228.5" display="inline" fill="#00A27B" width="200" height="152"/>
	<rect x="399.5" y="228.5" display="inline" fill="#FF45B2" width="200" height="152"/>
	<rect x="599.5" y="228.5" display="inline" fill="#E7DB00" width="200" height="152"/>
</g>
<g id="Layer_1">
	<g id="Layer_2" display="none">
		<rect x="200" display="inline" fill="#00A27B" width="200" height="152"/>
		<rect x="400" display="inline" fill="#FF45B2" width="200" height="152"/>
		<rect x="600" display="inline" fill="#E7DB00" width="200" height="152"/>
		<rect display="inline" fill="#2E81FF" width="200" height="152"/>
	</g>
	<g id="Layer_1_1_">
		<g>
			<path d="M152.76-79.833H47.427c-7.248,0-11.244-3.287-13.316-6.045c-3.045-4.041-4.028-9.709-2.565-14.787l9.629-34.779
				c-1.487-5.926-2.561-10.106-3.197-12.434c-0.732-2.695-2.453-9.002,3.181-12.92c2.204-1.535,5.915-3.721,8.478-5.197
				l6.331-22.863c-2.671-0.658-4.841-2.141-6.177-4.275c-3.49-5.59-0.309-13.662,7.242-18.377c1.967-1.23,4.095-2.127,6.24-2.633
				c2.698-5.836,7.317-9.025,13.154-9.025h47.334c6.134,0,10.565,3.014,13.194,8.961c2.235,0.49,4.46,1.408,6.525,2.697
				c3.421,2.137,6.092,5.094,7.521,8.33c1.576,3.572,1.475,7.234-0.281,10.045c-1.382,2.213-3.666,3.723-6.481,4.342l6.346,22.92
				c2.5,1.441,6.109,3.572,8.269,5.076c5.634,3.918,3.914,10.226,3.181,12.918c-0.817,3.002-2.231,8.582-3.114,12.103l9.732,35.143
				l0.034,0.121l0.023,0.123c1.113,5.889-0.045,11.438-3.183,15.225C163.512-82.735,159.659-79.833,152.76-79.833L152.76-79.833z"/>
			<g>
				<path fill="#8C6239" d="M53.372-164.668c0,0-7.16,4.01-10.5,6.332c-3.834,2.668-2.744,6.939-2,9.668c1.5,5.5,5,19.666,5,19.666
					L53.372-164.668z"/>
				<path fill="#8C6239" d="M146.638-164.668c0,0,7.16,4.01,10.5,6.332c3.833,2.668,2.744,6.939,2,9.668c-1.5,5.5-5,19.666-5,19.666
					L146.638-164.668z"/>
			</g>
			<g>
				
					<ellipse transform="matrix(-0.8482 -0.5297 0.5297 -0.8482 359.5025 -300.0662)" fill="#754C24" cx="136.752" cy="-201.549" rx="12.875" ry="8.75"/>
				
					<ellipse transform="matrix(-0.8482 0.5297 -0.5297 -0.8482 10.1482 -406.0009)" fill="#754C24" cx="63.256" cy="-201.546" rx="12.875" ry="8.75"/>
			</g>
			<path fill="#603813" d="M165.759-99.834c1.5,7.916-1.5,17-13,17H47.426c-11.917,0-14.917-10.334-13-17l30-108.332
				c1.583-7.002,5.373-12,12-12h47.333c6.628,0,10.25,4.248,12,12L165.759-99.834z"/>
			<g>
				<path fill="#EBE8C5" d="M98.88-157.168c0,1.104-0.896,2-2,2h-8.75c-1.104,0-2-0.896-2-2v-19.25c0-1.105,0.896-2,2-2h8.75
					c1.104,0,2,0.895,2,2V-157.168z"/>
				<path fill="#EBE8C5" d="M113.88-157.168c0,1.104-0.896,2-2,2h-8.75c-1.104,0-2-0.896-2-2v-19.25c0-1.105,0.896-2,2-2h8.75
					c1.104,0,2,0.895,2,2V-157.168z"/>
			</g>
			<ellipse fill="#8C6239" cx="100.004" cy="-173.918" rx="15.366" ry="10.25"/>
			<circle cx="97.005" cy="-179.418" r="5.75"/>
			<g>
				<circle cx="111.38" cy="-190.418" r="5.75"/>
				<circle cx="88.63" cy="-190.418" r="5.75"/>
				<circle fill="#FFFFFF" cx="112.38" cy="-187.918" r="1.5"/>
				<circle fill="#FFFFFF" cx="89.63" cy="-187.918" r="1.5"/>
			</g>
		</g>
		<g>
			<path d="M352.76-79.833H247.427c-7.248,0-11.244-3.287-13.317-6.045c-3.045-4.041-4.028-9.709-2.565-14.787l9.629-34.779
				c-1.487-5.926-2.561-10.106-3.197-12.434c-0.733-2.695-2.453-9.002,3.181-12.92c2.204-1.535,5.915-3.721,8.478-5.197
				l6.331-22.863c-2.671-0.658-4.841-2.141-6.177-4.275c-3.491-5.59-0.309-13.662,7.242-18.377c1.967-1.23,4.095-2.127,6.24-2.633
				c2.698-5.836,7.318-9.025,13.154-9.025h47.334c6.134,0,10.565,3.014,13.194,8.961c2.235,0.49,4.46,1.408,6.525,2.697
				c3.421,2.137,6.092,5.094,7.521,8.33c1.576,3.572,1.475,7.234-0.281,10.045c-1.382,2.213-3.666,3.723-6.481,4.342l6.346,22.92
				c2.5,1.441,6.109,3.572,8.269,5.076c5.634,3.918,3.914,10.226,3.181,12.918c-0.818,3.002-2.231,8.582-3.115,12.103l9.733,35.143
				l0.034,0.121l0.023,0.123c1.113,5.889-0.044,11.438-3.183,15.225C363.512-82.735,359.66-79.833,352.76-79.833L352.76-79.833z"/>
			<g>
				<path fill="#CCCCCC" d="M253.372-164.668c0,0-7.16,4.01-10.5,6.332c-3.833,2.668-2.744,6.939-2,9.668c1.5,5.5,5,19.666,5,19.666
					L253.372-164.668z"/>
				<path fill="#CCCCCC" d="M346.638-164.668c0,0,7.16,4.01,10.5,6.332c3.833,2.668,2.744,6.939,2,9.668c-1.5,5.5-5,19.666-5,19.666
					L346.638-164.668z"/>
			</g>
			<g>
				
					<ellipse transform="matrix(-0.8482 -0.5297 0.5297 -0.8482 729.148 -194.1288)" fill="#E6E6E6" cx="336.756" cy="-201.55" rx="12.875" ry="8.75"/>
				
					<ellipse transform="matrix(-0.8482 0.5297 -0.5297 -0.8482 379.7865 -511.9444)" fill="#E6E6E6" cx="263.254" cy="-201.549" rx="12.875" ry="8.75"/>
			</g>
			<path fill="#F2F2F2" d="M365.759-99.834c1.5,7.916-1.5,17-13,17H247.426c-11.917,0-14.917-10.334-13-17l30-108.332
				c1.583-7.002,5.373-12,12-12h47.333c6.627,0,10.25,4.248,12,12L365.759-99.834z"/>
			<g>
				<path fill="#EBE8C5" d="M298.88-157.168c0,1.104-0.896,2-2,2h-8.75c-1.104,0-2-0.896-2-2v-19.25c0-1.105,0.896-2,2-2h8.75
					c1.104,0,2,0.895,2,2V-157.168z"/>
				<path fill="#EBE8C5" d="M313.88-157.168c0,1.104-0.896,2-2,2h-8.75c-1.104,0-2-0.896-2-2v-19.25c0-1.105,0.896-2,2-2h8.75
					c1.104,0,2,0.895,2,2V-157.168z"/>
			</g>
			<ellipse fill="#CCCCCC" cx="300.005" cy="-173.918" rx="15.366" ry="10.25"/>
			<circle fill="#ED9CC0" cx="297.005" cy="-179.418" r="5.75"/>
			<g>
				<circle fill="#47272D" cx="311.38" cy="-190.418" r="5.75"/>
				<circle fill="#47272D" cx="288.63" cy="-190.418" r="5.75"/>
				<circle fill="#FFFFFF" cx="312.38" cy="-187.918" r="1.5"/>
				<circle fill="#FFFFFF" cx="289.63" cy="-187.918" r="1.5"/>
			</g>
		</g>
		<g>
			<path d="M552.761-79.833H447.427c-7.248,0-11.244-3.287-13.315-6.045c-3.045-4.041-4.028-9.709-2.565-14.787l9.63-34.779
				c-1.488-5.926-2.562-10.106-3.197-12.434c-0.732-2.695-2.452-9.002,3.181-12.92c2.204-1.535,5.915-3.721,8.479-5.197l6.33-22.863
				c-2.67-0.658-4.841-2.141-6.176-4.275c-3.491-5.59-0.309-13.662,7.241-18.377c1.968-1.23,4.095-2.127,6.24-2.633
				c2.697-5.836,7.316-9.025,13.153-9.025h47.334c6.134,0,10.565,3.014,13.194,8.961c2.234,0.49,4.461,1.408,6.525,2.697
				c3.421,2.137,6.092,5.094,7.521,8.33c1.576,3.572,1.476,7.234-0.281,10.045c-1.382,2.213-3.666,3.723-6.48,4.342l6.346,22.92
				c2.5,1.441,6.109,3.572,8.271,5.076c5.633,3.918,3.912,10.226,3.18,12.918c-0.817,3.002-2.23,8.582-3.114,12.103l9.733,35.143
				l0.032,0.121l0.023,0.123c1.113,5.889-0.045,11.438-3.183,15.225C563.512-82.735,559.659-79.833,552.761-79.833L552.761-79.833z"
				/>
			<g>
				<path fill="#8C6239" d="M453.372-164.668c0,0-7.16,4.01-10.5,6.332c-3.834,2.668-2.744,6.939-2,9.668c1.5,5.5,5,19.666,5,19.666
					L453.372-164.668z"/>
				<path fill="#8C6239" d="M546.638-164.668c0,0,7.16,4.01,10.5,6.332c3.834,2.668,2.744,6.939,2,9.668c-1.5,5.5-5,19.666-5,19.666
					L546.638-164.668z"/>
			</g>
			<g>
				
					<ellipse transform="matrix(-0.8482 -0.5297 0.5297 -0.8482 1098.8037 -88.1736)" fill="#754C24" cx="536.767" cy="-201.546" rx="12.876" ry="8.75"/>
				
					<ellipse transform="matrix(-0.8482 0.5297 -0.5297 -0.8482 749.398 -617.8793)" fill="#754C24" cx="463.245" cy="-201.547" rx="12.875" ry="8.75"/>
			</g>
			<path fill="#9C8E84" d="M565.759-99.834c1.5,7.916-1.5,17-13,17H447.427c-11.918,0-14.918-10.334-13-17l30-108.332
				c1.582-7.002,5.372-12,12-12h47.332c6.628,0,10.25,4.248,12,12L565.759-99.834z"/>
			<g>
				<path fill="#EBE8C5" d="M498.88-157.168c0,1.104-0.896,2-2,2h-8.75c-1.104,0-2-0.896-2-2v-19.25c0-1.105,0.896-2,2-2h8.75
					c1.104,0,2,0.895,2,2V-157.168z"/>
				<path fill="#EBE8C5" d="M513.88-157.168c0,1.104-0.896,2-2,2h-8.75c-1.104,0-2-0.896-2-2v-19.25c0-1.105,0.896-2,2-2h8.75
					c1.104,0,2,0.895,2,2V-157.168z"/>
			</g>
			<ellipse fill="#8C6239" cx="500.005" cy="-173.918" rx="15.365" ry="10.25"/>
			<circle cx="497.005" cy="-179.418" r="5.75"/>
			<g>
				<circle cx="511.38" cy="-190.418" r="5.75"/>
				<circle cx="488.63" cy="-190.418" r="5.75"/>
				<circle fill="#FFFFFF" cx="512.38" cy="-187.918" r="1.5"/>
				<circle fill="#FFFFFF" cx="489.63" cy="-187.918" r="1.5"/>
			</g>
		</g>
		<g>
			<path d="M752.761-79.833H647.427c-7.248,0-11.244-3.287-13.315-6.045c-3.045-4.041-4.027-9.709-2.565-14.787l9.63-34.779
				c-1.487-5.926-2.562-10.106-3.197-12.434c-0.732-2.695-2.452-9.002,3.181-12.92c2.204-1.535,5.915-3.721,8.479-5.197l6.33-22.863
				c-2.67-0.658-4.841-2.141-6.176-4.275c-3.491-5.59-0.309-13.662,7.241-18.377c1.968-1.23,4.095-2.127,6.24-2.633
				c2.697-5.836,7.316-9.025,13.153-9.025h47.334c6.134,0,10.565,3.014,13.194,8.961c2.234,0.49,4.461,1.408,6.525,2.697
				c3.421,2.137,6.092,5.094,7.521,8.33c1.576,3.572,1.476,7.234-0.281,10.045c-1.382,2.213-3.666,3.723-6.48,4.342l6.346,22.92
				c2.5,1.441,6.109,3.572,8.271,5.076c5.633,3.918,3.912,10.226,3.18,12.918c-0.817,3.002-2.23,8.582-3.114,12.103l9.733,35.143
				l0.032,0.121l0.023,0.123c1.113,5.889-0.045,11.438-3.183,15.225C763.512-82.735,759.659-79.833,752.761-79.833L752.761-79.833z"
				/>
			<g>
				<path fill="#666666" d="M653.372-164.668c0,0-7.16,4.01-10.5,6.332c-3.834,2.668-2.744,6.939-2,9.668c1.5,5.5,5,19.666,5,19.666
					L653.372-164.668z"/>
				<path fill="#666666" d="M746.638-164.668c0,0,7.16,4.01,10.5,6.332c3.834,2.668,2.744,6.939,2,9.668c-1.5,5.5-5,19.666-5,19.666
					L746.638-164.668z"/>
			</g>
			<g>
				
					<ellipse transform="matrix(-0.8482 -0.5297 0.5297 -0.8482 1468.4492 17.7696)" fill="#808080" cx="736.771" cy="-201.546" rx="12.875" ry="8.75"/>
				
					<ellipse transform="matrix(-0.8482 0.5297 -0.5297 -0.8482 1119.0444 -723.8027)" fill="#808080" cx="663.24" cy="-201.547" rx="12.875" ry="8.75"/>
			</g>
			<path fill="#3F3333" d="M765.759-99.834c1.5,7.916-1.5,17-13,17H647.427c-11.918,0-14.918-10.334-13-17l30-108.332
				c1.582-7.002,5.372-12,12-12h47.332c6.628,0,10.25,4.248,12,12L765.759-99.834z"/>
			<g>
				<path fill="#EBE8C5" d="M698.88-157.168c0,1.104-0.896,2-2,2h-8.75c-1.104,0-2-0.896-2-2v-19.25c0-1.105,0.896-2,2-2h8.75
					c1.104,0,2,0.895,2,2V-157.168z"/>
				<path fill="#EBE8C5" d="M713.88-157.168c0,1.104-0.896,2-2,2h-8.75c-1.104,0-2-0.896-2-2v-19.25c0-1.105,0.896-2,2-2h8.75
					c1.104,0,2,0.895,2,2V-157.168z"/>
			</g>
			<ellipse fill="#808080" cx="700.005" cy="-173.918" rx="15.365" ry="10.25"/>
			<circle cx="697.005" cy="-179.418" r="5.75"/>
			<g>
				<circle cx="711.38" cy="-190.418" r="5.75"/>
				<circle cx="688.63" cy="-190.418" r="5.75"/>
				<circle fill="#FFFFFF" cx="712.38" cy="-187.918" r="1.5"/>
				<circle fill="#FFFFFF" cx="689.63" cy="-187.918" r="1.5"/>
			</g>
		</g>
	</g>
	<g>
		<path d="M753.26,71.166H647.926c-7.246,0-11.24-3.285-13.314-6.041c-3.045-4.043-4.029-9.71-2.568-14.787l25.592-92.411
			c-0.732-0.493-1.438-1.033-2.105-1.616c-6.709-5.857-8.566-14.332-4.232-19.295c1.85-2.119,4.629-3.286,7.822-3.286
			c1.865,0,3.801,0.386,5.717,1.126c2.771-4.554,6.979-7.021,12.09-7.021h47.334c5.395,0,9.475,2.325,12.166,6.925
			c1.832-0.679,3.682-1.031,5.459-1.031c3.197,0,5.975,1.169,7.826,3.288c2.18,2.495,2.861,6.093,1.873,9.873
			c-0.895,3.42-3.062,6.767-6.102,9.419c-0.623,0.545-1.277,1.052-1.959,1.52l25.627,92.539l0.035,0.12l0.021,0.121
			c1.115,5.89-0.045,11.439-3.18,15.225C764.01,68.264,760.16,71.166,753.26,71.166L753.26,71.166z"/>
		<g>
			
				<ellipse transform="matrix(0.6577 -0.7533 0.7533 0.6577 266.5961 481.6196)" fill="#808080" cx="663.255" cy="-52.543" rx="8.75" ry="12.875"/>
			
				<ellipse transform="matrix(-0.6577 -0.7533 0.7533 -0.6577 1262.571 468.6202)" fill="#808080" cx="737.755" cy="-52.543" rx="8.75" ry="12.875"/>
		</g>
		<path fill="#3F3333" d="M766.26,51.166c1.5,7.916-1.5,17-13,17H647.926c-11.916,0-14.916-10.334-13-17l30-108.333
			c1.584-7.001,5.373-12,12-12h47.334c6.627,0,10.25,4.249,12,12L766.26,51.166z"/>
		<circle cx="689.131" cy="-43.418" r="5.75"/>
		<g>
			<path fill="#EBE8C5" d="M699.381-9.168c0,1.104-0.896,2-2,2h-8.75c-1.105,0-2-0.896-2-2v-19.25c0-1.104,0.895-2,2-2h8.75
				c1.104,0,2,0.896,2,2V-9.168z"/>
			<path fill="#EBE8C5" d="M714.381-9.168c0,1.104-0.896,2-2,2h-8.75c-1.105,0-2-0.896-2-2v-19.25c0-1.104,0.895-2,2-2h8.75
				c1.104,0,2,0.896,2,2V-9.168z"/>
		</g>
		<ellipse fill="#808080" cx="700.505" cy="-25.918" rx="15.366" ry="10.25"/>
		<circle cx="700.506" cy="-32.418" r="5.75"/>
		<circle cx="711.881" cy="-43.418" r="5.75"/>
		<circle fill="#FFFFFF" cx="689.131" cy="-46.918" r="1.5"/>
		<circle fill="#FFFFFF" cx="711.881" cy="-46.918" r="1.5"/>
		<g>
			<polygon fill="#666666" points="646.889,7.971 661.51,19.498 667.176,17.165 652.438,-12.068 			"/>
			<circle fill="#666666" cx="660.76" cy="21.082" r="3.375"/>
			<circle fill="#666666" cx="666.26" cy="19.832" r="3.375"/>
			<circle fill="#666666" cx="667.26" cy="15.582" r="3.375"/>
		</g>
		<g>
			<polygon fill="#666666" points="754.322,7.971 739.701,19.498 734.035,17.165 748.771,-12.068 			"/>
			<circle fill="#666666" cx="740.451" cy="21.082" r="3.375"/>
			<circle fill="#666666" cx="734.951" cy="19.832" r="3.375"/>
			<circle fill="#666666" cx="733.951" cy="15.582" r="3.375"/>
		</g>
	</g>
	<g>
		<path d="M553.26,71.166H447.926c-7.246,0-11.24-3.285-13.314-6.041c-3.045-4.043-4.029-9.71-2.568-14.787l25.592-92.411
			c-0.732-0.493-1.438-1.033-2.105-1.616c-6.709-5.857-8.566-14.332-4.232-19.295c1.85-2.119,4.629-3.286,7.822-3.286
			c1.865,0,3.801,0.386,5.717,1.126c2.771-4.554,6.979-7.021,12.09-7.021h47.334c5.395,0,9.475,2.325,12.166,6.925
			c1.832-0.679,3.682-1.031,5.459-1.031c3.197,0,5.975,1.169,7.826,3.288c2.18,2.495,2.861,6.093,1.873,9.873
			c-0.895,3.42-3.062,6.767-6.102,9.419c-0.623,0.545-1.277,1.052-1.959,1.52l25.627,92.539l0.035,0.12l0.021,0.121
			c1.115,5.89-0.045,11.439-3.18,15.225C564.01,68.264,560.16,71.166,553.26,71.166L553.26,71.166z"/>
		<g>
			
				<ellipse transform="matrix(0.6577 -0.7533 0.7533 0.6577 198.1405 330.9674)" fill="#754C24" cx="463.255" cy="-52.543" rx="8.75" ry="12.875"/>
			
				<ellipse transform="matrix(-0.6577 -0.7533 0.7533 -0.6577 931.0266 317.968)" fill="#754C24" cx="537.755" cy="-52.543" rx="8.75" ry="12.875"/>
		</g>
		<path fill="#9C8E84" d="M566.26,51.166c1.5,7.916-1.5,17-13,17H447.926c-11.916,0-14.916-10.334-12.999-17l29.999-108.333
			c1.584-7.001,5.373-12,12-12h47.334c6.627,0,10.25,4.249,12,12L566.26,51.166z"/>
		<circle cx="489.131" cy="-43.418" r="5.75"/>
		<g>
			<path fill="#EBE8C5" d="M499.381-9.168c0,1.104-0.896,2-2,2h-8.75c-1.105,0-2-0.896-2-2v-19.25c0-1.104,0.895-2,2-2h8.75
				c1.104,0,2,0.896,2,2V-9.168z"/>
			<path fill="#EBE8C5" d="M514.381-9.168c0,1.104-0.896,2-2,2h-8.75c-1.105,0-2-0.896-2-2v-19.25c0-1.104,0.895-2,2-2h8.75
				c1.104,0,2,0.896,2,2V-9.168z"/>
		</g>
		<ellipse fill="#8C6239" cx="500.505" cy="-25.918" rx="15.366" ry="10.25"/>
		<circle cx="500.506" cy="-32.418" r="5.75"/>
		<circle cx="511.881" cy="-43.418" r="5.75"/>
		<circle fill="#FFFFFF" cx="489.131" cy="-46.918" r="1.5"/>
		<circle fill="#FFFFFF" cx="511.881" cy="-46.918" r="1.5"/>
		<g>
			<polygon fill="#8C6239" points="446.889,7.971 461.51,19.498 467.176,17.165 452.438,-12.068 			"/>
			<circle fill="#8C6239" cx="460.76" cy="21.082" r="3.375"/>
			<circle fill="#8C6239" cx="466.26" cy="19.832" r="3.375"/>
			<circle fill="#8C6239" cx="467.26" cy="15.582" r="3.375"/>
		</g>
		<g>
			<polygon fill="#8C6239" points="554.322,7.971 539.701,19.498 534.035,17.165 548.771,-12.068 			"/>
			<circle fill="#8C6239" cx="540.451" cy="21.082" r="3.375"/>
			<circle fill="#8C6239" cx="534.951" cy="19.832" r="3.375"/>
			<circle fill="#8C6239" cx="533.951" cy="15.582" r="3.375"/>
		</g>
	</g>
	<g>
		<path d="M353.26,71.166H247.927c-7.246,0-11.241-3.285-13.315-6.041c-3.045-4.043-4.028-9.71-2.568-14.787l25.592-92.411
			c-0.731-0.493-1.437-1.033-2.104-1.616c-6.709-5.857-8.566-14.332-4.232-19.295c1.849-2.119,4.628-3.286,7.821-3.286
			c1.865,0,3.802,0.386,5.717,1.126c2.772-4.554,6.979-7.021,12.091-7.021h47.333c5.396,0,9.475,2.325,12.167,6.925
			c1.831-0.679,3.681-1.031,5.459-1.031c3.196,0,5.975,1.169,7.826,3.288c2.179,2.495,2.861,6.093,1.872,9.873
			c-0.895,3.42-3.062,6.767-6.101,9.419c-0.624,0.545-1.278,1.052-1.96,1.52l25.627,92.539l0.035,0.12l0.022,0.121
			c1.115,5.89-0.046,11.439-3.181,15.225C364.011,68.264,360.16,71.166,353.26,71.166L353.26,71.166z"/>
		<g>
			
				<ellipse transform="matrix(0.6578 -0.7532 0.7532 0.6578 129.6753 180.31)" fill="#E6E6E6" cx="263.255" cy="-52.543" rx="8.75" ry="12.875"/>
			
				<ellipse transform="matrix(-0.6578 -0.7532 0.7532 -0.6578 599.4923 167.3053)" fill="#E6E6E6" cx="337.755" cy="-52.543" rx="8.75" ry="12.875"/>
		</g>
		<path fill="#F2F2F2" d="M366.26,51.166c1.5,7.916-1.5,17-13,17H247.927c-11.917,0-14.917-10.334-13-17l30-108.333
			c1.583-7.001,5.373-12,12-12h47.333c6.628,0,10.25,4.249,12,12L366.26,51.166z"/>
		<circle fill="#47272D" cx="289.131" cy="-43.418" r="5.75"/>
		<g>
			<path fill="#EBE8C5" d="M299.381-9.168c0,1.104-0.896,2-2,2h-8.75c-1.104,0-2-0.896-2-2v-19.25c0-1.104,0.896-2,2-2h8.75
				c1.104,0,2,0.896,2,2V-9.168z"/>
			<path fill="#EBE8C5" d="M314.381-9.168c0,1.104-0.896,2-2,2h-8.75c-1.104,0-2-0.896-2-2v-19.25c0-1.104,0.896-2,2-2h8.75
				c1.104,0,2,0.896,2,2V-9.168z"/>
		</g>
		<ellipse fill="#CCCCCC" cx="300.505" cy="-25.918" rx="15.366" ry="10.25"/>
		<circle fill="#ED9CC0" cx="300.506" cy="-32.418" r="5.75"/>
		<circle fill="#47272D" cx="311.881" cy="-43.418" r="5.75"/>
		<circle fill="#FFFFFF" cx="289.131" cy="-46.918" r="1.5"/>
		<circle fill="#FFFFFF" cx="311.881" cy="-46.918" r="1.5"/>
		<g>
			<polygon fill="#CCCCCC" points="246.889,7.971 261.51,19.498 267.176,17.165 252.438,-12.068 			"/>
			<circle fill="#CCCCCC" cx="260.76" cy="21.082" r="3.375"/>
			<circle fill="#CCCCCC" cx="266.26" cy="19.832" r="3.375"/>
			<circle fill="#CCCCCC" cx="267.26" cy="15.582" r="3.375"/>
		</g>
		<g>
			<polygon fill="#CCCCCC" points="354.322,7.971 339.701,19.498 334.035,17.165 348.772,-12.068 			"/>
			<circle fill="#CCCCCC" cx="340.451" cy="21.082" r="3.375"/>
			<circle fill="#CCCCCC" cx="334.951" cy="19.832" r="3.375"/>
			<circle fill="#CCCCCC" cx="333.951" cy="15.582" r="3.375"/>
		</g>
	</g>
	<path d="M40.558,312.017c-1.593,0-3.119-0.592-4.296-1.665c-1.097-0.999-1.782-2.336-1.995-3.753
		c-0.438-0.24-0.85-0.533-1.226-0.876c-2.597-2.368-2.783-6.408-0.415-9.006c0.174-0.19,0.358-0.369,0.553-0.535
		c0.194-1.212,0.732-2.358,1.572-3.279c1.206-1.321,2.922-2.079,4.71-2.079c1.593,0,3.119,0.592,4.297,1.666
		c0.177,0.161,0.344,0.332,0.5,0.511l30.978-11.814l-13.821,27.252l-14.717-1.059c-0.264,0.931-0.744,1.808-1.43,2.56
		C44.064,311.259,42.347,312.017,40.558,312.017z"/>
	<path d="M41.942,149.992c-0.65,0.715-1.471,1.287-2.42,1.654c-0.739,0.287-1.513,0.432-2.301,0.432
		c-2.612,0-5.002-1.637-5.946-4.072c-0.536-1.385-0.553-2.887-0.113-4.248c-0.285-0.41-0.522-0.857-0.707-1.332
		c-1.27-3.277,0.363-6.977,3.64-8.248c0.24-0.094,0.485-0.171,0.735-0.232c0.713-0.998,1.707-1.785,2.869-2.235
		c0.739-0.286,1.513-0.432,2.301-0.432c2.612,0,5.002,1.638,5.947,4.073c0.086,0.225,0.16,0.451,0.22,0.682l32.997,3.225
		l-24.515,18.239L41.942,149.992z"/>
	<path d="M40.506-8.196c-0.727,0.285-1.514,0.438-2.329,0.438c-0.189,0-0.381-0.008-0.574-0.026
		c-3.499-0.313-6.093-3.417-5.78-6.918c0.133-1.478,0.783-2.832,1.781-3.858c-0.074-0.495-0.089-1.001-0.043-1.511
		c0.297-3.308,3.026-5.804,6.346-5.804c0.189,0,0.38,0.008,0.572,0.025c0.255,0.023,0.507,0.062,0.756,0.115
		c0.915-0.491,1.943-0.757,2.998-0.757c0.188,0,0.377,0.008,0.568,0.025c3.501,0.315,6.094,3.419,5.781,6.919
		c-0.022,0.239-0.057,0.476-0.105,0.709l28.15,17.511L48.57,4.163L40.506-8.196z"/>
	<path d="M153.907,71.916H48.574c-7.246,0-11.242-3.285-13.316-6.041c-3.045-4.043-4.027-9.71-2.568-14.787l25.592-92.412
		c-0.73-0.492-1.436-1.032-2.104-1.615c-6.709-5.857-8.566-14.332-4.232-19.295c1.849-2.119,4.627-3.286,7.82-3.286
		c1.866,0,3.803,0.386,5.717,1.126c2.773-4.555,6.979-7.021,12.092-7.021h47.333c5.396,0,9.475,2.325,12.167,6.924
		c1.831-0.678,3.68-1.03,5.459-1.03c3.195,0,5.975,1.169,7.826,3.288c2.179,2.494,2.861,6.092,1.871,9.873
		c-0.895,3.42-3.061,6.766-6.1,9.419c-0.625,0.544-1.278,1.052-1.961,1.52l25.627,92.539l0.035,0.12l0.023,0.121
		c1.115,5.89-0.046,11.439-3.182,15.225C164.658,69.014,160.807,71.916,153.907,71.916L153.907,71.916z"/>
	<g>
		<polygon fill="#8C6239" points="49.993,0.854 39.819,-14.739 42.649,-20.174 70.448,-2.882 		"/>
		<circle fill="#8C6239" cx="38.175" cy="-14.134" r="3.375"/>
		<circle fill="#8C6239" cx="39.911" cy="-19.5" r="3.375"/>
		<circle fill="#8C6239" cx="44.233" cy="-20.116" r="3.375"/>
	</g>
	<g>
		
			<ellipse transform="matrix(0.6578 -0.7532 0.7532 0.6578 60.8834 30.4074)" fill="#754C24" cx="63.903" cy="-51.794" rx="8.75" ry="12.876"/>
		
			<ellipse transform="matrix(-0.6578 -0.7532 0.7532 -0.6578 268.4507 18.388)" fill="#754C24" cx="138.403" cy="-51.794" rx="8.75" ry="12.876"/>
	</g>
	<path fill="#603813" d="M166.907,51.916c1.499,7.916-1.501,17-13,17H48.574c-11.918,0-14.918-10.334-13-17l30-108.333
		c1.582-7.001,5.373-12,12-12h47.333c6.628,0,10.249,4.249,12,12L166.907,51.916z"/>
	<circle cx="89.777" cy="-42.668" r="5.75"/>
	<g>
		<path fill="#EBE8C5" d="M100.027-8.418c0,1.104-0.895,2-2,2h-8.75c-1.104,0-2-0.896-2-2v-19.25c0-1.105,0.896-2,2-2h8.75
			c1.105,0,2,0.895,2,2V-8.418z"/>
		<path fill="#EBE8C5" d="M115.027-8.418c0,1.104-0.895,2-2,2h-8.75c-1.104,0-2-0.896-2-2v-19.25c0-1.105,0.896-2,2-2h8.75
			c1.105,0,2,0.895,2,2V-8.418z"/>
	</g>
	<ellipse fill="#8C6239" cx="101.153" cy="-25.168" rx="15.366" ry="10.25"/>
	<circle cx="101.152" cy="-31.668" r="5.75"/>
	<circle cx="112.527" cy="-42.668" r="5.75"/>
	<circle fill="#FFFFFF" cx="89.777" cy="-46.168" r="1.5"/>
	<circle fill="#FFFFFF" cx="112.527" cy="-46.168" r="1.5"/>
	<g>
		<polygon fill="#8C6239" points="154.969,8.721 140.349,20.248 134.682,17.915 149.42,-11.318 		"/>
		<circle fill="#8C6239" cx="141.099" cy="21.832" r="3.375"/>
		<circle fill="#8C6239" cx="135.599" cy="20.582" r="3.375"/>
		<circle fill="#8C6239" cx="134.599" cy="16.332" r="3.375"/>
	</g>
	<path d="M153.907,223.916H48.574c-7.246,0-11.242-3.285-13.316-6.041c-3.045-4.043-4.027-9.71-2.568-14.787l25.592-92.412
		c-0.73-0.492-1.436-1.032-2.104-1.615c-6.709-5.857-8.566-14.332-4.232-19.295c1.849-2.119,4.627-3.286,7.82-3.286
		c1.866,0,3.803,0.386,5.717,1.126c2.773-4.555,6.979-7.021,12.092-7.021h47.333c5.396,0,9.475,2.325,12.167,6.924
		c1.831-0.678,3.68-1.03,5.459-1.03c3.195,0,5.975,1.169,7.826,3.288c2.179,2.494,2.861,6.092,1.871,9.873
		c-0.895,3.42-3.061,6.766-6.1,9.419c-0.625,0.544-1.278,1.052-1.961,1.52l25.627,92.539l0.035,0.12l0.023,0.121
		c1.115,5.89-0.046,11.439-3.182,15.225C164.658,221.014,160.807,223.916,153.907,223.916L153.907,223.916z"/>
	<g>
		<polygon fill="#8C6239" points="54.456,153.9 38.426,144.431 38.555,138.305 71.139,141.488 		"/>
		<circle fill="#8C6239" cx="37.22" cy="145.703" r="3.375"/>
		<circle fill="#8C6239" cx="36.398" cy="140.122" r="3.375"/>
		<circle fill="#8C6239" cx="40.001" cy="137.654" r="3.375"/>
	</g>
	<g>
		
			<ellipse transform="matrix(0.6578 -0.7532 0.7532 0.6578 -53.608 82.4289)" fill="#754C24" cx="63.903" cy="100.206" rx="8.75" ry="12.876"/>
		
			<ellipse transform="matrix(-0.6578 -0.7532 0.7532 -0.6578 153.9593 270.3665)" fill="#754C24" cx="138.403" cy="100.206" rx="8.75" ry="12.876"/>
	</g>
	<path fill="#603813" d="M166.907,203.916c1.499,7.916-1.501,17-13,17H48.574c-11.918,0-14.918-10.334-13-17l30-108.333
		c1.582-7.001,5.373-12,12-12h47.333c6.628,0,10.249,4.249,12,12L166.907,203.916z"/>
	<circle cx="89.777" cy="109.332" r="5.75"/>
	<g>
		<path fill="#EBE8C5" d="M100.027,143.582c0,1.104-0.895,2-2,2h-8.75c-1.104,0-2-0.896-2-2v-19.25c0-1.105,0.896-2,2-2h8.75
			c1.105,0,2,0.895,2,2V143.582z"/>
		<path fill="#EBE8C5" d="M115.027,143.582c0,1.104-0.895,2-2,2h-8.75c-1.104,0-2-0.896-2-2v-19.25c0-1.105,0.896-2,2-2h8.75
			c1.105,0,2,0.895,2,2V143.582z"/>
	</g>
	<ellipse fill="#8C6239" cx="101.153" cy="126.832" rx="15.366" ry="10.25"/>
	<circle cx="101.152" cy="120.332" r="5.75"/>
	<circle cx="112.527" cy="109.332" r="5.75"/>
	<circle fill="#FFFFFF" cx="89.777" cy="105.832" r="1.5"/>
	<circle fill="#FFFFFF" cx="112.527" cy="105.832" r="1.5"/>
	<g>
		<polygon fill="#8C6239" points="154.969,160.721 140.349,172.248 134.682,169.915 149.42,140.682 		"/>
		<circle fill="#8C6239" cx="141.099" cy="173.832" r="3.375"/>
		<circle fill="#8C6239" cx="135.599" cy="172.582" r="3.375"/>
		<circle fill="#8C6239" cx="134.599" cy="168.332" r="3.375"/>
	</g>
	<path d="M153.907,375.916H48.574c-7.246,0-11.242-3.285-13.316-6.041c-3.045-4.043-4.027-9.71-2.568-14.787l25.592-92.412
		c-0.73-0.492-1.436-1.032-2.104-1.615c-6.709-5.857-8.566-14.332-4.232-19.295c1.849-2.119,4.627-3.286,7.82-3.286
		c1.866,0,3.803,0.386,5.717,1.126c2.773-4.555,6.979-7.021,12.092-7.021h47.333c5.396,0,9.475,2.325,12.167,6.924
		c1.831-0.678,3.68-1.03,5.459-1.03c3.195,0,5.975,1.169,7.826,3.288c2.179,2.494,2.861,6.092,1.871,9.873
		c-0.895,3.42-3.061,6.766-6.1,9.419c-0.625,0.544-1.278,1.052-1.961,1.52l25.627,92.539l0.035,0.12l0.023,0.121
		c1.115,5.89-0.046,11.439-3.182,15.225C164.658,373.014,160.807,375.916,153.907,375.916L153.907,375.916z"/>
	<g>
		<polygon fill="#8C6239" points="59.642,305.302 41.072,303.967 38.457,298.424 69.047,286.757 		"/>
		<circle fill="#8C6239" cx="40.559" cy="305.642" r="3.374"/>
		<circle fill="#8C6239" cx="37.337" cy="301.012" r="3.375"/>
		<circle fill="#8C6239" cx="39.463" cy="297.198" r="3.376"/>
	</g>
	<g>
		
			<ellipse transform="matrix(0.6578 -0.7532 0.7532 0.6578 -168.0994 134.4503)" fill="#754C24" cx="63.903" cy="252.206" rx="8.75" ry="12.876"/>
		
			<ellipse transform="matrix(-0.6578 -0.7532 0.7532 -0.6578 39.4678 522.3451)" fill="#754C24" cx="138.403" cy="252.206" rx="8.75" ry="12.876"/>
	</g>
	<path fill="#603813" d="M166.907,355.916c1.499,7.916-1.501,17-13,17H48.574c-11.918,0-14.918-10.334-13-17l30-108.333
		c1.582-7.001,5.373-12,12-12h47.333c6.628,0,10.249,4.249,12,12L166.907,355.916z"/>
	<circle cx="89.777" cy="261.332" r="5.75"/>
	<g>
		<path fill="#EBE8C5" d="M100.027,295.582c0,1.104-0.895,2-2,2h-8.75c-1.104,0-2-0.896-2-2v-19.25c0-1.105,0.896-2,2-2h8.75
			c1.105,0,2,0.895,2,2V295.582z"/>
		<path fill="#EBE8C5" d="M115.027,295.582c0,1.104-0.895,2-2,2h-8.75c-1.104,0-2-0.896-2-2v-19.25c0-1.105,0.896-2,2-2h8.75
			c1.105,0,2,0.895,2,2V295.582z"/>
	</g>
	<ellipse fill="#8C6239" cx="101.153" cy="278.832" rx="15.366" ry="10.25"/>
	<circle cx="101.152" cy="272.332" r="5.75"/>
	<circle cx="112.527" cy="261.332" r="5.75"/>
	<circle fill="#FFFFFF" cx="89.777" cy="257.832" r="1.5"/>
	<circle fill="#FFFFFF" cx="112.527" cy="257.832" r="1.5"/>
	<g>
		<polygon fill="#8C6239" points="154.969,312.721 140.349,324.248 134.682,321.915 149.42,292.682 		"/>
		<circle fill="#8C6239" cx="141.099" cy="325.832" r="3.375"/>
		<circle fill="#8C6239" cx="135.599" cy="324.582" r="3.375"/>
		<circle fill="#8C6239" cx="134.599" cy="320.332" r="3.375"/>
	</g>
</g>
</svg>
