<?xml version="1.0" encoding="utf-8"?>
<!-- Generator: Adobe Illustrator 16.0.3, SVG Export Plug-In . SVG Version: 6.00 Build 0)  -->
<!DOCTYPE svg PUBLIC "-//W3C//DTD SVG 1.0//EN" "http://www.w3.org/TR/2001/REC-SVG-20010904/DTD/svg10.dtd">
<svg version="1.0" id="Layer_1" xmlns="http://www.w3.org/2000/svg" xmlns:xlink="http://www.w3.org/1999/xlink" x="0px" y="0px"
	 width="200px" height="50px" viewBox="0 0 200 50" enable-background="new 0 0 200 50" xml:space="preserve">
<g>
	<path d="M109.546,46.738c-5.83,0-9.642-8.389-10.669-10.959l-0.215-0.537v-0.291c-0.231,0.025-0.461,0.051-0.685,0.076
		c-0.513,0.055-1.005,0.109-1.45,0.178c-0.638,1.135-1.643,2.117-2.58,3.037c-0.961,0.943-1.956,1.916-2.596,2.98
		c-0.646,1.08-2.251,2.893-5.725,2.893c-3.311,0-7.367-1.676-10.186-3.084c-0.459-0.229-1.206-0.51-1.993-0.805
		c-0.865-0.324-1.837-0.689-2.809-1.125c-1.993,2.357-4.95,3.947-7.951,5.309c-1.979,0.9-4.177,1.355-6.528,1.355
		c-4.798,0-9.21-1.846-12.13-3.07c-0.767-0.322-1.636-0.686-1.975-0.77c-1.394-0.348-2.522-1.145-3.412-2.074
		c-4.033,3.064-10.621,4.164-13.196,4.164c-3.424,0-10.888-1.248-17.133-5.936c-3.283-2.463-7.912-7.91-2.028-16.729
		C12.012,12.756,16.354,8.278,19.2,8.028h-0.022c0.101-0.01,2.509-0.225,5.634-0.225c4.991,0,8.767,0.519,11.424,1.579
		c0.08-0.097,0.16-0.193,0.24-0.289l0.225-0.269l0.279-0.211l2.665-1.999l1.286-0.961l1.513,0.533l11.334,4l2.196,0.775
		l-0.049,0.542c0.595,0.121,1.181,0.299,1.755,0.535c0.1-0.263,0.205-0.529,0.313-0.802c1.269-3.176,3.188-7.974,10.496-7.974
		c0.527,0,1.081,0.026,1.653,0.076c0.359-0.022,1.031-0.056,1.927-0.056c4.459,0,11.888,0.771,16.196,5.403
		c1.843-0.912,3.897-1.386,6.071-1.386c0.357,0,0.72,0.012,1.087,0.039c0.531-0.047,1.71-0.135,3.157-0.135
		c2.357,0,4.404,0.224,6.116,0.668c1.38-1.696,3.136-3.026,5.809-3.026c1.005,0,1.993,0.174,3.138,0.377l0.553,0.096
		c0.332-0.031,0.792-0.06,1.348-0.06c1.543,0,4.217,0.242,6.852,1.626c2.11-1.54,4.691-2.903,7.654-2.903
		c1.949,0,3.824,0.593,5.574,1.764c0.451,0.226,1.418,0.742,2.646,1.583c0.149-0.006,0.3-0.01,0.449-0.01
		c1.952,0,3.825,0.595,5.575,1.766c0.365,0.182,1.054,0.545,1.938,1.111c4.428-5.458,6.286-6.135,7.726-6.176
		c0.522-0.045,2.743-0.215,5.532-0.215c7.826,0,12.709,1.296,14.93,3.959c1.857,2.227,3.082,5.031,3.646,8.351
		c0.562,0.443,1.164,0.984,1.828,1.653c2.342-1.47,5.799-3.297,8.509-3.297c0.88,0,1.684,0.178,2.387,0.529
		c3.069,1.534,4.065,5.899,5.05,11.444c0.156,0.881,0.349,1.973,0.455,2.293c0.982,2.941-1.23,5.104-3.006,6.84
		c-0.965,0.943-1.962,1.92-2.6,2.982c-0.65,1.082-2.256,2.895-5.729,2.895c-3.319,0-7.371-1.68-10.186-3.086
		c-0.46-0.23-1.204-0.51-1.996-0.805c-0.424-0.158-0.875-0.328-1.34-0.51c-3.74,2.018-8.754,2.965-11.324,2.965
		c-2.569,0-5.778-0.602-8.831-1.635c-1.099,0.666-2.382,1.328-3.929,2.029c-1.979,0.9-4.176,1.357-6.527,1.357
		c-3.197,0-6.228-0.84-8.541-1.658c-0.651,0.297-1.31,0.498-1.922,0.688c-0.68,0.207-1.321,0.4-1.869,0.699l-1.707,0.924
		l-1.711,0.928c-2.585,1.398-5.811,1.855-8.927,2.295c-1.736,0.246-3.53,0.502-5.118,0.906
		C110.547,46.674,110.047,46.738,109.546,46.738L109.546,46.738z"/>
	<g>
		<path fill="#42210B" d="M154.114,7.015c-2,0-8,8-10.666,12c-2.668,4-4.001,8.667,1.332,12.667c5.334,4,12,5.334,15.334,5.334
			s12-2,13.334-6c1.332-4,2-6.667,2-9.334s0-8-3.334-12S154.114,7.015,154.114,7.015z"/>
		<path fill="#603813" d="M58.115,15.681c-6.667-4.667-12.667,4-15.333,5.333s-4,13.333-4,13.333s1.333,4,4,4.666
			s11.333,6,18.667,2.666c7.333-3.332,10.667-6.666,7.333-14.666C65.448,19.014,58.115,15.681,58.115,15.681z"/>
		<path fill="#603813" d="M134.114,8.349c-6.666-4.667-12.666,4-15.333,5.333s-4,13.334-4,13.334s1.333,4,4,4.666
			s11.333,6,18.667,2.666c7.333-3.332,10.666-6.666,7.333-14.666S134.114,8.349,134.114,8.349z"/>
		<path fill="#2B1606" d="M142.781,11.682c-6.667-4.667-12.667,4-15.333,5.333c-2.667,1.333-4,13.333-4,13.333s1.333,4,4,4.666
			c2.666,0.666,11.332,6,18.666,2.666c7.334-3.332,10.667-6.664,7.334-14.665C150.114,15.015,142.781,11.682,142.781,11.682z"/>
		<path fill="#42210B" d="M70.114,6.348c-6.667-0.667-8,2.667-9.333,6s-2.667,7.333-2,10s5.333,6.666,10,7.334
			c4.667,0.666,10-0.002,12-3.334c2-3.333,10-2.667,7.333-12S70.114,6.348,70.114,6.348z"/>
		<path fill="#693411" d="M38.781,11.014c-3.333,4-8,10.668-5.333,13.334s8,6.666,10,5.332c2-1.332,8.667-4,8.667-6.666
			s0.667-10,0.667-10l-11.333-4L38.781,11.014z"/>
		<path fill="#693411" d="M95.448,10.348c-7.333-0.667-12,5.333-11.333,10.667c0.667,5.333,2.667,8.667,4.667,9.333
			s3.334,2.666,6.667,2s8,0,10-4.666c2-4.667,3.332-8,2.666-13.333S95.448,10.348,95.448,10.348z"/>
		<path fill="#2B1606" d="M80.115,24.348c-5.333-6-6.667-5.333-9.333-0.667s-3.333,4-3.333,8c0,3.998,6.667,5.332,9.333,6.666
			c2.667,1.332,10,4.666,12,1.332c2-3.332,6-5.332,5.333-7.332s-1.333-10.667-4-12S80.115,24.348,80.115,24.348z"/>
		<path fill="#2B1606" d="M179.448,21.681c-5.334-6-6.667-5.333-9.334-0.667c-2.666,4.667-3.333,4-3.333,7.999
			c0,4,6.667,5.334,9.333,6.668c2.667,1.332,10,4.666,12,1.332c2-3.332,6.001-5.332,5.334-7.332s-1.333-10.667-4-12
			S179.448,21.681,179.448,21.681z"/>
		<path fill="#42210B" d="M114.114,8.348c-4-0.667-5.334-1.333-8,2.667s-4,5.333-2.666,8c1.332,2.667,4,4.001,6,4.667
			s2.666,3.332,7.332-0.667c4.668-4,12.001-1.334,8.668-8.667C122.114,7.015,114.114,8.348,114.114,8.348z"/>
		<path fill="#693411" d="M160.312,22.941c-2.402-0.401-3.203-0.801-4.805,1.601c-1.602,2.401-2.402,3.202-1.602,4.804
			s2.402,2.404,3.604,2.803c1.201,0.4,1.602,2.002,4.404-0.4s7.206-0.801,5.204-5.205C165.115,22.14,160.312,22.941,160.312,22.941z
			"/>
		<path fill="#603813" d="M126.72,18.509c-5.164-3.057-9.52-4.861-14.531-1.629c-5.012,3.231-8.793,1.767-9.66,9.775
			s-0.867,8.008-0.867,8.008s4.061,10.152,8.627,8.982c4.567-1.17,9.941-1.088,13.361-2.938c3.418-1.85,0,0,3.418-1.85
			c3.42-1.85,7.201-0.385,5.668-8.266C131.203,22.713,126.72,18.509,126.72,18.509z"/>
		<path fill="#42210B" d="M19.448,11.015c-2,0-8,8-10.667,12c-2.667,4-4,8.667,1.333,12.667s12,5.334,15.333,5.334s12-2,13.333-6
			s2-6.668,2-9.334c0-2.667,0-8-3.333-12S19.448,11.015,19.448,11.015z"/>
	</g>
</g>
<g>
</g>
<g>
</g>
<g>
</g>
<g>
</g>
<g>
</g>
<g>
</g>
<g>
</g>
<g>
</g>
<g>
</g>
<g>
</g>
<g>
</g>
<g>
</g>
<g>
</g>
<g>
</g>
<g>
</g>
</svg>
