<?xml version="1.0" encoding="utf-8"?>
<!-- Generator: Adobe Illustrator 16.0.3, SVG Export Plug-In . SVG Version: 6.00 Build 0)  -->
<!DOCTYPE svg PUBLIC "-//W3C//DTD SVG 1.0//EN" "http://www.w3.org/TR/2001/REC-SVG-20010904/DTD/svg10.dtd">
<svg version="1.0" xmlns="http://www.w3.org/2000/svg" xmlns:xlink="http://www.w3.org/1999/xlink" x="0px" y="0px" width="600px"
	 height="82px" viewBox="0 0 600 82" enable-background="new 0 0 600 82" xml:space="preserve">
<g id="Layer_2" display="none">
	<rect y="-0.71" display="inline" fill="#00E742" width="200" height="82"/>
	<rect x="200" y="-0.71" display="inline" fill="#F017FF" width="200" height="82"/>
	<rect x="399" y="-0.71" display="inline" fill="#CBFF00" width="200" height="82"/>
</g>
<g id="Layer_1">
	<path d="M359.464,42.333c-1.407-0.001-2.362-0.646-2.875-0.993c-0.045-0.03-0.089-0.062-0.136-0.092
		c-2.441-0.835-4.25-2.31-5.23-4.271c-1.493-2.986-0.088-5.048,1.27-7.042l0.52-0.769c0.831-1.244,1.889-2.51,3.55-3.012
		c0.349-5.733-0.74-12.588-6.559-16.904l3.378-4.953c3.821,2.391,6.78,5.599,8.781,9.477c3.628-5.937,9.562-9.038,17.31-9.115
		c5.685-0.057,9.153,3,9.153,3s-2.75,2.224-8.473,3.154c-9.183,1.492-13.728,7.107-13.487,16.962
		c1.371,0.922,2.454,2.214,3.183,3.815c0.568,1.249,1.224,3.121,0.366,4.963c-0.903,1.941-2.801,2.473-4.186,2.86
		c-0.848,0.237-1.647,0.461-2.162,0.901C362.771,41.254,361.28,42.333,359.464,42.333L359.464,42.333z"/>
	<path d="M252.236,48.913c-1.731,0-2.896-0.788-3.667-1.31c-0.187-0.126-0.441-0.298-0.535-0.333
		c-3.649-1.215-6.325-3.35-7.734-6.172c-1.962-3.923-0.224-6.475,1.976-9.706c0.272-0.4,0.566-0.831,0.877-1.299
		c1.561-2.341,3.475-4.507,6.888-4.507c1.005,0,1.992,0.175,3.136,0.377l0.553,0.096c0.341-0.032,0.814-0.063,1.387-0.063
		c2.714,0,9.376,0.766,12.599,7.854c0.782,1.72,1.695,4.273,0.615,6.594c-1.118,2.401-3.552,3.082-5.701,3.684
		c-1.558,0.437-3.169,0.888-4.361,1.909C255.946,48.025,254.085,48.913,252.236,48.913L252.236,48.913z"/>
	<path d="M247.424,35.535l1.248-3.173c0.041-0.104,3.609-9.508,0.24-16.746c-2.89,3.121-8.003,7.44-14.533,8.004
		c-2.61,0.226-5.217-0.169-7.75-1.175l-3.051-1.211l1.48-2.93c3.361-6.654,7.109-10.292,10.553-12.212
		c0.812-0.453,2.855-4.392,2.855-4.392c6.125,0.376,10.934,2.419,14.351,6.085c2.66-2.859,6.793-6.146,12-6.596
		c4.122-0.356,8.114,1.124,11.866,4.401l4.151,3.626l-5.299,1.517c-4.216,1.207-7.166,4.273-9.769,6.979
		c-2.391,2.487-4.468,4.646-7.238,5.028c0.408,6.45-0.949,11.956-1.021,12.243l-0.732,2.909L247.424,35.535z"/>
	<path d="M524.523,54.846c-2.874,0-10.781-1.374-14.512-5.343c-2.258,0.756-5.038,1.448-7.927,1.448
		c-2.353,0-4.549-0.457-6.529-1.356c-1.938-0.881-3.514-1.729-4.81-2.598c-0.853,0.922-1.809,1.568-2.842,1.912
		c-0.305,0.103-0.695,0.337-1.146,0.608c-1.179,0.709-2.793,1.68-5.184,1.68c-0.605,0-1.235-0.064-1.874-0.192
		c-0.559-0.111-1.23-0.185-1.941-0.262c-2.229-0.242-5.11-0.556-7.462-2.449c-2.878,1.185-6.851,2.658-11.133,2.658
		c-2.354,0-4.553-0.457-6.534-1.357c-1.012-0.46-1.924-0.911-2.749-1.361c-1.067,0.602-2.163,0.905-3.276,0.905
		c-0.498,0-0.997-0.063-1.482-0.188c-1.586-0.406-3.379-0.66-5.112-0.906c-3.119-0.442-6.345-0.9-8.931-2.299l-3.419-1.85
		c-0.547-0.296-1.189-0.491-1.869-0.697c-0.422-0.128-0.879-0.267-1.345-0.443c-0.802,0.585-1.731,1.063-2.771,1.419
		c-0.046,0.029-0.091,0.062-0.136,0.092c-0.513,0.347-1.468,0.993-2.875,0.993c-1.378,0-2.568-0.621-3.541-1.33
		c-1.132,0.262-2.157,0.39-3.104,0.39c-3.468,0-5.072-1.812-5.721-2.892c-0.638-1.063-1.635-2.038-2.6-2.98
		c-1.777-1.737-3.99-3.9-3.007-6.845c0.105-0.316,0.3-1.409,0.455-2.288c0.983-5.546,1.979-9.911,5.049-11.445
		c0.705-0.352,1.507-0.53,2.386-0.53c2.709,0,6.166,1.826,8.508,3.295c2.171-2.188,4.021-3.414,6.114-3.414
		c1.637,0,2.899,0.761,3.9,1.779c0.146-0.152,0.243-0.244,0.276-0.275l0.241-0.227l0.285-0.168
		c3.811-2.256,7.079-3.758,10.646-3.758c2.451,0,4.754,0.716,7.039,2.19c1.179,0.76,2.314,1.228,3.413,1.68
		c1.139,0.469,2.363,0.973,3.493,1.788c1.483-1.073,2.675-1.707,3.199-1.966c1.747-1.169,3.618-1.761,5.565-1.761
		c0.56,0,1.127,0.05,1.696,0.149c2.147-0.869,4.221-1.067,5.665-1.067c0.552,0,1.009,0.029,1.339,0.06l0.558-0.097
		c1.144-0.203,2.132-0.378,3.138-0.378c2.919,0,4.741,1.584,6.184,3.508c0.792-2.564,1.885-4.475,3.71-5.386
		c0.702-0.352,1.505-0.53,2.386-0.53c2.709,0,6.164,1.826,8.506,3.295c2.172-2.188,4.022-3.415,6.115-3.415
		c2.752,0,4.446,2.151,5.617,4.061c2.772,0.558,5.137,2.19,7.012,3.743c2.601-1.179,6.402-1.774,11.505-1.807
		c4.478-3.962,11.422-4.585,15.342-4.585c0.888,0,1.557,0.032,1.917,0.055c0.575-0.051,1.132-0.076,1.658-0.076
		c3.222,0,5.721,0.942,7.571,2.868c0.881-0.262,1.782-0.394,2.698-0.394c0.241,0,0.485,0.009,0.729,0.028l11.983-4.229L568.855,14
		c1.62-0.167,3.426-0.252,5.386-0.252c3.128,0,5.544,0.216,5.646,0.226v0.001c2.843,0.272,7.177,4.751,12.891,13.322
		c5.884,8.82,1.255,14.27-2.027,16.731c-6.247,4.685-13.71,5.935-17.135,5.935c-2.341,0-6.284-0.744-9.588-2.135
		c-0.045,0.019-0.09,0.038-0.136,0.058c-2.917,1.222-7.324,3.068-12.12,3.068c-2.354,0-4.554-0.457-6.535-1.357
		c-1.023-0.466-1.929-0.912-2.743-1.354c-0.267,0.229-0.546,0.454-0.836,0.672C535.411,53.596,527.948,54.846,524.523,54.846z"/>
	<g>
		<path d="M109.546,46.028c-5.83,0-9.642-8.389-10.669-10.959l-0.215-0.537v-0.291c-0.231,0.025-0.461,0.051-0.685,0.076
			c-0.513,0.055-1.005,0.109-1.45,0.178c-0.638,1.135-1.643,2.117-2.58,3.037c-0.961,0.943-1.956,1.916-2.596,2.98
			c-0.646,1.08-2.251,2.893-5.725,2.893c-3.311,0-7.367-1.676-10.186-3.084c-0.459-0.229-1.206-0.51-1.993-0.805
			c-0.865-0.324-1.837-0.689-2.809-1.125c-1.993,2.357-4.95,3.947-7.951,5.309c-1.979,0.9-4.177,1.355-6.528,1.355
			c-4.798,0-9.21-1.846-12.13-3.07c-0.767-0.322-1.636-0.686-1.975-0.77c-1.394-0.348-2.522-1.145-3.412-2.074
			c-4.033,3.064-10.621,4.164-13.196,4.164c-3.424,0-10.888-1.248-17.133-5.936c-3.283-2.463-7.912-7.91-2.028-16.729
			C12.012,12.046,16.354,7.568,19.2,7.317h-0.022c0.101-0.01,2.509-0.225,5.634-0.225c4.991,0,8.767,0.519,11.424,1.579
			c0.08-0.097,0.16-0.193,0.24-0.289l0.225-0.269l0.279-0.211l2.665-1.999l1.286-0.961l1.513,0.533l11.334,4l2.196,0.775
			l-0.049,0.542c0.595,0.121,1.181,0.299,1.755,0.535c0.1-0.263,0.205-0.529,0.313-0.802c1.269-3.176,3.188-7.974,10.496-7.974
			c0.527,0,1.081,0.026,1.653,0.076c0.359-0.022,1.031-0.056,1.927-0.056c4.459,0,11.888,0.771,16.196,5.403
			c1.843-0.912,3.897-1.386,6.071-1.386c0.357,0,0.72,0.012,1.087,0.039c0.531-0.047,1.71-0.135,3.157-0.135
			c2.357,0,4.404,0.224,6.116,0.668c1.38-1.696,3.136-3.026,5.809-3.026c1.005,0,1.993,0.174,3.138,0.377l0.553,0.096
			c0.332-0.031,0.792-0.06,1.348-0.06c1.543,0,4.217,0.242,6.852,1.626c2.11-1.54,4.691-2.903,7.654-2.903
			c1.949,0,3.824,0.593,5.574,1.764c0.451,0.226,1.418,0.742,2.646,1.583c0.149-0.006,0.3-0.01,0.449-0.01
			c1.952,0,3.825,0.595,5.575,1.766c0.365,0.182,1.054,0.545,1.938,1.111c4.428-5.458,6.286-6.135,7.726-6.176
			c0.522-0.045,2.743-0.215,5.532-0.215c7.826,0,12.709,1.296,14.93,3.959c1.857,2.227,3.082,5.031,3.646,8.351
			c0.562,0.443,1.164,0.984,1.828,1.653c2.342-1.47,5.799-3.297,8.509-3.297c0.88,0,1.684,0.178,2.387,0.529
			c3.069,1.534,4.065,5.899,5.05,11.444c0.156,0.881,0.349,1.973,0.455,2.293c0.982,2.941-1.23,5.104-3.006,6.84
			c-0.965,0.943-1.962,1.92-2.6,2.982c-0.65,1.082-2.256,2.895-5.729,2.895c-3.319,0-7.371-1.68-10.186-3.086
			c-0.46-0.23-1.204-0.51-1.996-0.805c-0.424-0.158-0.875-0.328-1.34-0.51c-3.74,2.018-8.754,2.965-11.324,2.965
			c-2.569,0-5.778-0.602-8.831-1.635c-1.099,0.666-2.382,1.328-3.929,2.029c-1.979,0.9-4.176,1.357-6.527,1.357
			c-3.197,0-6.228-0.84-8.541-1.658c-0.651,0.297-1.31,0.498-1.922,0.688c-0.68,0.207-1.321,0.4-1.869,0.699l-1.707,0.924
			l-1.711,0.928c-2.585,1.398-5.811,1.855-8.927,2.295c-1.736,0.246-3.53,0.502-5.118,0.906
			C110.547,45.963,110.047,46.028,109.546,46.028L109.546,46.028z"/>
		<g>
			<path fill="#42210B" d="M154.114,6.305c-2,0-8,8-10.666,12c-2.668,4-4.001,8.667,1.332,12.667c5.334,4,12,5.334,15.334,5.334
				s12-2,13.334-6c1.332-4,2-6.667,2-9.334s0-8-3.334-12S154.114,6.305,154.114,6.305z"/>
			<path fill="#603813" d="M58.115,14.971c-6.667-4.667-12.667,4-15.333,5.333s-4,13.333-4,13.333s1.333,4,4,4.666
				s11.333,6,18.667,2.666c7.333-3.332,10.667-6.666,7.333-14.666C65.448,18.304,58.115,14.971,58.115,14.971z"/>
			<path fill="#603813" d="M134.114,7.638c-6.666-4.667-12.666,4-15.333,5.333s-4,13.334-4,13.334s1.333,4,4,4.666
				s11.333,6,18.667,2.666c7.333-3.332,10.666-6.666,7.333-14.666S134.114,7.638,134.114,7.638z"/>
			<path fill="#2B1606" d="M142.781,10.971c-6.667-4.667-12.667,4-15.333,5.333c-2.667,1.333-4,13.333-4,13.333s1.333,4,4,4.666
				c2.666,0.666,11.332,6,18.666,2.666c7.334-3.332,10.667-6.664,7.334-14.665C150.114,14.304,142.781,10.971,142.781,10.971z"/>
			<path fill="#42210B" d="M70.114,5.637c-6.667-0.667-8,2.667-9.333,6s-2.667,7.333-2,10s5.333,6.666,10,7.334
				c4.667,0.666,10-0.002,12-3.334c2-3.333,10-2.667,7.333-12S70.114,5.637,70.114,5.637z"/>
			<path fill="#693411" d="M38.781,10.303c-3.333,4-8,10.668-5.333,13.334s8,6.666,10,5.332c2-1.332,8.667-4,8.667-6.666
				s0.667-10,0.667-10l-11.333-4L38.781,10.303z"/>
			<path fill="#693411" d="M95.448,9.638c-7.333-0.667-12,5.333-11.333,10.667c0.667,5.333,2.667,8.667,4.667,9.333
				s3.334,2.666,6.667,2s8,0,10-4.666c2-4.667,3.332-8,2.666-13.333S95.448,9.638,95.448,9.638z"/>
			<path fill="#2B1606" d="M80.115,23.637c-5.333-6-6.667-5.333-9.333-0.667s-3.333,4-3.333,8c0,3.998,6.667,5.332,9.333,6.666
				c2.667,1.332,10,4.666,12,1.332c2-3.332,6-5.332,5.333-7.332s-1.333-10.667-4-12S80.115,23.637,80.115,23.637z"/>
			<path fill="#2B1606" d="M179.448,20.971c-5.334-6-6.667-5.333-9.334-0.667c-2.666,4.667-3.333,4-3.333,7.999
				c0,4,6.667,5.334,9.333,6.668c2.667,1.332,10,4.666,12,1.332c2-3.332,6.001-5.332,5.334-7.332s-1.333-10.667-4-12
				S179.448,20.971,179.448,20.971z"/>
			<path fill="#42210B" d="M114.114,7.638c-4-0.667-5.334-1.333-8,2.667s-4,5.333-2.666,8c1.332,2.667,4,4.001,6,4.667
				s2.666,3.332,7.332-0.667c4.668-4,12.001-1.334,8.668-8.667C122.114,6.304,114.114,7.638,114.114,7.638z"/>
			<path fill="#693411" d="M160.312,22.23c-2.402-0.401-3.203-0.801-4.805,1.601c-1.602,2.401-2.402,3.202-1.602,4.804
				s2.402,2.404,3.604,2.803c1.201,0.4,1.602,2.002,4.404-0.4s7.206-0.801,5.204-5.205C165.115,21.43,160.312,22.23,160.312,22.23z"
				/>
			<path fill="#603813" d="M126.72,17.798c-5.164-3.057-9.52-4.861-14.531-1.629c-5.012,3.231-8.793,1.767-9.66,9.775
				s-0.867,8.008-0.867,8.008s4.061,10.152,8.627,8.982c4.567-1.17,9.941-1.088,13.361-2.938c3.418-1.85,0,0,3.418-1.85
				c3.42-1.85,7.201-0.385,5.668-8.266C131.203,22.002,126.72,17.798,126.72,17.798z"/>
			<path fill="#42210B" d="M19.448,10.305c-2,0-8,8-10.667,12c-2.667,4-4,8.667,1.333,12.667s12,5.334,15.333,5.334s12-2,13.333-6
				s2-6.668,2-9.334c0-2.667,0-8-3.333-12S19.448,10.305,19.448,10.305z"/>
		</g>
	</g>
	<path d="M309.547,46.028c-5.83,0-9.643-8.389-10.67-10.959l-0.215-0.537v-0.291c-0.232,0.025-0.462,0.051-0.686,0.076
		c-0.512,0.055-1.004,0.109-1.449,0.178c-0.638,1.135-1.643,2.117-2.58,3.037c-0.961,0.943-1.956,1.916-2.596,2.98
		c-0.646,1.08-2.251,2.893-5.725,2.893c-3.311,0-7.366-1.676-10.186-3.084c-0.459-0.229-1.206-0.51-1.993-0.805
		c-0.865-0.324-1.837-0.689-2.809-1.125c-1.993,2.357-4.95,3.947-7.951,5.309c-1.979,0.9-4.177,1.355-6.528,1.355
		c-4.798,0-9.21-1.846-12.13-3.07c-0.767-0.322-1.637-0.686-1.975-0.77c-1.395-0.348-2.522-1.145-3.412-2.074
		c-4.033,3.064-10.62,4.164-13.195,4.164c-3.425,0-10.888-1.248-17.133-5.936c-3.283-2.463-7.912-7.91-2.028-16.729
		c5.725-8.595,10.067-13.073,12.913-13.323h-0.022c0.101-0.01,2.51-0.225,5.635-0.225c4.99,0,8.767,0.519,11.424,1.579
		c0.08-0.097,0.16-0.193,0.24-0.289l0.226-0.269l0.279-0.211l2.665-1.999l1.285-0.961l1.514,0.533l11.334,4l2.196,0.775l-0.05,0.542
		c0.595,0.121,1.182,0.299,1.756,0.535c0.1-0.263,0.205-0.529,0.313-0.802c1.269-3.176,3.188-7.974,10.495-7.974
		c0.527,0,1.081,0.026,1.653,0.076c0.358-0.022,1.031-0.056,1.927-0.056c4.46,0,11.888,0.771,16.196,5.403
		c1.843-0.912,3.897-1.386,6.07-1.386c0.357,0,0.72,0.012,1.087,0.039c0.531-0.047,1.711-0.135,3.158-0.135
		c2.357,0,4.404,0.224,6.115,0.668c1.381-1.696,3.137-3.026,5.809-3.026c1.006,0,1.994,0.174,3.139,0.377l0.553,0.096
		c0.332-0.031,0.791-0.06,1.348-0.06c1.543,0,4.217,0.242,6.852,1.626c2.109-1.54,4.691-2.903,7.654-2.903
		c1.949,0,3.824,0.593,5.574,1.764c0.451,0.226,1.418,0.742,2.645,1.583c0.15-0.006,0.301-0.01,0.449-0.01
		c1.953,0,3.826,0.595,5.576,1.766c0.365,0.182,1.053,0.545,1.938,1.111c4.428-5.458,6.285-6.135,7.725-6.176
		c0.523-0.045,2.744-0.215,5.533-0.215c7.826,0,12.709,1.296,14.93,3.959c1.857,2.227,3.082,5.031,3.646,8.351
		c0.562,0.443,1.164,0.984,1.828,1.653c2.342-1.47,5.799-3.297,8.508-3.297c0.881,0,1.684,0.178,2.387,0.529
		c3.07,1.534,4.066,5.899,5.051,11.444c0.156,0.881,0.348,1.973,0.455,2.293c0.982,2.941-1.23,5.104-3.006,6.84
		c-0.965,0.943-1.963,1.92-2.6,2.982c-0.65,1.082-2.256,2.895-5.729,2.895c-3.32,0-7.371-1.68-10.186-3.086
		c-0.461-0.23-1.205-0.51-1.996-0.805c-0.424-0.158-0.875-0.328-1.34-0.51c-3.74,2.018-8.754,2.965-11.324,2.965
		s-5.779-0.602-8.832-1.635c-1.098,0.666-2.381,1.328-3.928,2.029c-1.979,0.9-4.176,1.357-6.527,1.357
		c-3.197,0-6.229-0.84-8.541-1.658c-0.652,0.297-1.311,0.498-1.922,0.688c-0.68,0.207-1.322,0.4-1.869,0.699l-1.707,0.924
		l-1.711,0.928c-2.586,1.398-5.811,1.855-8.928,2.295c-1.736,0.246-3.529,0.502-5.117,0.906
		C310.547,45.963,310.047,46.028,309.547,46.028L309.547,46.028z"/>
	<path fill="#42210B" d="M354.115,6.305c-2,0-8,8-10.666,12c-2.668,4-4.002,8.667,1.332,12.667s12,5.334,15.334,5.334s12-2,13.334-6
		c1.332-4,2-6.667,2-9.334s0-8-3.334-12S354.115,6.305,354.115,6.305z"/>
	<path fill="#603813" d="M258.115,14.971c-6.667-4.667-12.667,4-15.334,5.333c-2.666,1.333-4,13.333-4,13.333s1.334,4,4,4.666
		c2.667,0.666,11.333,6,18.667,2.666c7.333-3.332,10.667-6.666,7.333-14.666C265.448,18.304,258.115,14.971,258.115,14.971z"/>
	<path fill="#603813" d="M334.115,7.638c-6.666-4.667-12.666,4-15.334,5.333c-2.666,1.333-4,13.334-4,13.334s1.334,4,4,4.666
		c2.668,0.666,11.334,6,18.668,2.666c7.332-3.332,10.666-6.666,7.332-14.666C341.449,10.971,334.115,7.638,334.115,7.638z"/>
	<path fill="#2B1606" d="M342.781,10.971c-6.666-4.667-12.666,4-15.332,5.333c-2.668,1.333-4,13.333-4,13.333s1.332,4,4,4.666
		c2.666,0.666,11.332,6,18.666,2.666c7.334-3.332,10.666-6.664,7.334-14.665C350.115,14.304,342.781,10.971,342.781,10.971z"/>
	<path fill="#42210B" d="M270.114,5.637c-6.666-0.667-8,2.667-9.333,6s-2.667,7.333-2,10s5.333,6.666,10,7.334
		c4.667,0.666,10-0.002,12-3.334c2-3.333,10-2.667,7.333-12C285.448,4.304,270.114,5.637,270.114,5.637z"/>
	<path fill="#693411" d="M238.781,10.303c-3.334,4-8.001,10.668-5.334,13.334s8,6.666,10,5.332c2-1.332,8.667-4,8.667-6.666
		s0.667-10,0.667-10l-11.334-4L238.781,10.303z"/>
	<path fill="#693411" d="M295.448,9.638c-7.334-0.667-12,5.333-11.334,10.667c0.667,5.333,2.667,8.667,4.667,9.333
		s3.334,2.666,6.667,2s8.001,0,10.001-4.666c2-4.667,3.332-8,2.666-13.333S295.448,9.638,295.448,9.638z"/>
	<path fill="#2B1606" d="M280.115,23.637c-5.334-6-6.667-5.333-9.334-0.667c-2.666,4.667-3.333,4-3.333,8
		c0,3.998,6.667,5.332,9.333,6.666c2.667,1.332,10,4.666,12,1.332c2-3.332,6.001-5.332,5.334-7.332s-1.333-10.667-4-12
		S280.115,23.637,280.115,23.637z"/>
	<path fill="#2B1606" d="M379.449,20.971c-5.334-6-6.668-5.333-9.334-0.667s-3.334,4-3.334,7.999c0,4,6.668,5.334,9.334,6.668
		c2.666,1.332,10,4.666,12,1.332c2-3.332,6-5.332,5.334-7.332c-0.668-2-1.334-10.667-4-12
		C386.781,15.637,379.449,20.971,379.449,20.971z"/>
	<path fill="#42210B" d="M314.115,7.638c-4-0.667-5.334-1.333-8,2.667s-4,5.333-2.666,8c1.332,2.667,4,4.001,6,4.667
		s2.666,3.332,7.332-0.667c4.668-4,12-1.334,8.668-8.667C322.115,6.304,314.115,7.638,314.115,7.638z"/>
	<path fill="#603813" d="M326.721,17.798c-5.164-3.057-9.52-4.861-14.531-1.629c-5.012,3.231-8.793,1.767-9.66,9.775
		s-0.867,8.008-0.867,8.008s4.061,10.152,8.627,8.982s9.941-1.088,13.361-2.938c3.418-1.85,0,0,3.418-1.85
		c3.42-1.85,7.201-0.385,5.668-8.266C331.203,22.002,326.721,17.798,326.721,17.798z"/>
	<path fill="#42210B" d="M219.448,10.305c-2,0-7.999,8-10.666,12c-2.667,4-4.001,8.667,1.333,12.667c5.333,4,12,5.334,15.333,5.334
		c3.334,0,12.001-2,13.334-6s2-6.668,2-9.334c0-2.667,0-8-3.334-12C234.115,8.971,219.448,10.305,219.448,10.305z"/>
	<path d="M508.546,46.028c-5.83,0-9.643-8.389-10.67-10.959l-0.215-0.537v-0.291c-0.231,0.025-0.461,0.051-0.685,0.076
		c-0.513,0.055-1.005,0.109-1.45,0.178c-0.637,1.135-1.643,2.117-2.579,3.037c-0.962,0.943-1.956,1.916-2.596,2.98
		c-0.646,1.08-2.251,2.893-5.725,2.893c-3.312,0-7.366-1.676-10.187-3.084c-0.459-0.229-1.205-0.51-1.992-0.805
		c-0.865-0.324-1.838-0.689-2.809-1.125c-1.994,2.357-4.95,3.947-7.951,5.309c-1.979,0.9-4.178,1.355-6.529,1.355
		c-4.797,0-9.209-1.846-12.129-3.07c-0.768-0.322-1.637-0.686-1.975-0.77c-1.395-0.348-2.522-1.145-3.412-2.074
		c-4.033,3.064-10.621,4.164-13.195,4.164c-3.425,0-10.889-1.248-17.133-5.936c-3.283-2.463-7.912-7.91-2.028-16.729
		c5.725-8.595,10.067-13.073,12.913-13.323h-0.022c0.101-0.01,2.509-0.225,5.634-0.225c4.991,0,8.768,0.518,11.425,1.578
		c0.08-0.097,0.16-0.193,0.24-0.289l0.226-0.269l0.279-0.212l2.664-1.998l1.286-0.962l1.513,0.532l11.335,4.001l2.196,0.774
		l-0.05,0.542c0.595,0.12,1.181,0.3,1.755,0.535c0.101-0.263,0.205-0.529,0.314-0.802c1.269-3.176,3.188-7.974,10.495-7.974
		c0.527,0,1.081,0.026,1.653,0.075c0.358-0.021,1.031-0.055,1.927-0.055c4.46,0,11.888,0.771,16.196,5.402
		c1.843-0.912,3.896-1.386,6.07-1.386c0.357,0,0.72,0.013,1.087,0.038c0.53-0.047,1.71-0.135,3.157-0.135
		c2.357,0,4.404,0.224,6.116,0.668c1.38-1.695,3.136-3.025,5.809-3.025c1.005,0,1.993,0.174,3.138,0.377l0.553,0.096
		c0.332-0.03,0.792-0.059,1.348-0.059c1.543,0,4.217,0.242,6.852,1.625c2.11-1.539,4.691-2.902,7.654-2.902
		c1.949,0,3.824,0.592,5.574,1.764c0.451,0.225,1.418,0.742,2.646,1.582c0.149-0.006,0.3-0.01,0.449-0.01
		c1.952,0,3.825,0.594,5.575,1.766c0.365,0.182,1.054,0.545,1.938,1.111c4.428-5.459,6.286-6.135,7.726-6.176
		c0.522-0.045,2.743-0.216,5.532-0.216c7.826,0,12.709,1.296,14.93,3.96c1.857,2.227,3.082,5.031,3.646,8.35
		c0.562,0.443,1.164,0.984,1.828,1.653c2.342-1.47,5.799-3.297,8.509-3.297c0.88,0,1.684,0.179,2.387,0.528
		c3.069,1.534,4.065,5.899,5.05,11.445c0.156,0.881,0.349,1.973,0.455,2.293c0.982,2.941-1.23,5.104-3.006,6.84
		c-0.965,0.943-1.962,1.92-2.6,2.982c-0.65,1.082-2.256,2.895-5.729,2.895c-3.319,0-7.371-1.68-10.186-3.086
		c-0.46-0.23-1.204-0.51-1.996-0.805c-0.424-0.158-0.875-0.328-1.34-0.51c-3.74,2.018-8.754,2.965-11.324,2.965
		c-2.569,0-5.778-0.602-8.831-1.635c-1.099,0.666-2.382,1.328-3.929,2.029c-1.979,0.9-4.176,1.357-6.527,1.357
		c-3.197,0-6.228-0.84-8.541-1.658c-0.651,0.297-1.31,0.498-1.922,0.688c-0.68,0.207-1.321,0.4-1.869,0.699l-1.707,0.924
		l-1.711,0.928c-2.585,1.398-5.811,1.855-8.927,2.295c-1.736,0.246-3.53,0.502-5.118,0.906
		C509.547,45.963,509.047,46.028,508.546,46.028L508.546,46.028z"/>
	<path fill="#42210B" d="M553.114,6.305c-2,0-8,8-10.666,12c-2.668,4-4.001,8.667,1.332,12.667c5.334,4,12,5.334,15.334,5.334
		s12-2,13.334-6c1.332-4,2-6.667,2-9.333c0-2.667,0-8-3.334-12S553.114,6.305,553.114,6.305z"/>
	<path fill="#603813" d="M457.114,14.971c-6.666-4.667-12.666,3.999-15.333,5.333s-4,13.333-4,13.333s1.333,4,4,4.666
		s11.333,6,18.667,2.666c7.333-3.332,10.666-6.666,7.333-14.666C464.448,18.304,457.114,14.971,457.114,14.971z"/>
	<path fill="#603813" d="M533.114,7.638c-6.666-4.666-12.666,4-15.333,5.334c-2.667,1.333-4,13.333-4,13.333s1.333,4,4,4.666
		s11.333,6,18.667,2.666c7.333-3.332,10.666-6.666,7.333-14.666C540.448,10.972,533.114,7.638,533.114,7.638z"/>
	<path fill="#2B1606" d="M541.781,10.972c-6.667-4.668-12.667,3.999-15.333,5.332c-2.667,1.334-4,13.333-4,13.333s1.333,4,4,4.666
		c2.666,0.666,11.332,6,18.666,2.666c7.334-3.332,10.667-6.664,7.334-14.666C549.114,14.304,541.781,10.972,541.781,10.972z"/>
	<path fill="#42210B" d="M469.114,5.638c-6.666-0.667-8,2.666-9.334,6c-1.332,3.333-2.666,7.332-2,10
		c0.668,2.666,5.334,6.666,10,7.333c4.668,0.666,10-0.002,12-3.334c2-3.333,10-2.667,7.334-12
		C484.448,4.304,469.114,5.638,469.114,5.638z"/>
	<path fill="#693411" d="M437.78,10.304c-3.333,4-8,10.668-5.333,13.334c2.667,2.666,8,6.666,10,5.332c2-1.332,8.667-4,8.667-6.666
		s0.666-10,0.666-10l-11.333-4L437.78,10.304z"/>
	<path fill="#693411" d="M494.448,9.638c-7.334-0.666-12,5.333-11.334,10.666c0.666,5.333,2.666,8.667,4.666,9.333
		s3.334,2.666,6.668,2c3.332-0.666,8,0,10-4.666c2-4.667,3.332-8,2.666-13.333S494.448,9.638,494.448,9.638z"/>
	<path fill="#2B1606" d="M479.114,23.638c-5.333-6-6.666-5.334-9.333-0.667c-2.667,4.667-3.333,4-3.333,8
		c0,3.998,6.666,5.332,9.333,6.666c2.667,1.332,10,4.666,12,1.332c2-3.332,6.001-5.332,5.333-7.332c-0.666-2-1.332-10.667-4-12
		C486.448,18.304,479.114,23.638,479.114,23.638z"/>
	<path fill="#CFEEFF" d="M578.448,20.971c-5.334-6-6.667-5.333-9.334-0.667c-2.666,4.667-3.333,4.001-3.333,8
		c0,4,6.667,5.334,9.333,6.668c2.667,1.332,10,4.666,12,1.332c2-3.332,6.001-5.332,5.334-7.332s-1.333-10.667-4-12
		S578.448,20.971,578.448,20.971z"/>
	<path fill="#42210B" d="M513.114,7.638c-4-0.667-5.334-1.334-8,2.666s-4,5.334-2.666,8c1.332,2.668,4,4.002,6,4.668
		s2.666,3.332,7.332-0.668c4.668-4,12.001-1.334,8.668-8.666C521.114,6.304,513.114,7.638,513.114,7.638z"/>
	<path fill="#693411" d="M559.312,22.23c-2.402-0.401-3.203-0.801-4.805,1.601c-1.602,2.402-2.402,3.203-1.602,4.804
		s2.402,2.404,3.604,2.803c1.201,0.4,1.602,2.002,4.404-0.4s7.206-0.801,5.204-5.205C564.115,21.43,559.312,22.23,559.312,22.23z"/>
	<path fill="#603813" d="M525.72,17.798c-5.164-3.057-9.52-4.86-14.531-1.629c-5.012,3.23-8.793,1.768-9.66,9.775
		c-0.867,8.008-0.867,8.008-0.867,8.008s4.061,10.152,8.627,8.982c4.567-1.17,9.941-1.088,13.361-2.938c3.418-1.85,0,0,3.418-1.85
		c3.42-1.85,7.201-0.385,5.668-8.266C530.203,22.003,525.72,17.798,525.72,17.798z"/>
	<path fill="#42210B" d="M418.448,10.305c-2,0-8,8-10.666,12c-2.668,4-4.001,8.667,1.332,12.667c5.334,4,12,5.334,15.334,5.334
		s12-2,13.334-6c1.332-4,2-6.668,2-9.333c0-2.667,0-8-3.334-12S418.448,10.305,418.448,10.305z"/>
	<g>
		<path fill="#EDFFFF" d="M579.601,16.792c2,0,8,8,10.666,11.999c2.668,4,4,8.668-1.332,12.668c-5.334,4-12,5.334-15.334,5.334
			s-12-2-13.334-6c-1.332-4-2-6.668-2-9.334c0-2.668,0-8,3.334-12S579.601,16.792,579.601,16.792z"/>
		<path fill="#CFEEFF" d="M549.797,20.696c6.666-4.667,12.666,4,15.334,5.333c2.666,1.334,4,13.334,4,13.334s-1.334,4-4,4.666
			c-2.668,0.666-11.334,6-18.668,2.666c-7.332-3.332-10.666-6.666-7.332-14.666C542.463,24.03,549.797,20.696,549.797,20.696z"/>
		<path fill="#CFEEFF" d="M500.116,20.696c6.666-4.666,12.666,4,15.332,5.333c2.668,1.334,4,13.334,4,13.334s-1.332,4-4,4.666
			c-2.666,0.666-11.332,6-18.666,2.666c-7.334-3.332-10.666-6.666-7.334-14.665C492.782,24.03,500.116,20.696,500.116,20.696z"/>
		<path fill="#EBF8FF" d="M457.188,20.698c6.668-4.668,12.668,3.999,15.334,5.333s4,13.333,4,13.333s-1.334,4-4,4.666
			s-11.332,6-18.666,2.666c-7.334-3.332-10.668-6.664-7.334-14.665C449.856,24.03,457.188,20.698,457.188,20.698z"/>
		<path fill="#EDFFFF" d="M541.972,16.947c6.666-0.667,8,2.666,9.334,6c1.332,3.333,2.666,7.333,2,10
			c-0.668,2.666-5.334,6.665-10,7.333c-4.668,0.666-10-0.002-12-3.334c-2-3.333-10-2.667-7.334-11.999
			C526.638,15.613,541.972,16.947,541.972,16.947z"/>
		<path fill="#FFFFFF" d="M568.729,17.497c3.334,4,8,10.668,5.334,13.334c-2.668,2.665-8,6.665-10,5.331
			c-2-1.332-8.668-3.999-8.668-6.665s-0.666-10-0.666-10l11.334-4L568.729,17.497z"/>
		<path fill="#FFFFFF" d="M480.273,25.897c7.334-0.666,12,5.332,11.334,10.666c-0.666,5.333-2.666,8.667-4.666,9.333
			s-3.334,2.666-6.668,2c-3.332-0.666-8,0-10-4.666c-2-4.667-3.332-7.999-2.666-13.333S480.273,25.897,480.273,25.897z"/>
		<path fill="#EBF8FF" d="M494.878,19.804c5.334-6,6.666-5.334,9.334-0.668c2.666,4.667,3.332,4.001,3.332,8.001
			c0,3.998-6.666,5.332-9.332,6.666c-2.668,1.332-10,4.666-12,1.332c-2-3.332-6.002-5.332-5.334-7.332
			c0.666-2,1.332-10.667,4-11.999C487.544,14.47,494.878,19.804,494.878,19.804z"/>
		<path fill="#EBF8FF" d="M417.523,24.385c5.334-6,6.666-5.333,9.334-0.666c2.666,4.666,3.332,4,3.332,7.998
			c0,4-6.666,5.334-9.332,6.668c-2.668,1.332-10,4.666-12,1.332c-2-3.332-6.002-5.332-5.334-7.332c0.666-2,1.332-10.667,4-12
			C410.189,19.053,417.523,24.385,417.523,24.385z"/>
		<path fill="#EDFFFF" d="M470.035,18.503c3.999-0.667,5.333-1.334,7.999,2.666c2.666,4,4,5.335,2.666,8.001
			c-1.332,2.668-4,4.002-6,4.668c-1.999,0.666-2.665,3.331-7.331-0.668c-4.668-4-12.002-1.334-8.668-8.667
			C462.035,17.169,470.035,18.503,470.035,18.503z"/>
		<path fill="#FFFFFF" d="M417.802,31.989c2.402-0.4,3.203-0.801,4.805,1.602s2.402,3.203,1.602,4.805s-2.402,2.404-3.604,2.803
			c-1.201,0.4-1.602,2.002-4.404-0.4s-7.207-0.801-5.205-5.205S417.802,31.989,417.802,31.989z"/>
		<path fill="#CFEEFF" d="M429.421,20.742c5.164-3.057,9.52-4.861,14.531-1.629c5.011,3.23,8.792,1.768,9.659,9.774
			c0.867,8.008,0.867,8.008,0.867,8.008s-4.061,10.152-8.627,8.982c-4.567-1.17-9.94-1.088-13.36-2.938c-3.418-1.85,0,0-3.418-1.85
			c-3.42-1.85-7.201-0.385-5.668-8.266C424.937,24.947,429.421,20.742,429.421,20.742z"/>
		<path fill="#EDFFFF" d="M530.509,21.678c2,0,8,8,10.666,12c2.668,4,4.002,8.666-1.332,12.666s-12,5.334-15.334,5.334
			s-12-2-13.334-6c-1.332-4-2-6.668-2-9.332c0-2.668,0-8,3.334-12.001C515.843,20.345,530.509,21.678,530.509,21.678z"/>
	</g>
	<g>
		<g>
			<path fill="#00A330" d="M227.735,19.656c12.141,4.819,21.283-8.92,21.283-8.92l-1.024-2.442
				C247.994,8.294,236.8,1.709,227.735,19.656z"/>
			<path fill="#007C30" d="M249.142,11.033c0,0-5.5,2.306-17.217,7.216c6.217-2.606,16.069-9.956,16.069-9.956L249.142,11.033
				L249.142,11.033z"/>
		</g>
		<g>
			<path fill="#00A330" d="M274.708,7.85c-12.382-10.817-22.423,5.454-22.423,5.454l0.626,2.573
				C260.019,27.01,262.601,11.315,274.708,7.85z"/>
			<path fill="#007C30" d="M253.379,14.896c0,0,4.458-5.237,16.971-6.318c-10.62,2.376-16.27,9.205-16.27,9.205l-1.87-4.792
				L253.379,14.896z"/>
		</g>
		<path fill="#00A330" d="M251.463,33.459c0,0,9.292-23.614-13.182-28.766c23.411,1.438,16.316,29.556,16.316,29.556L251.463,33.459
			z"/>
	</g>
	<path fill="#42210B" d="M253.649,29.09c-4-0.666-5.334-1.333-8,2.667s-4,5.333-2.666,8c1.332,2.667,4,4.001,6,4.667
		s2.666,3.332,7.332-0.667c4.668-4,12-1.334,8.668-8.667C261.649,27.757,253.649,29.09,253.649,29.09z"/>
	<g>
		<path fill="#00A330" d="M364.548,34.819c0,0-6.613-24.5,16.295-27.125c-23.428-1.17-19.497,27.562-19.497,27.562L364.548,34.819z"
			/>
		<path fill="#00A330" d="M358.147,34.468c0,0,6.021-18.444-6.357-27.627c14.937,9.344,9.434,28.617,9.434,28.617L358.147,34.468z"
			/>
	</g>
	<path fill="#693411" d="M360.312,29.231c-2.402-0.401-3.203-0.801-4.805,1.601s-2.402,3.202-1.602,4.804s2.402,2.404,3.604,2.803
		c1.201,0.4,1.602,2.002,4.404-0.4s7.205-0.801,5.203-5.205C365.115,28.43,360.312,29.231,360.312,29.231z"/>
	<g>
	</g>
	<g>
	</g>
	<g>
	</g>
	<g>
	</g>
	<g>
	</g>
	<g>
	</g>
	<g>
	</g>
	<g>
	</g>
	<g>
	</g>
	<g>
	</g>
	<g>
	</g>
	<g>
	</g>
	<g>
	</g>
	<g>
	</g>
	<g>
	</g>
</g>
</svg>
