<svg version="1" xmlns="http://www.w3.org/2000/svg" width="475" height="125" preserveAspectRatio="xMinYMin slice" viewBox="0 0 475 125"><g fill="#EBE8C5"><path d="M163.027 25.721v-8.155c0-1.444-.289-2.454-1.01-3.32-.361-.361-.938-.577-1.588-.577-1.372 0-2.021 1.01-2.31 1.949-.217.577-.289 1.227-.289 1.949v31.901c0 1.516.361 2.526 1.083 3.32.361.361.866.577 1.516.577 1.371 0 2.021-.866 2.31-1.948.216-.505.289-1.155.289-1.949v-9.599h-3.104v-6.569h10.898v26.416h-4.619l-.938-2.526c-1.443 1.804-3.537 3.103-6.062 3.103s-4.258-.649-5.558-1.804c-1.299-1.083-2.165-2.454-2.742-3.897-.65-1.66-.938-3.608-.866-5.774v-31.252c.072-2.093.505-4.042 1.299-5.702.65-1.443 1.588-2.887 3.032-3.969 1.443-1.083 3.464-1.805 6.062-1.805s4.547.722 5.99 1.805c1.444 1.083 2.454 2.526 3.104 3.969.794 1.66 1.227 3.609 1.299 5.702v8.155h-7.796z"/><path d="M190.454 59.715l-4.042-22.374h-2.093v22.374h-7.794v-53.048h7.794c9.311 0 13.28 5.269 13.28 15.301 0 5.269-1.372 10.032-4.331 12.053l4.98 25.694h-7.794zm-6.135-29.591c1.083 0 2.526-.145 3.681-1.155 1.155-1.011 2.093-2.959 2.093-6.712 0-3.753-.938-5.774-2.093-6.784s-2.599-1.083-3.681-1.083v15.734z"/><path d="M222.863 48.817c-.072 2.166-.505 4.114-1.299 5.774-.649 1.444-1.66 2.815-3.104 3.897-1.443 1.155-3.392 1.804-5.99 1.804s-4.619-.649-6.062-1.804c-1.444-1.083-2.382-2.454-3.032-3.897-.794-1.66-1.227-3.608-1.299-5.774v-31.251c.072-2.093.505-4.042 1.299-5.702.65-1.443 1.588-2.887 3.032-3.969 1.443-1.083 3.464-1.805 6.062-1.805s4.547.722 5.99 1.805c1.444 1.083 2.454 2.526 3.104 3.969.794 1.66 1.227 3.609 1.299 5.702v31.251zm-7.795-31.251c0-1.444-.289-2.454-1.01-3.32-.361-.361-.938-.577-1.588-.577-1.372 0-2.021 1.01-2.31 1.949-.217.577-.289 1.227-.289 1.949v31.251c0 1.516.361 2.526 1.083 3.32.361.361.866.577 1.516.577 1.371 0 2.021-.866 2.31-1.949.216-.505.289-1.155.289-1.949v-31.251z"/><path d="M248.847 6.667v42.149c-.072 2.166-.505 4.114-1.299 5.774-.649 1.444-1.66 2.815-3.104 3.897-1.443 1.155-3.392 1.804-5.99 1.804-2.599 0-4.619-.649-6.063-1.804-1.443-1.083-2.381-2.454-3.031-3.897-.794-1.66-1.227-3.608-1.299-5.774v-42.149h7.794v42.149c0 1.516.361 2.526 1.083 3.32.361.361.866.577 1.516.577 1.371 0 2.021-.866 2.31-1.949.216-.505.289-1.155.289-1.949v-42.148h7.794z"/><path d="M262.778 32.073l-.649-2.454h-.433v30.097h-7.146v-53.049h6.929l7.579 27.643.649 2.454h.433v-30.097h7.145v53.048h-6.929l-7.578-27.642z"/><path d="M283.061 59.715v-53.048h6.136c7.218 0 11.114 1.443 13.208 5.485 2.021 4.042 2.309 10.682 2.309 21.075s-.288 16.961-2.309 21.002c-2.094 4.042-5.99 5.485-13.208 5.485h-6.136zm7.794-7.795c2.671 0 4.187-.289 4.98-2.887.361-1.227.65-3.104.722-5.63.072-2.526.072-5.918.072-10.249s0-7.723-.072-10.249c-.071-2.454-.36-4.331-.722-5.63-.794-2.526-2.31-2.814-4.98-2.814v37.459z"/><path d="M323.77 36.62h-6.062v23.096h-7.795v-53.049h7.795v21.941h6.062v-21.941h7.795v53.048h-7.795v-23.095z"/><path d="M357.621 48.817c-.072 2.166-.504 4.114-1.299 5.774-.65 1.444-1.66 2.815-3.104 3.897-1.443 1.155-3.393 1.804-5.99 1.804s-4.619-.649-6.062-1.804c-1.443-1.083-2.383-2.454-3.031-3.897-.795-1.66-1.227-3.608-1.299-5.774v-31.251c.072-2.093.504-4.042 1.299-5.702.648-1.443 1.588-2.887 3.031-3.969 1.443-1.083 3.465-1.805 6.062-1.805s4.547.722 5.99 1.805c1.443 1.083 2.453 2.526 3.104 3.969.795 1.66 1.227 3.609 1.299 5.702v31.251zm-7.795-31.251c0-1.444-.289-2.454-1.01-3.32-.361-.361-.938-.577-1.588-.577-1.371 0-2.021 1.01-2.311 1.949-.215.577-.287 1.227-.287 1.949v31.251c0 1.516.359 2.526 1.082 3.32.361.361.865.577 1.516.577 1.371 0 2.021-.866 2.309-1.949.217-.505.289-1.155.289-1.949v-31.251z"/><path d="M375.377 25.721v-8.155c0-1.444-.289-2.454-1.01-3.32-.361-.361-.938-.577-1.588-.577-1.371 0-2.021 1.01-2.311 1.949-.215.577-.287 1.227-.287 1.949v31.901c0 1.516.359 2.526 1.082 3.32.361.361.865.577 1.516.577 1.371 0 2.021-.866 2.309-1.948.217-.505.289-1.155.289-1.949v-9.599h-3.104v-6.569h10.898v26.416h-4.619l-.938-2.526c-1.443 1.804-3.537 3.103-6.062 3.103-2.527 0-4.258-.649-5.559-1.804-1.299-1.083-2.164-2.454-2.742-3.897-.648-1.66-.938-3.608-.865-5.774v-31.252c.072-2.093.504-4.042 1.299-5.702.648-1.443 1.588-2.887 3.031-3.969 1.443-1.083 3.465-1.805 6.062-1.805s4.547.722 5.99 1.805c1.443 1.083 2.453 2.526 3.104 3.969.795 1.66 1.227 3.609 1.299 5.702v8.155h-7.794z"/><path d="M399.99 59.715v-53.048h6.135c7.219 0 11.115 1.443 13.209 5.485 2.021 4.042 2.309 10.682 2.309 21.075s-.287 16.961-2.309 21.002c-2.094 4.042-5.99 5.485-13.209 5.485h-6.135zm7.795-7.795c2.672 0 4.188-.289 4.98-2.887.361-1.227.65-3.104.723-5.63.072-2.526.072-5.918.072-10.249s0-7.723-.072-10.249c-.072-2.454-.361-4.331-.723-5.63-.793-2.526-2.309-2.814-4.98-2.814v37.459z"/><path d="M424.676 59.715l8.012-53.048h9.527l8.012 53.048h-7.578l-1.443-10.826h-7.508l-1.443 10.826h-7.579zm13.209-35.798l-.217-1.371h-.434l-.217 1.371-2.236 16.745h5.34l-2.236-16.745z"/><path d="M461.199 23.628l.217.505h.145l.217-.505 3.896-16.961h7.65l-7.939 30.458v22.59h-7.795v-22.59l-7.94-30.458h7.65l3.899 16.961z"/><path d="M164.47 115.856l-4.042-22.374h-2.093v22.374h-7.795v-53.048h7.795c9.311 0 13.28 5.269 13.28 15.301 0 5.269-1.372 10.032-4.331 12.053l4.98 25.694h-7.794zm-6.135-29.591c1.083 0 2.526-.145 3.681-1.155 1.155-1.011 2.093-2.959 2.093-6.712 0-3.753-.938-5.774-2.093-6.784s-2.599-1.083-3.681-1.083v15.734z"/><path d="M196.878 104.958c-.072 2.166-.505 4.114-1.299 5.774-.649 1.444-1.66 2.815-3.104 3.897-1.443 1.155-3.392 1.804-5.99 1.804s-4.619-.649-6.062-1.804c-1.444-1.083-2.382-2.454-3.032-3.897-.794-1.66-1.227-3.608-1.299-5.774v-31.251c.072-2.093.505-4.042 1.299-5.702.65-1.443 1.588-2.887 3.032-3.969 1.443-1.083 3.464-1.805 6.062-1.805s4.547.722 5.99 1.805c1.444 1.083 2.454 2.526 3.104 3.969.794 1.66 1.227 3.609 1.299 5.702v31.251zm-7.795-31.251c0-1.444-.289-2.454-1.01-3.32-.361-.361-.938-.577-1.588-.577-1.372 0-2.021 1.01-2.31 1.949-.217.577-.289 1.227-.289 1.949v31.251c0 1.516.361 2.526 1.083 3.32.361.361.866.577 1.516.577 1.371 0 2.021-.866 2.31-1.949.216-.505.289-1.155.289-1.949v-31.251z"/><path d="M222.863 62.808v42.149c-.072 2.166-.505 4.114-1.299 5.774-.649 1.444-1.66 2.815-3.104 3.897-1.443 1.155-3.392 1.804-5.99 1.804-2.599 0-4.619-.649-6.063-1.804-1.443-1.083-2.381-2.454-3.031-3.897-.794-1.66-1.227-3.608-1.299-5.774v-42.149h7.794v42.149c0 1.516.361 2.526 1.083 3.32.361.361.866.577 1.516.577 1.371 0 2.021-.866 2.31-1.949.216-.505.289-1.155.289-1.949v-42.148h7.794z"/><path d="M236.794 88.213l-.649-2.454h-.433v30.097h-7.145v-53.048h6.929l7.578 27.643.649 2.454h.433v-30.097h7.145v53.048h-6.929l-7.578-27.643z"/><path d="M257.078 115.856v-53.048h6.135c7.217 0 11.115 1.443 13.208 5.485 2.021 4.042 2.31 10.682 2.31 21.075s-.288 16.961-2.31 21.002c-2.093 4.042-5.99 5.485-13.208 5.485h-6.135zm7.794-7.795c2.67 0 4.186-.289 4.98-2.887.361-1.227.65-3.104.722-5.63.072-2.526.072-5.918.072-10.249s0-7.723-.072-10.249c-.072-2.454-.361-4.331-.722-5.63-.794-2.526-2.31-2.814-4.98-2.814v37.459z"/><path d="M304.643 62.808v42.149c-.072 2.166-.506 4.114-1.3 5.774-.649 1.444-1.66 2.815-3.104 3.897-1.443 1.155-3.392 1.804-5.99 1.804s-4.619-.649-6.063-1.804c-1.443-1.083-2.381-2.454-3.031-3.897-.793-1.66-1.227-3.608-1.299-5.774v-42.149h7.795v42.149c0 1.516.361 2.526 1.083 3.32.36.361.866.577 1.516.577 1.371 0 2.021-.866 2.31-1.949.217-.505.289-1.155.289-1.949v-42.148h7.794z"/><path d="M310.346 62.808h7.795c3.393 0 6.785.866 9.383 3.32 2.598 2.454 4.33 6.496 4.33 12.559 0 6.062-1.732 10.032-4.33 12.486s-5.99 3.464-9.383 3.464v21.219h-7.795v-53.048zm7.795 23.89c2.382 0 3.897-.433 4.764-1.66.866-1.155 1.082-3.104 1.082-6.062s-.216-5.052-1.082-6.352c-.866-1.299-2.382-1.876-4.764-1.876v15.95z"/></g><path d="M107.721 109.126h-75.176c-5.172 0-8.023-2.346-9.503-4.312-2.173-2.886-2.875-6.93-1.833-10.554l18.265-65.954c-.521-.351-1.026-.736-1.502-1.153-4.788-4.181-6.114-10.229-3.021-13.77 1.32-1.514 3.303-2.347 5.582-2.347 1.332 0 2.713.275 4.08.805 1.98-3.251 4.98-5.012 8.63-5.012h33.781c3.851 0 6.762 1.659 8.684 4.941 1.307-.483 2.625-.735 3.896-.735 2.281 0 4.264.834 5.586 2.348 1.554 1.78 2.042 4.348 1.334 7.046-.638 2.441-2.184 4.828-4.353 6.723-.446.388-.913.751-1.4 1.083l18.29 66.046.025.085.017.087c.796 4.203-.033 8.164-2.271 10.865-1.439 1.737-4.187 3.808-9.111 3.808z"/><g fill="#754C24"><ellipse transform="matrix(.658 -.753 .753 .658 -.81 39.888)" cx="43.485" cy="20.835" rx="6.245" ry="9.188"/><ellipse transform="matrix(-.658 -.753 .753 -.658 144.527 107.349)" cx="96.655" cy="20.835" rx="6.245" ry="9.188"/></g><path fill="#603813" d="M116.999 94.851c1.07 5.65-1.072 12.134-9.278 12.134h-75.176c-8.505 0-10.647-7.375-9.278-12.134l21.41-77.315c1.129-4.997 3.835-8.564 8.564-8.564h33.781c4.73 0 7.314 3.032 8.564 8.564l21.413 77.315z"/><circle cx="61.952" cy="27.347" r="4.104"/><g fill="#EBE8C5"><path d="M69.267 51.792c0 .789-.639 1.428-1.427 1.428h-6.245c-.789 0-1.427-.639-1.427-1.428v-13.739c0-.788.639-1.428 1.427-1.428h6.245c.788 0 1.427.64 1.427 1.428v13.739z"/><path d="M79.973 51.792c0 .789-.639 1.428-1.428 1.428h-6.245c-.788 0-1.427-.639-1.427-1.428v-13.739c0-.788.64-1.428 1.427-1.428h6.245c.789 0 1.428.64 1.428 1.428v13.739z"/></g><ellipse fill="#8C6239" cx="70.07" cy="39.837" rx="10.966" ry="7.315"/><circle cx="70.069" cy="35.198" r="4.104"/><circle cx="78.188" cy="27.347" r="4.104"/><circle fill="#fff" cx="61.952" cy="24.85" r="1.071"/><circle fill="#fff" cx="78.188" cy="24.85" r="1.07"/><g fill="#8C6239"><polygon points="31.803,64.024 42.238,72.251 46.283,70.586 35.765,49.722"/><circle cx="41.703" cy="73.381" r="2.409"/><circle cx="45.629" cy="72.49" r="2.409"/><circle cx="46.342" cy="69.456" r="2.409"/></g><g fill="#8C6239"><polygon points="108.478,64.024 98.043,72.251 93.999,70.586 104.517,49.722"/><circle cx="98.578" cy="73.381" r="2.408"/><circle cx="94.653" cy="72.49" r="2.409"/><circle cx="93.94" cy="69.456" r="2.409"/></g><path d="M76.878 121.241c-4.16 0-6.882-5.987-7.615-7.821l-.153-.384v-.207l-.489.054c-.366.04-.717.078-1.034.127-.456.81-1.172 1.511-1.842 2.167-.685.674-1.396 1.368-1.852 2.128-.461.771-1.607 2.064-4.086 2.064-2.363 0-5.257-1.196-7.269-2.201-.328-.163-.861-.363-1.422-.574-.618-.23-1.312-.491-2.005-.804-1.423 1.684-3.532 2.817-5.675 3.789-1.412.644-2.981.968-4.659.968-3.424 0-6.573-1.318-8.657-2.191-.547-.229-1.168-.489-1.41-.55-.994-.247-1.799-.816-2.435-1.479-2.878 2.187-7.579 2.972-9.417 2.972-2.444 0-7.77-.892-12.228-4.235-2.343-1.759-5.646-5.646-1.446-11.94 4.085-6.134 7.185-9.33 9.215-9.508h-.016c.072-.008 1.791-.161 4.021-.161 3.562 0 6.257.369 8.152 1.126l.172-.206.161-.192.199-.15 1.902-1.427.917-.686 1.08.38 8.09 2.854 1.566.553-.035.388c.425.086.843.214 1.253.381l.223-.571c.906-2.267 2.276-5.69 7.491-5.69.376 0 .771.019 1.179.054.256-.016.737-.04 1.375-.04 3.183 0 8.484.55 11.559 3.855 1.315-.65 2.782-.988 4.333-.988.255 0 .514.009.776.027.379-.034 1.221-.097 2.253-.097 1.682 0 3.144.16 4.365.477.985-1.209 2.238-2.158 4.146-2.158.717 0 1.422.123 2.239.269l.395.067c.237-.021.565-.041.961-.041 1.101 0 3.01.173 4.89 1.16 1.506-1.099 3.349-2.071 5.463-2.071 1.391 0 2.729.422 3.978 1.259.322.159 1.013.529 1.889 1.129l.321-.008c1.393 0 2.73.425 3.979 1.26.261.13.752.39 1.383.794 3.161-3.896 4.486-4.378 5.514-4.407.373-.032 1.958-.154 3.949-.154 5.585 0 9.07.925 10.655 2.826 1.326 1.589 2.2 3.591 2.603 5.96.401.315.831.702 1.305 1.179 1.671-1.049 4.138-2.353 6.073-2.353.627 0 1.201.128 1.704.377 2.19 1.095 2.901 4.21 3.604 8.168.111.629.249 1.409.325 1.637.701 2.1-.879 3.643-2.146 4.882-.688.674-1.4 1.37-1.855 2.129-.465.771-1.61 2.064-4.089 2.064-2.369 0-5.26-1.197-7.268-2.202-.329-.163-.86-.363-1.426-.574l-.957-.363c-2.669 1.44-6.247 2.116-8.081 2.116s-4.124-.43-6.303-1.167c-.784.475-1.7.948-2.804 1.448-1.412.644-2.98.969-4.659.969-2.281 0-4.444-.599-6.095-1.183-.465.211-.935.354-1.373.489-.484.148-.942.286-1.334.499l-1.218.659-1.221.663c-1.845.997-4.146 1.323-6.371 1.638-1.24.176-2.52.357-3.653.647-.345.084-.702.131-1.06.131z"/><path fill="#42210B" d="M108.687 92.89c-1.427 0-5.709 5.709-7.612 8.564-1.904 2.855-2.856 6.186.95 9.04 3.807 2.855 8.564 3.807 10.944 3.807 2.378 0 8.563-1.428 9.516-4.282.951-2.855 1.428-4.758 1.428-6.661s0-5.709-2.38-8.564c-2.379-2.855-12.846-1.904-12.846-1.904z"/><path fill="#603813" d="M40.172 99.075c-4.758-3.331-9.04 2.854-10.943 3.807-1.903.952-2.855 9.516-2.855 9.516s.952 2.854 2.855 3.331c1.903.475 8.088 4.282 13.323 1.902 5.233-2.379 7.613-4.757 5.233-10.468-2.379-5.709-7.613-8.088-7.613-8.088z"/><path fill="#603813" d="M94.413 93.841c-4.757-3.33-9.04 2.855-10.943 3.808-1.903.95-2.855 9.515-2.855 9.515s.952 2.855 2.855 3.331 8.088 4.283 13.323 1.902c5.232-2.378 7.612-4.757 5.232-10.467-2.377-5.709-7.612-8.089-7.612-8.089z"/><path fill="#2B1606" d="M100.598 96.221c-4.758-3.332-9.04 2.854-10.942 3.805-1.903.952-2.855 9.517-2.855 9.517s.952 2.854 2.855 3.331c1.902.475 8.088 4.282 13.322 1.902 5.234-2.379 7.613-4.757 5.234-10.467-2.379-5.71-7.614-8.088-7.614-8.088z"/><path fill="#42210B" d="M48.737 92.415c-4.758-.477-5.71 1.902-6.661 4.282-.952 2.378-1.903 5.232-1.427 7.137.476 1.902 3.806 4.757 7.137 5.233 3.331.476 7.137-.001 8.564-2.378 1.427-2.38 7.136-1.905 5.234-8.565-1.904-6.662-12.847-5.709-12.847-5.709z"/><path fill="#693411" d="M26.374 95.744c-2.378 2.855-5.709 7.614-3.805 9.518 1.902 1.901 5.709 4.757 7.137 3.805 1.427-.951 6.185-2.854 6.185-4.757 0-1.903.476-7.138.476-7.138l-8.088-2.854-1.905 1.426z"/><path fill="#693411" d="M66.817 95.269c-5.234-.476-8.565 3.806-8.089 7.612.476 3.808 1.903 6.186 3.331 6.661 1.427.476 2.379 1.903 4.758 1.428 2.378-.476 5.71 0 7.137-3.33 1.428-3.331 2.378-5.71 1.903-9.517l-9.04-2.854z"/><path fill="#2B1606" d="M55.874 105.261c-3.807-4.283-4.758-3.808-6.662-.478-1.903 3.331-2.379 2.856-2.379 5.711 0 2.854 4.758 3.806 6.661 4.757 1.903.951 7.138 3.331 8.565.951 1.426-2.378 4.282-3.806 3.805-5.232-.476-1.428-.951-7.613-2.854-8.564-1.903-.952-7.136 2.855-7.136 2.855z"/><path fill="#2B1606" d="M126.768 103.357c-3.807-4.282-4.758-3.806-6.662-.476-1.902 3.33-2.378 2.855-2.378 5.709 0 2.855 4.757 3.807 6.661 4.759 1.902.951 7.137 3.33 8.564.951 1.428-2.379 4.283-3.806 3.806-5.233-.476-1.428-.95-7.613-2.854-8.564-1.904-.952-7.137 2.854-7.137 2.854z"/><path fill="#42210B" d="M80.139 93.841c-2.854-.476-3.807-.952-5.709 1.902-1.902 2.855-2.855 3.808-1.902 5.71.95 1.904 2.854 2.856 4.282 3.332 1.427.476 1.903 2.377 5.232-.477 3.331-2.855 8.565-.952 6.186-6.186-2.378-5.233-8.089-4.281-8.089-4.281z"/><path fill="#693411" d="M113.11 104.256c-1.714-.287-2.286-.572-3.429 1.143-1.143 1.714-1.714 2.285-1.143 3.429.571 1.144 1.714 1.715 2.571 2 .857.287 1.144 1.429 3.144-.286 2-1.714 5.142-.57 3.713-3.714l-4.856-2.572z"/><path fill="#603813" d="M89.136 101.093c-3.686-2.183-6.795-3.47-10.372-1.163-3.577 2.306-6.275 1.262-6.895 6.977l-.619 5.716s2.898 7.245 6.157 6.41c3.259-.836 7.095-.776 9.536-2.097l2.439-1.319c2.44-1.321 5.139-.276 4.044-5.899-1.091-5.624-4.29-8.625-4.29-8.625z"/><path fill="#42210B" d="M12.577 95.745c-1.428 0-5.709 5.71-7.612 8.565-1.903 2.854-2.855 6.185.951 9.04 3.806 2.854 8.564 3.806 10.944 3.806 2.378 0 8.564-1.427 9.515-4.281.952-2.855 1.428-4.76 1.428-6.662s0-5.71-2.378-8.563c-2.381-2.857-12.848-1.905-12.848-1.905z"/></svg>
