<?xml version="1.0" encoding="utf-8"?>
<!-- Generator: Adobe Illustrator 16.0.3, SVG Export Plug-In . SVG Version: 6.00 Build 0)  -->
<!DOCTYPE svg PUBLIC "-//W3C//DTD SVG 1.0//EN" "http://www.w3.org/TR/2001/REC-SVG-20010904/DTD/svg10.dtd">
<svg version="1.0" id="Layer_1" xmlns="http://www.w3.org/2000/svg" xmlns:xlink="http://www.w3.org/1999/xlink" x="0px" y="0px"
	 width="200px" height="82px" viewBox="0 0 200 82" enable-background="new 0 0 200 82" xml:space="preserve">
<path opacity="0.5" d="M171.398,62.49c-0.799-0.344-1.61-0.67-2.434-0.971l-9.952-57.424c-2.56,0.018-4.564,0.17-5.056,0.212
	c-1.439,0.041-3.298,0.717-7.726,6.176c-0.884-0.566-1.572-0.93-1.938-1.111c-1.75-1.172-3.623-1.766-5.575-1.766
	c-0.149,0-0.3,0.004-0.449,0.01c-1.228-0.84-2.194-1.357-2.646-1.582c-1.75-1.172-3.625-1.764-5.574-1.764
	c-2.963,0-5.544,1.363-7.654,2.902c-2.635-1.383-5.309-1.625-6.852-1.625c-0.556,0-1.016,0.028-1.348,0.059l-0.553-0.096
	c-1.145-0.203-2.133-0.377-3.138-0.377c-2.673,0-4.429,1.33-5.809,3.025c-1.712-0.444-3.759-0.668-6.116-0.668
	c-1.447,0-2.627,0.088-3.157,0.135c-0.367-0.025-0.729-0.038-1.087-0.038c-2.174,0-4.228,0.474-6.07,1.386
	C83.958,4.342,76.53,3.571,72.07,3.571c-0.896,0-1.568,0.033-1.927,0.055c-0.572-0.049-1.126-0.075-1.653-0.075
	c-7.308,0-9.227,4.798-10.495,7.974c-0.109,0.272-0.214,0.539-0.314,0.802c-0.574-0.235-1.16-0.415-1.755-0.535l0.05-0.542
	l-2.196-0.774L42.444,6.474l-1.513-0.532l-1.286,0.962l-2.664,1.998l-0.279,0.212l-0.226,0.269c-0.08,0.096-0.16,0.192-0.24,0.289
	c-0.649-0.26-1.368-0.485-2.153-0.68l53.144,52.466c-0.511,0.314-0.979,0.662-1.396,1.031c-4.191,3.738-2.789,9.152,3.189,12.32
	c2.553,1.354,5.632,2.098,8.67,2.098c1.774,0,3.471-0.246,5.017-0.721c4.341,2.91,9.265,4.482,14.128,4.482h45.025
	c5.131,0,8.144-1.482,8.983-4.42c1.996,0.434,3.888,0.66,5.58,0.66c3.039,0,5.244-0.746,6.213-2.1
	c1.14-1.594,0.444-3.891-1.912-6.305C178.595,66.32,175.28,64.186,171.398,62.49z"/>
<g>
</g>
<g>
</g>
<g>
</g>
<g>
</g>
<g>
</g>
<g>
</g>
<g>
</g>
<g>
</g>
<g>
</g>
<g>
</g>
<g>
</g>
<g>
</g>
<g>
</g>
<g>
</g>
<g>
</g>
</svg>
