<svg version="1" xmlns="http://www.w3.org/2000/svg" width="800" height="608"><path d="M153.407 148.416h-105.333c-7.247 0-11.242-3.285-13.316-6.041-3.045-4.043-4.028-9.71-2.568-14.787l25.592-92.412c-.731-.493-1.437-1.033-2.104-1.616-6.708-5.857-8.566-14.332-4.232-19.294 1.849-2.119 4.628-3.286 7.821-3.286 1.866 0 3.802.386 5.717 1.126 2.773-4.554 6.979-7.022 12.091-7.022h47.333c5.396 0 9.475 2.326 12.167 6.925 1.831-.678 3.68-1.031 5.459-1.031 3.195 0 5.975 1.169 7.826 3.288 2.179 2.495 2.861 6.092 1.871 9.873-.895 3.42-3.061 6.766-6.1 9.419-.625.544-1.278 1.052-1.961 1.52l25.627 92.539.035.12.023.121c1.115 5.89-.046 11.439-3.182 15.225-2.015 2.431-5.866 5.333-12.766 5.333z"/><g fill="#754C24"><ellipse transform="matrix(.658 -.753 .753 .658 3.09 56.213)" cx="63.403" cy="24.707" rx="8.75" ry="12.875"/><ellipse transform="matrix(-.658 -.753 .753 -.658 209.999 144.83)" cx="137.903" cy="24.707" rx="8.75" ry="12.875"/></g><path fill="#603813" d="M166.407 128.416c1.499 7.916-1.501 17-13 17h-105.333c-11.917 0-14.917-10.334-13-17l30-108.333c1.583-7.001 5.373-12 12-12h47.333c6.628 0 10.249 4.249 12 12l30 108.333z"/><circle cx="89.278" cy="33.832" r="5.75"/><g fill="#EBE8C5"><path d="M99.528 68.082c0 1.104-.896 2-2 2h-8.75c-1.104 0-2-.896-2-2v-19.25c0-1.104.896-2 2-2h8.75c1.104 0 2 .896 2 2v19.25zM114.527 68.082c0 1.104-.895 2-2 2h-8.75c-1.104 0-2-.896-2-2v-19.25c0-1.104.896-2 2-2h8.75c1.105 0 2 .896 2 2v19.25z"/></g><ellipse fill="#8C6239" cx="100.653" cy="51.332" rx="15.366" ry="10.25"/><circle cx="97.653" cy="44.832" r="5.75"/><circle cx="112.027" cy="33.832" r="5.75"/><circle fill="#fff" cx="89.278" cy="30.332" r="1.5"/><circle fill="#fff" cx="112.027" cy="30.332" r="1.5"/><g fill="#8C6239"><polygon points="47.036,85.221 61.657,96.748 67.323,94.415 52.585,65.182"/><circle cx="60.907" cy="98.332" r="3.375"/><circle cx="66.407" cy="97.082" r="3.375"/><circle cx="67.407" cy="92.832" r="3.375"/></g><g fill="#8C6239"><polygon points="154.469,85.221 139.849,96.748 134.182,94.415 148.92,65.182"/><circle cx="140.599" cy="98.332" r="3.375"/><circle cx="135.099" cy="97.082" r="3.375"/><circle cx="134.099" cy="92.832" r="3.375"/></g><path d="M752.76 148.416h-105.334c-7.246 0-11.24-3.285-13.314-6.041-3.045-4.043-4.029-9.71-2.568-14.787l25.592-92.411c-.732-.493-1.438-1.033-2.105-1.616-6.709-5.857-8.566-14.332-4.232-19.295 1.85-2.119 4.629-3.286 7.822-3.286 1.865 0 3.801.386 5.717 1.126 2.771-4.554 6.979-7.021 12.09-7.021h47.334c5.395 0 9.475 2.325 12.166 6.925 1.832-.679 3.682-1.031 5.459-1.031 3.197 0 5.975 1.169 7.826 3.288 2.18 2.495 2.861 6.093 1.873 9.873-.895 3.42-3.062 6.767-6.102 9.419-.623.545-1.277 1.052-1.959 1.52l25.627 92.539.035.12.021.121c1.115 5.89-.045 11.439-3.18 15.225-2.018 2.429-5.868 5.332-12.768 5.332z"/><g fill="#808080"><ellipse transform="matrix(.658 -.753 .753 .658 208.236 507.684)" cx="662.755" cy="24.707" rx="8.75" ry="12.875"/><ellipse transform="matrix(-.658 -.753 .753 -.658 1203.553 596.302)" cx="737.255" cy="24.707" rx="8.75" ry="12.875"/></g><path fill="#3F3333" d="M765.76 128.416c1.5 7.916-1.5 17-13 17h-105.334c-11.916 0-14.916-10.334-13-17l30-108.333c1.584-7.001 5.373-12 12-12h47.334c6.627 0 10.25 4.249 12 12l30 108.333z"/><circle cx="688.631" cy="33.832" r="5.75"/><g fill="#EBE8C5"><path d="M698.881 68.082c0 1.104-.896 2-2 2h-8.75c-1.105 0-2-.896-2-2v-19.25c0-1.104.895-2 2-2h8.75c1.104 0 2 .896 2 2v19.25zM713.881 68.082c0 1.104-.896 2-2 2h-8.75c-1.105 0-2-.896-2-2v-19.25c0-1.104.895-2 2-2h8.75c1.104 0 2 .896 2 2v19.25z"/></g><ellipse fill="#808080" cx="700.005" cy="51.332" rx="15.366" ry="10.25"/><circle cx="699.006" cy="44.832" r="5.75"/><circle cx="711.381" cy="33.832" r="5.75"/><circle fill="#fff" cx="688.631" cy="30.332" r="1.5"/><circle fill="#fff" cx="711.381" cy="30.332" r="1.5"/><g fill="#666"><polygon points="646.389,85.22 661.01,96.748 666.676,94.415 651.938,65.181"/><circle cx="660.26" cy="98.332" r="3.375"/><circle cx="665.76" cy="97.082" r="3.375"/><circle cx="666.76" cy="92.832" r="3.375"/></g><g fill="#666"><polygon points="753.822,85.22 739.201,96.748 733.535,94.415 748.271,65.181"/><circle cx="739.951" cy="98.332" r="3.375"/><circle cx="734.451" cy="97.082" r="3.375"/><circle cx="733.451" cy="92.832" r="3.375"/></g><path d="M752.76 300.416h-105.334c-7.246 0-11.24-3.285-13.314-6.041-3.045-4.043-4.029-9.71-2.568-14.787l25.592-92.411c-.732-.493-1.438-1.033-2.105-1.616-6.709-5.857-8.566-14.332-4.232-19.295 1.85-2.119 4.629-3.286 7.822-3.286 1.865 0 3.801.386 5.717 1.126 2.771-4.554 6.979-7.021 12.09-7.021h47.334c5.395 0 9.475 2.325 12.166 6.925 1.832-.679 3.682-1.031 5.459-1.031 3.197 0 5.975 1.169 7.826 3.288 2.18 2.495 2.861 6.093 1.873 9.873-.895 3.42-3.062 6.767-6.102 9.419-.623.545-1.277 1.052-1.959 1.52l25.627 92.539.035.12.021.121c1.115 5.89-.045 11.439-3.18 15.225-2.018 2.43-5.868 5.332-12.768 5.332zM639.357 220.304c-.727.285-1.514.438-2.328.438-.189 0-.381-.008-.574-.026-3.498-.313-6.092-3.417-5.779-6.918.133-1.478.783-2.832 1.781-3.858-.074-.495-.09-1.001-.043-1.511.297-3.308 3.025-5.804 6.346-5.804.189 0 .381.008.572.025.255.023.508.062.756.115.915-.491 1.943-.757 2.998-.757.188 0 .377.008.568.025 3.501.315 6.094 3.419 5.781 6.919-.021.239-.057.476-.105.709l28.15 17.511-30.059 5.489-8.064-12.357z"/><g fill="#808080"><polygon points="648.845,229.354 638.671,213.761 641.501,208.326 669.3,225.618"/><circle cx="637.026" cy="214.366" r="3.375"/><circle cx="638.763" cy="209" r="3.375"/><circle cx="643.085" cy="208.384" r="3.375"/></g><g fill="#808080"><ellipse transform="matrix(.658 -.753 .753 .658 93.74 559.71)" cx="662.755" cy="176.707" rx="8.75" ry="12.875"/><ellipse transform="matrix(-.658 -.753 .753 -.658 1089.057 848.276)" cx="737.255" cy="176.707" rx="8.75" ry="12.875"/></g><path fill="#3F3333" d="M765.76 280.416c1.5 7.916-1.5 17-13 17h-105.334c-11.916 0-14.916-10.334-13-17l30-108.333c1.584-7.001 5.373-12 12-12h47.334c6.627 0 10.25 4.249 12 12l30 108.333z"/><circle cx="688.631" cy="185.832" r="5.75"/><g fill="#EBE8C5"><path d="M698.881 220.082c0 1.104-.896 2-2 2h-8.75c-1.105 0-2-.896-2-2v-19.25c0-1.104.895-2 2-2h8.75c1.104 0 2 .896 2 2v19.25zM713.881 220.082c0 1.104-.896 2-2 2h-8.75c-1.105 0-2-.896-2-2v-19.25c0-1.104.895-2 2-2h8.75c1.104 0 2 .896 2 2v19.25z"/></g><ellipse fill="#808080" cx="700.005" cy="203.332" rx="15.366" ry="10.25"/><circle cx="699.006" cy="196.832" r="5.75"/><circle cx="711.381" cy="185.832" r="5.75"/><circle fill="#fff" cx="688.631" cy="182.332" r="1.5"/><circle fill="#fff" cx="711.381" cy="182.332" r="1.5"/><g fill="#666"><polygon points="753.822,237.221 739.201,248.748 733.535,246.415 748.271,217.182"/><circle cx="739.951" cy="250.332" r="3.375"/><circle cx="734.451" cy="249.082" r="3.375"/><circle cx="733.451" cy="244.832" r="3.375"/></g><path d="M752.76 452.416h-105.334c-7.246 0-11.24-3.285-13.314-6.041-3.045-4.043-4.029-9.709-2.568-14.787l25.592-92.41c-.732-.494-1.438-1.033-2.105-1.617-6.709-5.857-8.566-14.332-4.232-19.295 1.85-2.119 4.629-3.285 7.822-3.285 1.865 0 3.801.385 5.717 1.125 2.771-4.553 6.979-7.021 12.09-7.021h47.334c5.395 0 9.475 2.326 12.166 6.926 1.832-.68 3.682-1.031 5.459-1.031 3.197 0 5.975 1.168 7.826 3.287 2.18 2.496 2.861 6.094 1.873 9.873-.895 3.42-3.062 6.768-6.102 9.42-.623.545-1.277 1.051-1.959 1.52l25.627 92.539.035.119.021.121c1.115 5.891-.045 11.439-3.18 15.225-2.018 2.43-5.868 5.332-12.768 5.332zM640.794 378.492c-.65.715-1.471 1.287-2.42 1.654-.739.287-1.514.432-2.302.432-2.612 0-5.002-1.637-5.946-4.072-.536-1.385-.553-2.887-.113-4.248-.285-.41-.522-.857-.707-1.332-1.27-3.277.363-6.977 3.64-8.248.24-.094.485-.171.735-.232.713-.998 1.706-1.785 2.868-2.235.739-.286 1.513-.432 2.302-.432 2.611 0 5.002 1.638 5.946 4.073.087.225.159.451.22.682l32.996 3.225-24.515 18.239-12.704-7.506z"/><g fill="#808080"><polygon points="653.308,382.4 637.276,372.931 637.405,366.805 669.989,369.988"/><circle cx="636.071" cy="374.203" r="3.375"/><circle cx="635.249" cy="368.622" r="3.375"/><circle cx="638.853" cy="366.154" r="3.375"/></g><g fill="#808080"><ellipse transform="matrix(.658 -.753 .753 .658 -20.756 611.737)" cx="662.755" cy="328.708" rx="8.75" ry="12.875"/><ellipse transform="matrix(-.658 -.753 .753 -.658 974.561 1100.252)" cx="737.255" cy="328.708" rx="8.75" ry="12.875"/></g><path fill="#3F3333" d="M765.76 432.416c1.5 7.916-1.5 17-13 17h-105.334c-11.916 0-14.916-10.334-13-17l30-108.332c1.584-7.002 5.373-12 12-12h47.334c6.627 0 10.25 4.248 12 12l30 108.332z"/><circle cx="688.631" cy="337.832" r="5.75"/><g fill="#EBE8C5"><path d="M698.881 372.082c0 1.105-.896 2-2 2h-8.75c-1.105 0-2-.895-2-2v-19.25c0-1.104.895-2 2-2h8.75c1.104 0 2 .896 2 2v19.25zM713.881 372.082c0 1.105-.896 2-2 2h-8.75c-1.105 0-2-.895-2-2v-19.25c0-1.104.895-2 2-2h8.75c1.104 0 2 .896 2 2v19.25z"/></g><ellipse fill="#808080" cx="700.005" cy="355.332" rx="15.366" ry="10.25"/><circle cx="699.006" cy="348.832" r="5.75"/><circle cx="711.381" cy="337.832" r="5.75"/><circle fill="#fff" cx="688.631" cy="334.332" r="1.5"/><circle fill="#fff" cx="711.381" cy="334.332" r="1.5"/><g fill="#666"><polygon points="753.822,389.221 739.201,400.748 733.535,398.416 748.271,369.182"/><circle cx="739.951" cy="402.332" r="3.375"/><circle cx="734.451" cy="401.082" r="3.375"/><circle cx="733.451" cy="396.832" r="3.375"/></g><path d="M752.76 604.415h-105.334c-7.246 0-11.24-3.285-13.314-6.041-3.045-4.043-4.029-9.709-2.568-14.787l25.592-92.41c-.732-.494-1.438-1.033-2.105-1.617-6.709-5.857-8.566-14.332-4.232-19.294 1.85-2.119 4.629-3.287 7.822-3.287 1.865 0 3.801.387 5.717 1.127 2.771-4.555 6.979-7.021 12.09-7.021h47.334c5.395 0 9.475 2.324 12.166 6.924 1.832-.678 3.682-1.031 5.459-1.031 3.197 0 5.975 1.17 7.826 3.289 2.18 2.495 2.861 6.093 1.873 9.872-.895 3.42-3.062 6.768-6.102 9.42-.623.545-1.277 1.051-1.959 1.52l25.627 92.539.035.119.021.121c1.115 5.891-.045 11.439-3.18 15.225-2.018 2.43-5.868 5.332-12.768 5.332zM639.409 540.517c-1.594 0-3.119-.592-4.297-1.665-1.097-.999-1.781-2.336-1.994-3.753-.438-.24-.85-.533-1.226-.876-2.597-2.368-2.782-6.408-.415-9.006.174-.19.357-.369.553-.535.193-1.212.732-2.358 1.572-3.279 1.206-1.321 2.922-2.079 4.711-2.079 1.593 0 3.119.592 4.297 1.666.176.161.344.332.5.511l30.977-11.814-13.82 27.252-14.718-1.059c-.264.931-.743 1.808-1.431 2.56-1.203 1.319-2.92 2.077-4.709 2.077z"/><g fill="#808080"><polygon points="658.493,533.802 639.923,532.467 637.308,526.924 667.897,515.257"/><circle cx="639.41" cy="534.142" r="3.374"/><circle cx="636.188" cy="529.512" r="3.375"/><circle cx="638.313" cy="525.698" r="3.376"/></g><g fill="#808080"><ellipse transform="matrix(.658 -.753 .753 .658 -135.251 663.763)" cx="662.755" cy="480.707" rx="8.75" ry="12.875"/><ellipse transform="matrix(-.658 -.753 .753 -.658 860.066 1352.224)" cx="737.255" cy="480.707" rx="8.75" ry="12.875"/></g><path fill="#3F3333" d="M765.76 584.415c1.5 7.916-1.5 17-13 17h-105.334c-11.916 0-14.916-10.334-13-17l30-108.332c1.584-7.001 5.373-12.001 12-12.001h47.334c6.627 0 10.25 4.25 12 12.001l30 108.332z"/><circle cx="688.631" cy="489.831" r="5.75"/><g fill="#EBE8C5"><path d="M698.881 524.081c0 1.105-.896 2-2 2h-8.75c-1.105 0-2-.895-2-2v-19.25c0-1.104.895-2 2-2h8.75c1.104 0 2 .896 2 2v19.25zM713.881 524.081c0 1.105-.896 2-2 2h-8.75c-1.105 0-2-.895-2-2v-19.25c0-1.104.895-2 2-2h8.75c1.104 0 2 .896 2 2v19.25z"/></g><ellipse fill="#808080" cx="700.005" cy="507.331" rx="15.366" ry="10.25"/><circle cx="699.006" cy="500.831" r="5.75"/><circle cx="711.381" cy="489.831" r="5.75"/><circle fill="#fff" cx="688.631" cy="486.331" r="1.5"/><circle fill="#fff" cx="711.381" cy="486.331" r="1.5"/><g fill="#666"><polygon points="753.822,541.22 739.201,552.747 733.535,550.415 748.271,521.181"/><circle cx="739.951" cy="554.331" r="3.375"/><circle cx="734.451" cy="553.081" r="3.375"/><circle cx="733.451" cy="548.831" r="3.375"/></g><path d="M552.76 148.416h-105.334c-7.246 0-11.24-3.285-13.314-6.041-3.045-4.043-4.029-9.71-2.568-14.787l25.592-92.411c-.732-.493-1.438-1.033-2.105-1.616-6.709-5.857-8.566-14.332-4.232-19.295 1.85-2.119 4.629-3.286 7.822-3.286 1.865 0 3.801.386 5.717 1.126 2.771-4.554 6.979-7.021 12.09-7.021h47.334c5.395 0 9.475 2.325 12.166 6.925 1.832-.679 3.682-1.031 5.459-1.031 3.197 0 5.975 1.169 7.826 3.288 2.18 2.495 2.861 6.093 1.873 9.873-.895 3.42-3.062 6.767-6.102 9.419-.623.545-1.277 1.052-1.959 1.52l25.627 92.539.035.12.021.121c1.115 5.89-.045 11.439-3.18 15.225-2.018 2.429-5.868 5.332-12.768 5.332z"/><g fill="#754C24"><ellipse transform="matrix(.658 -.753 .753 .658 139.78 357.032)" cx="462.755" cy="24.707" rx="8.75" ry="12.875"/><ellipse transform="matrix(-.658 -.753 .753 -.658 872.009 445.65)" cx="537.255" cy="24.707" rx="8.75" ry="12.875"/></g><path fill="#9C8E84" d="M565.76 128.416c1.5 7.916-1.5 17-13 17h-105.334c-11.916 0-14.916-10.334-12.999-17l29.999-108.333c1.584-7.001 5.373-12 12-12h47.334c6.627 0 10.25 4.249 12 12l30 108.333z"/><circle cx="488.631" cy="33.832" r="5.75"/><g fill="#EBE8C5"><path d="M498.881 68.082c0 1.104-.896 2-2 2h-8.75c-1.105 0-2-.896-2-2v-19.25c0-1.104.895-2 2-2h8.75c1.104 0 2 .896 2 2v19.25zM513.881 68.082c0 1.104-.896 2-2 2h-8.75c-1.105 0-2-.896-2-2v-19.25c0-1.104.895-2 2-2h8.75c1.104 0 2 .896 2 2v19.25z"/></g><ellipse fill="#8C6239" cx="500.005" cy="51.332" rx="15.366" ry="10.25"/><circle cx="503.006" cy="44.832" r="5.75"/><circle cx="511.381" cy="33.832" r="5.75"/><circle fill="#fff" cx="488.631" cy="30.332" r="1.5"/><circle fill="#fff" cx="511.381" cy="30.332" r="1.5"/><g fill="#8C6239"><polygon points="446.389,85.22 461.01,96.748 466.676,94.415 451.938,65.181"/><circle cx="460.26" cy="98.332" r="3.375"/><circle cx="465.76" cy="97.082" r="3.375"/><circle cx="466.76" cy="92.832" r="3.375"/></g><g fill="#8C6239"><polygon points="553.822,85.22 539.201,96.748 533.535,94.415 548.271,65.181"/><circle cx="539.951" cy="98.332" r="3.375"/><circle cx="534.451" cy="97.082" r="3.375"/><circle cx="533.451" cy="92.832" r="3.375"/></g><path d="M552.76 300.416h-105.334c-7.246 0-11.24-3.285-13.314-6.041-3.045-4.043-4.029-9.71-2.568-14.787l25.592-92.411c-.732-.493-1.438-1.033-2.105-1.616-6.709-5.857-8.566-14.332-4.232-19.295 1.85-2.119 4.629-3.286 7.822-3.286 1.865 0 3.801.386 5.717 1.126 2.771-4.554 6.979-7.021 12.09-7.021h47.334c5.395 0 9.475 2.325 12.166 6.925 1.832-.679 3.682-1.031 5.459-1.031 3.197 0 5.975 1.169 7.826 3.288 2.18 2.495 2.861 6.093 1.873 9.873-.895 3.42-3.062 6.767-6.102 9.419-.623.545-1.277 1.052-1.959 1.52l25.627 92.539.035.12.021.121c1.115 5.89-.045 11.439-3.18 15.225-2.018 2.43-5.868 5.332-12.768 5.332zM439.357 220.304c-.727.285-1.514.438-2.328.438-.189 0-.381-.008-.574-.026-3.498-.313-6.092-3.417-5.779-6.918.133-1.478.783-2.832 1.781-3.858-.074-.495-.09-1.001-.043-1.511.297-3.308 3.025-5.804 6.346-5.804.189 0 .381.008.572.025.255.023.508.062.756.115.915-.491 1.943-.757 2.998-.757.188 0 .377.008.568.025 3.501.315 6.094 3.419 5.781 6.919-.021.239-.057.476-.105.709l28.15 17.511-30.059 5.489-8.064-12.357z"/><g fill="#8C6239"><polygon points="448.845,229.354 438.671,213.761 441.501,208.326 469.3,225.618"/><circle cx="437.026" cy="214.366" r="3.375"/><circle cx="438.763" cy="209" r="3.375"/><circle cx="443.085" cy="208.384" r="3.375"/></g><g fill="#754C24"><ellipse transform="matrix(.658 -.753 .753 .658 25.284 409.058)" cx="462.755" cy="176.707" rx="8.75" ry="12.875"/><ellipse transform="matrix(-.658 -.753 .753 -.658 757.513 697.624)" cx="537.255" cy="176.707" rx="8.75" ry="12.875"/></g><path fill="#9C8E84" d="M565.76 280.416c1.5 7.916-1.5 17-13 17h-105.334c-11.916 0-14.916-10.334-12.999-17l29.999-108.333c1.584-7.001 5.373-12 12-12h47.334c6.627 0 10.25 4.249 12 12l30 108.333z"/><circle cx="488.631" cy="185.832" r="5.75"/><g fill="#EBE8C5"><path d="M498.881 220.082c0 1.104-.896 2-2 2h-8.75c-1.105 0-2-.896-2-2v-19.25c0-1.104.895-2 2-2h8.75c1.104 0 2 .896 2 2v19.25zM513.881 220.082c0 1.104-.896 2-2 2h-8.75c-1.105 0-2-.896-2-2v-19.25c0-1.104.895-2 2-2h8.75c1.104 0 2 .896 2 2v19.25z"/></g><ellipse fill="#8C6239" cx="500.005" cy="203.332" rx="15.366" ry="10.25"/><circle cx="503.005" cy="196.832" r="5.75"/><circle cx="511.381" cy="185.832" r="5.75"/><circle fill="#fff" cx="488.631" cy="182.332" r="1.5"/><circle fill="#fff" cx="511.381" cy="182.332" r="1.5"/><g fill="#8C6239"><polygon points="553.822,237.221 539.201,248.748 533.535,246.415 548.271,217.182"/><circle cx="539.951" cy="250.332" r="3.375"/><circle cx="534.451" cy="249.082" r="3.375"/><circle cx="533.451" cy="244.832" r="3.375"/></g><path d="M552.76 452.416h-105.334c-7.246 0-11.24-3.285-13.314-6.041-3.045-4.043-4.029-9.71-2.568-14.787l25.592-92.411c-.732-.493-1.438-1.033-2.105-1.616-6.709-5.857-8.566-14.332-4.232-19.295 1.85-2.119 4.629-3.286 7.822-3.286 1.865 0 3.801.386 5.717 1.126 2.771-4.554 6.979-7.021 12.09-7.021h47.334c5.395 0 9.475 2.325 12.166 6.925 1.832-.679 3.682-1.031 5.459-1.031 3.197 0 5.975 1.169 7.826 3.288 2.18 2.495 2.861 6.093 1.873 9.873-.895 3.42-3.062 6.767-6.102 9.419-.623.545-1.277 1.052-1.959 1.52l25.627 92.539.035.12.021.121c1.115 5.89-.045 11.439-3.18 15.225-2.018 2.43-5.868 5.332-12.768 5.332zM440.794 378.492c-.65.715-1.471 1.287-2.42 1.654-.739.287-1.514.432-2.302.432-2.612 0-5.002-1.637-5.946-4.072-.536-1.385-.553-2.887-.113-4.248-.285-.41-.522-.857-.707-1.332-1.27-3.277.363-6.977 3.64-8.248.24-.094.485-.171.735-.232.713-.998 1.706-1.785 2.868-2.235.739-.286 1.513-.432 2.302-.432 2.611 0 5.002 1.638 5.946 4.073.087.225.159.451.22.682l32.996 3.225-24.515 18.239-12.704-7.506z"/><g fill="#8C6239"><polygon points="453.308,382.4 437.276,372.931 437.405,366.805 469.989,369.988"/><circle cx="436.071" cy="374.203" r="3.375"/><circle cx="435.249" cy="368.622" r="3.375"/><circle cx="438.853" cy="366.154" r="3.375"/></g><g fill="#754C24"><ellipse transform="matrix(.658 -.753 .753 .658 -89.211 461.084)" cx="462.755" cy="328.707" rx="8.75" ry="12.875"/><ellipse transform="matrix(-.658 -.753 .753 -.658 643.017 949.598)" cx="537.255" cy="328.707" rx="8.75" ry="12.875"/></g><path fill="#9C8E84" d="M565.76 432.416c1.5 7.916-1.5 17-13 17h-105.334c-11.916 0-14.916-10.334-12.999-17l29.999-108.333c1.584-7.001 5.373-12 12-12h47.334c6.627 0 10.25 4.249 12 12l30 108.333z"/><circle cx="488.631" cy="337.832" r="5.75"/><g fill="#EBE8C5"><path d="M498.881 372.082c0 1.104-.896 2-2 2h-8.75c-1.105 0-2-.896-2-2v-19.25c0-1.104.895-2 2-2h8.75c1.104 0 2 .896 2 2v19.25zM513.881 372.082c0 1.104-.896 2-2 2h-8.75c-1.105 0-2-.896-2-2v-19.25c0-1.104.895-2 2-2h8.75c1.104 0 2 .896 2 2v19.25z"/></g><ellipse fill="#8C6239" cx="500.005" cy="355.332" rx="15.366" ry="10.25"/><circle cx="503.005" cy="348.832" r="5.75"/><circle cx="511.381" cy="337.832" r="5.75"/><circle fill="#fff" cx="488.631" cy="334.332" r="1.5"/><circle fill="#fff" cx="511.381" cy="334.332" r="1.5"/><g fill="#8C6239"><polygon points="553.822,389.221 539.201,400.748 533.535,398.415 548.271,369.182"/><circle cx="539.951" cy="402.332" r="3.375"/><circle cx="534.451" cy="401.082" r="3.375"/><circle cx="533.451" cy="396.832" r="3.375"/></g><path d="M552.76 604.416h-105.334c-7.246 0-11.24-3.285-13.314-6.041-3.045-4.043-4.029-9.71-2.568-14.787l25.592-92.411c-.732-.493-1.438-1.033-2.105-1.616-6.709-5.857-8.566-14.332-4.232-19.295 1.85-2.119 4.629-3.286 7.822-3.286 1.865 0 3.801.386 5.717 1.126 2.771-4.554 6.979-7.021 12.09-7.021h47.334c5.395 0 9.475 2.325 12.166 6.925 1.832-.679 3.682-1.031 5.459-1.031 3.197 0 5.975 1.169 7.826 3.288 2.18 2.495 2.861 6.093 1.873 9.873-.895 3.42-3.062 6.767-6.102 9.419-.623.545-1.277 1.052-1.959 1.52l25.627 92.539.035.12.021.121c1.115 5.89-.045 11.439-3.18 15.225-2.018 2.43-5.868 5.332-12.768 5.332zM439.409 540.517c-1.594 0-3.119-.592-4.297-1.665-1.097-.999-1.781-2.336-1.994-3.753-.438-.24-.85-.533-1.226-.876-2.597-2.368-2.782-6.408-.415-9.006.174-.19.357-.369.553-.535.193-1.212.732-2.358 1.572-3.279 1.206-1.321 2.922-2.079 4.711-2.079 1.593 0 3.119.592 4.297 1.666.176.161.344.332.5.511l30.977-11.814-13.82 27.252-14.718-1.059c-.264.931-.743 1.808-1.431 2.56-1.203 1.319-2.92 2.077-4.709 2.077z"/><g fill="#8C6239"><polygon points="458.493,533.802 439.923,532.467 437.308,526.924 467.897,515.257"/><circle cx="439.41" cy="534.142" r="3.374"/><circle cx="436.188" cy="529.512" r="3.375"/><circle cx="438.313" cy="525.698" r="3.376"/></g><g fill="#754C24"><ellipse transform="matrix(.658 -.753 .753 .658 -203.707 513.111)" cx="462.755" cy="480.707" rx="8.75" ry="12.875"/><ellipse transform="matrix(-.658 -.753 .753 -.658 528.521 1201.572)" cx="537.255" cy="480.707" rx="8.75" ry="12.875"/></g><path fill="#9C8E84" d="M565.76 584.416c1.5 7.916-1.5 17-13 17h-105.334c-11.916 0-14.916-10.334-12.999-17l29.999-108.333c1.584-7.001 5.373-12 12-12h47.334c6.627 0 10.25 4.249 12 12l30 108.333z"/><circle cx="488.631" cy="489.832" r="5.75"/><g fill="#EBE8C5"><path d="M498.881 524.082c0 1.104-.896 2-2 2h-8.75c-1.105 0-2-.896-2-2v-19.25c0-1.104.895-2 2-2h8.75c1.104 0 2 .896 2 2v19.25zM513.881 524.082c0 1.104-.896 2-2 2h-8.75c-1.105 0-2-.896-2-2v-19.25c0-1.104.895-2 2-2h8.75c1.104 0 2 .896 2 2v19.25z"/></g><ellipse fill="#8C6239" cx="500.005" cy="507.332" rx="15.366" ry="10.25"/><circle cx="503.005" cy="500.832" r="5.75"/><circle cx="511.381" cy="489.832" r="5.75"/><circle fill="#fff" cx="488.631" cy="486.332" r="1.5"/><circle fill="#fff" cx="511.381" cy="486.332" r="1.5"/><g fill="#8C6239"><polygon points="553.822,541.221 539.201,552.748 533.535,550.415 548.271,521.182"/><circle cx="539.951" cy="554.332" r="3.375"/><circle cx="534.451" cy="553.082" r="3.375"/><circle cx="533.451" cy="548.832" r="3.375"/></g><path d="M352.76 148.416h-105.333c-7.246 0-11.241-3.285-13.315-6.041-3.045-4.043-4.028-9.71-2.568-14.787l25.592-92.411c-.731-.493-1.437-1.033-2.104-1.616-6.709-5.857-8.566-14.332-4.232-19.295 1.849-2.119 4.628-3.286 7.821-3.286 1.865 0 3.802.386 5.717 1.126 2.772-4.554 6.979-7.021 12.091-7.021h47.333c5.396 0 9.475 2.325 12.167 6.925 1.831-.679 3.681-1.031 5.459-1.031 3.196 0 5.975 1.169 7.826 3.288 2.179 2.495 2.861 6.093 1.872 9.873-.895 3.42-3.062 6.767-6.101 9.419-.624.545-1.278 1.052-1.96 1.52l25.627 92.539.035.12.022.121c1.115 5.89-.046 11.439-3.181 15.225-2.017 2.429-5.868 5.332-12.768 5.332z"/><g fill="#E6E6E6"><ellipse transform="matrix(.658 -.753 .753 .658 71.317 206.372)" cx="262.755" cy="24.707" rx="8.75" ry="12.875"/><ellipse transform="matrix(-.658 -.753 .753 -.658 540.476 294.989)" cx="337.255" cy="24.707" rx="8.75" ry="12.875"/></g><path fill="#F2F2F2" d="M365.76 128.416c1.5 7.916-1.5 17-13 17h-105.333c-11.917 0-14.917-10.334-13-17l30-108.333c1.583-7.001 5.373-12 12-12h47.333c6.628 0 10.25 4.249 12 12l30 108.333z"/><circle fill="#47272D" cx="288.631" cy="33.832" r="5.75"/><g fill="#EBE8C5"><path d="M298.881 68.082c0 1.104-.896 2-2 2h-8.75c-1.104 0-2-.896-2-2v-19.25c0-1.104.896-2 2-2h8.75c1.104 0 2 .896 2 2v19.25zM313.881 68.082c0 1.104-.896 2-2 2h-8.75c-1.104 0-2-.896-2-2v-19.25c0-1.104.896-2 2-2h8.75c1.104 0 2 .896 2 2v19.25z"/></g><ellipse fill="#ccc" cx="300.005" cy="51.332" rx="15.366" ry="10.25"/><circle fill="#ED9CC0" cx="300.006" cy="44.832" r="5.75"/><circle fill="#47272D" cx="311.381" cy="33.832" r="5.75"/><circle fill="#fff" cx="288.631" cy="30.332" r="1.5"/><circle fill="#fff" cx="311.381" cy="30.332" r="1.5"/><g fill="#ccc"><polygon points="246.389,85.22 261.01,96.748 266.676,94.415 251.938,65.181"/><circle cx="260.26" cy="98.332" r="3.375"/><circle cx="265.76" cy="97.082" r="3.375"/><circle cx="266.76" cy="92.832" r="3.375"/></g><g fill="#ccc"><polygon points="353.822,85.22 339.201,96.748 333.535,94.415 348.272,65.181"/><circle cx="339.951" cy="98.332" r="3.375"/><circle cx="334.451" cy="97.082" r="3.375"/><circle cx="333.451" cy="92.832" r="3.375"/></g><path d="M40.006 220.304c-.727.285-1.514.438-2.329.438-.189 0-.381-.008-.574-.026-3.499-.313-6.093-3.417-5.78-6.918.133-1.478.783-2.832 1.781-3.858-.074-.495-.089-1.001-.043-1.511.297-3.308 3.026-5.804 6.346-5.804.189 0 .38.008.572.025.255.023.507.062.756.115.915-.491 1.943-.757 2.998-.757.188 0 .377.008.568.025 3.501.315 6.094 3.419 5.781 6.919-.022.239-.057.476-.105.709l28.15 17.511-30.059 5.489-8.062-12.357zM153.407 300.416h-105.333c-7.246 0-11.242-3.285-13.316-6.041-3.045-4.043-4.027-9.71-2.568-14.787l25.592-92.412c-.73-.492-1.436-1.032-2.104-1.615-6.709-5.857-8.566-14.332-4.232-19.295 1.849-2.119 4.627-3.286 7.82-3.286 1.866 0 3.803.386 5.717 1.126 2.773-4.555 6.979-7.021 12.092-7.021h47.333c5.396 0 9.475 2.325 12.167 6.924 1.831-.678 3.68-1.03 5.459-1.03 3.195 0 5.975 1.169 7.826 3.288 2.179 2.494 2.861 6.092 1.871 9.873-.895 3.42-3.061 6.766-6.1 9.419-.625.544-1.278 1.052-1.961 1.52l25.627 92.539.035.12.023.121c1.115 5.89-.046 11.439-3.182 15.225-2.015 2.43-5.866 5.332-12.766 5.332z"/><g fill="#8C6239"><polygon points="49.493,229.354 39.319,213.761 42.149,208.326 69.948,225.618"/><circle cx="37.675" cy="214.366" r="3.375"/><circle cx="39.411" cy="209" r="3.375"/><circle cx="43.733" cy="208.384" r="3.375"/></g><g fill="#754C24"><ellipse transform="matrix(.658 -.753 .753 .658 -111.401 108.234)" cx="63.403" cy="176.706" rx="8.75" ry="12.876"/><ellipse transform="matrix(-.658 -.753 .753 -.658 95.508 396.808)" cx="137.903" cy="176.706" rx="8.75" ry="12.876"/></g><path fill="#603813" d="M166.407 280.416c1.499 7.916-1.501 17-13 17h-105.333c-11.918 0-14.918-10.334-13-17l30-108.333c1.582-7.001 5.373-12 12-12h47.333c6.628 0 10.249 4.249 12 12l30 108.333z"/><circle cx="89.277" cy="185.832" r="5.75"/><g fill="#EBE8C5"><path d="M99.527 220.082c0 1.104-.895 2-2 2h-8.75c-1.104 0-2-.896-2-2v-19.25c0-1.105.896-2 2-2h8.75c1.105 0 2 .895 2 2v19.25zM114.527 220.082c0 1.104-.895 2-2 2h-8.75c-1.104 0-2-.896-2-2v-19.25c0-1.105.896-2 2-2h8.75c1.105 0 2 .895 2 2v19.25z"/></g><ellipse fill="#8C6239" cx="100.653" cy="203.332" rx="15.366" ry="10.25"/><circle cx="97.652" cy="196.832" r="5.75"/><circle cx="112.027" cy="185.832" r="5.75"/><circle fill="#fff" cx="89.277" cy="182.332" r="1.5"/><circle fill="#fff" cx="112.027" cy="182.332" r="1.5"/><g fill="#8C6239"><polygon points="154.469,237.221 139.849,248.748 134.182,246.415 148.92,217.182"/><circle cx="140.599" cy="250.332" r="3.375"/><circle cx="135.099" cy="249.082" r="3.375"/><circle cx="134.099" cy="244.832" r="3.375"/></g><path d="M41.442 378.492c-.65.715-1.471 1.287-2.42 1.654-.739.287-1.513.432-2.301.432-2.612 0-5.002-1.637-5.946-4.072-.536-1.385-.553-2.887-.113-4.248-.285-.41-.522-.857-.707-1.332-1.27-3.277.363-6.977 3.64-8.248.24-.094.485-.171.735-.232.713-.998 1.707-1.785 2.869-2.235.739-.286 1.513-.432 2.301-.432 2.612 0 5.002 1.638 5.947 4.073.086.225.16.451.22.682l32.997 3.225-24.515 18.239-12.707-7.506zM153.407 452.416h-105.333c-7.246 0-11.242-3.285-13.316-6.041-3.045-4.043-4.027-9.71-2.568-14.787l25.592-92.412c-.73-.492-1.436-1.032-2.104-1.615-6.709-5.857-8.566-14.332-4.232-19.295 1.849-2.119 4.627-3.286 7.82-3.286 1.866 0 3.803.386 5.717 1.126 2.773-4.555 6.979-7.021 12.092-7.021h47.333c5.396 0 9.475 2.325 12.167 6.924 1.831-.678 3.68-1.03 5.459-1.03 3.195 0 5.975 1.169 7.826 3.288 2.179 2.494 2.861 6.092 1.871 9.873-.895 3.42-3.061 6.766-6.1 9.419-.625.544-1.278 1.052-1.961 1.52l25.627 92.539.035.12.023.121c1.115 5.89-.046 11.439-3.182 15.225-2.015 2.43-5.866 5.332-12.766 5.332z"/><g fill="#8C6239"><polygon points="53.956,382.4 37.926,372.931 38.055,366.805 70.639,369.988"/><circle cx="36.72" cy="374.203" r="3.375"/><circle cx="35.898" cy="368.622" r="3.375"/><circle cx="39.501" cy="366.154" r="3.375"/></g><g fill="#754C24"><ellipse transform="matrix(.658 -.753 .753 .658 -225.893 160.256)" cx="63.403" cy="328.706" rx="8.75" ry="12.876"/><ellipse transform="matrix(-.658 -.753 .753 -.658 -18.983 648.787)" cx="137.903" cy="328.706" rx="8.75" ry="12.876"/></g><path fill="#603813" d="M166.407 432.416c1.499 7.916-1.501 17-13 17h-105.333c-11.918 0-14.918-10.334-13-17l30-108.333c1.582-7.001 5.373-12 12-12h47.333c6.628 0 10.249 4.249 12 12l30 108.333z"/><circle cx="89.277" cy="337.832" r="5.75"/><g fill="#EBE8C5"><path d="M99.527 372.082c0 1.104-.895 2-2 2h-8.75c-1.104 0-2-.896-2-2v-19.25c0-1.105.896-2 2-2h8.75c1.105 0 2 .895 2 2v19.25zM114.527 372.082c0 1.104-.895 2-2 2h-8.75c-1.104 0-2-.896-2-2v-19.25c0-1.105.896-2 2-2h8.75c1.105 0 2 .895 2 2v19.25z"/></g><ellipse fill="#8C6239" cx="100.653" cy="355.332" rx="15.366" ry="10.25"/><circle cx="97.652" cy="348.832" r="5.75"/><circle cx="112.027" cy="337.832" r="5.75"/><circle fill="#fff" cx="89.277" cy="334.332" r="1.5"/><circle fill="#fff" cx="112.027" cy="334.332" r="1.5"/><g fill="#8C6239"><polygon points="154.469,389.221 139.849,400.748 134.182,398.415 148.92,369.182"/><circle cx="140.599" cy="402.332" r="3.375"/><circle cx="135.099" cy="401.082" r="3.375"/><circle cx="134.099" cy="396.832" r="3.375"/></g><path d="M40.058 540.517c-1.593 0-3.119-.592-4.296-1.665-1.097-.999-1.782-2.336-1.995-3.753-.438-.24-.85-.533-1.226-.876-2.597-2.368-2.783-6.408-.415-9.006.174-.19.358-.369.553-.535.194-1.212.732-2.358 1.572-3.279 1.206-1.321 2.922-2.079 4.71-2.079 1.593 0 3.119.592 4.297 1.666.177.161.344.332.5.511l30.978-11.814-13.821 27.252-14.717-1.059c-.264.931-.744 1.808-1.43 2.56-1.204 1.319-2.921 2.077-4.71 2.077zM153.407 604.416h-105.333c-7.246 0-11.242-3.285-13.316-6.041-3.045-4.043-4.027-9.71-2.568-14.787l25.592-92.412c-.73-.492-1.436-1.032-2.104-1.615-6.709-5.857-8.566-14.332-4.232-19.295 1.849-2.119 4.627-3.286 7.82-3.286 1.866 0 3.803.386 5.717 1.126 2.773-4.555 6.979-7.021 12.092-7.021h47.333c5.396 0 9.475 2.325 12.167 6.924 1.831-.678 3.68-1.03 5.459-1.03 3.195 0 5.975 1.169 7.826 3.288 2.179 2.494 2.861 6.092 1.871 9.873-.895 3.42-3.061 6.766-6.1 9.419-.625.544-1.278 1.052-1.961 1.52l25.627 92.539.035.12.023.121c1.115 5.89-.046 11.439-3.182 15.225-2.015 2.43-5.866 5.332-12.766 5.332z"/><g fill="#8C6239"><polygon points="59.142,533.802 40.572,532.467 37.957,526.924 68.547,515.257"/><circle cx="40.059" cy="534.142" r="3.374"/><circle cx="36.837" cy="529.512" r="3.375"/><circle cx="38.963" cy="525.698" r="3.376"/></g><g fill="#754C24"><ellipse transform="matrix(.658 -.753 .753 .658 -340.384 212.277)" cx="63.403" cy="480.706" rx="8.75" ry="12.876"/><ellipse transform="matrix(-.658 -.753 .753 -.658 -133.475 900.765)" cx="137.903" cy="480.706" rx="8.75" ry="12.876"/></g><path fill="#603813" d="M166.407 584.416c1.499 7.916-1.501 17-13 17h-105.333c-11.918 0-14.918-10.334-13-17l30-108.333c1.582-7.001 5.373-12 12-12h47.333c6.628 0 10.249 4.249 12 12l30 108.333z"/><circle cx="89.277" cy="489.832" r="5.75"/><g fill="#EBE8C5"><path d="M99.527 524.082c0 1.104-.895 2-2 2h-8.75c-1.104 0-2-.896-2-2v-19.25c0-1.105.896-2 2-2h8.75c1.105 0 2 .895 2 2v19.25zM114.527 524.082c0 1.104-.895 2-2 2h-8.75c-1.104 0-2-.896-2-2v-19.25c0-1.105.896-2 2-2h8.75c1.105 0 2 .895 2 2v19.25z"/></g><ellipse fill="#8C6239" cx="100.653" cy="507.332" rx="15.366" ry="10.25"/><circle cx="97.652" cy="500.832" r="5.75"/><circle cx="112.027" cy="489.832" r="5.75"/><circle fill="#fff" cx="89.277" cy="486.332" r="1.5"/><circle fill="#fff" cx="112.027" cy="486.332" r="1.5"/><g fill="#8C6239"><polygon points="154.469,541.221 139.849,552.748 134.182,550.415 148.92,521.182"/><circle cx="140.599" cy="554.332" r="3.375"/><circle cx="135.099" cy="553.082" r="3.375"/><circle cx="134.099" cy="548.832" r="3.375"/></g><path d="M352.76 300.416h-105.333c-7.246 0-11.241-3.285-13.315-6.041-3.045-4.043-4.028-9.71-2.568-14.787l25.592-92.411c-.731-.493-1.437-1.033-2.104-1.616-6.709-5.857-8.566-14.332-4.232-19.295 1.849-2.119 4.628-3.286 7.821-3.286 1.865 0 3.802.386 5.717 1.126 2.772-4.554 6.979-7.021 12.091-7.021h47.333c5.396 0 9.475 2.325 12.167 6.925 1.831-.679 3.681-1.031 5.459-1.031 3.196 0 5.975 1.169 7.826 3.288 2.179 2.495 2.861 6.093 1.872 9.873-.895 3.42-3.062 6.767-6.101 9.419-.624.545-1.278 1.052-1.96 1.52l25.627 92.539.035.12.022.121c1.115 5.89-.046 11.439-3.181 15.225-2.017 2.43-5.868 5.332-12.768 5.332zM239.006 220.304c-.727.285-1.514.438-2.329.438-.189 0-.381-.008-.574-.026-3.499-.313-6.093-3.417-5.78-6.918.133-1.478.783-2.832 1.781-3.858-.074-.495-.089-1.001-.043-1.511.297-3.308 3.026-5.804 6.346-5.804.189 0 .38.008.572.025.255.023.507.062.756.115.915-.491 1.943-.757 2.998-.757.188 0 .377.008.568.025 3.501.315 6.094 3.419 5.781 6.919-.022.239-.057.476-.105.709l28.15 17.511-30.059 5.489-8.062-12.357z"/><g fill="#ccc"><polygon points="248.845,229.354 238.671,213.761 241.501,208.326 269.3,225.618"/><circle cx="237.027" cy="214.366" r="3.375"/><circle cx="238.763" cy="209" r="3.375"/><circle cx="243.085" cy="208.384" r="3.375"/></g><g fill="#E6E6E6"><ellipse transform="matrix(.658 -.753 .753 .658 -43.175 258.393)" cx="262.755" cy="176.707" rx="8.75" ry="12.875"/><ellipse transform="matrix(-.658 -.753 .753 -.658 425.985 546.969)" cx="337.255" cy="176.707" rx="8.75" ry="12.875"/></g><path fill="#F2F2F2" d="M365.76 280.416c1.5 7.916-1.5 17-13 17h-105.333c-11.917 0-14.917-10.334-13-17l30-108.333c1.583-7.001 5.373-12 12-12h47.333c6.628 0 10.25 4.249 12 12l30 108.333z"/><circle fill="#47272D" cx="288.631" cy="185.832" r="5.75"/><g fill="#EBE8C5"><path d="M298.881 220.082c0 1.104-.896 2-2 2h-8.75c-1.104 0-2-.896-2-2v-19.25c0-1.104.896-2 2-2h8.75c1.104 0 2 .896 2 2v19.25zM313.881 220.082c0 1.104-.896 2-2 2h-8.75c-1.104 0-2-.896-2-2v-19.25c0-1.104.896-2 2-2h8.75c1.104 0 2 .896 2 2v19.25z"/></g><ellipse fill="#ccc" cx="300.005" cy="203.332" rx="15.366" ry="10.25"/><circle fill="#ED9CC0" cx="300.006" cy="196.832" r="5.75"/><circle fill="#47272D" cx="311.381" cy="185.832" r="5.75"/><circle fill="#fff" cx="288.631" cy="182.332" r="1.5"/><circle fill="#fff" cx="311.381" cy="182.332" r="1.5"/><g fill="#ccc"><polygon points="353.822,237.221 339.201,248.748 333.535,246.415 348.272,217.182"/><circle cx="339.951" cy="250.332" r="3.375"/><circle cx="334.451" cy="249.082" r="3.375"/><circle cx="333.451" cy="244.832" r="3.375"/></g><path d="M352.76 452.416h-105.333c-7.246 0-11.241-3.285-13.315-6.041-3.045-4.043-4.028-9.71-2.568-14.787l25.592-92.411c-.731-.493-1.437-1.033-2.104-1.616-6.709-5.857-8.566-14.332-4.232-19.295 1.849-2.119 4.628-3.286 7.821-3.286 1.865 0 3.802.386 5.717 1.126 2.772-4.554 6.979-7.021 12.091-7.021h47.333c5.396 0 9.475 2.325 12.167 6.925 1.831-.679 3.681-1.031 5.459-1.031 3.196 0 5.975 1.169 7.826 3.288 2.179 2.495 2.861 6.093 1.872 9.873-.895 3.42-3.062 6.767-6.101 9.419-.624.545-1.278 1.052-1.96 1.52l25.627 92.539.035.12.022.121c1.115 5.89-.046 11.439-3.181 15.225-2.017 2.43-5.868 5.332-12.768 5.332zM240.794 378.492c-.65.715-1.471 1.287-2.42 1.654-.739.287-1.513.432-2.301.432-2.612 0-5.002-1.637-5.946-4.072-.536-1.385-.553-2.887-.113-4.248-.285-.41-.522-.857-.707-1.332-1.27-3.277.363-6.977 3.64-8.248.24-.094.485-.171.735-.232.713-.998 1.707-1.785 2.869-2.235.739-.286 1.513-.432 2.301-.432 2.612 0 5.002 1.638 5.947 4.073.086.225.16.451.22.682l32.997 3.225-24.515 18.239-12.707-7.506z"/><g fill="#ccc"><polygon points="253.308,382.4 237.278,372.931 237.407,366.805 269.991,369.988"/><circle cx="236.072" cy="374.203" r="3.375"/><circle cx="235.25" cy="368.622" r="3.375"/><circle cx="238.854" cy="366.154" r="3.375"/></g><g fill="#E6E6E6"><ellipse transform="matrix(.658 -.753 .753 .658 -157.666 310.415)" cx="262.755" cy="328.707" rx="8.75" ry="12.875"/><ellipse transform="matrix(-.658 -.753 .753 -.658 311.493 798.947)" cx="337.255" cy="328.707" rx="8.75" ry="12.875"/></g><path fill="#F2F2F2" d="M365.76 432.416c1.5 7.916-1.5 17-13 17h-105.333c-11.917 0-14.917-10.334-13-17l30-108.333c1.583-7.001 5.373-12 12-12h47.333c6.628 0 10.25 4.249 12 12l30 108.333z"/><circle fill="#47272D" cx="288.631" cy="337.832" r="5.75"/><g fill="#EBE8C5"><path d="M298.881 372.082c0 1.104-.896 2-2 2h-8.75c-1.104 0-2-.896-2-2v-19.25c0-1.104.896-2 2-2h8.75c1.104 0 2 .896 2 2v19.25zM313.881 372.082c0 1.104-.896 2-2 2h-8.75c-1.104 0-2-.896-2-2v-19.25c0-1.104.896-2 2-2h8.75c1.104 0 2 .896 2 2v19.25z"/></g><ellipse fill="#ccc" cx="300.005" cy="355.332" rx="15.366" ry="10.25"/><circle fill="#ED9CC0" cx="300.006" cy="348.832" r="5.75"/><circle fill="#47272D" cx="311.381" cy="337.832" r="5.75"/><circle fill="#fff" cx="288.631" cy="334.332" r="1.5"/><circle fill="#fff" cx="311.381" cy="334.332" r="1.5"/><g fill="#ccc"><polygon points="353.822,389.221 339.201,400.748 333.535,398.415 348.272,369.182"/><circle cx="339.951" cy="402.332" r="3.375"/><circle cx="334.451" cy="401.082" r="3.375"/><circle cx="333.451" cy="396.832" r="3.375"/></g><path d="M352.76 604.416h-105.333c-7.246 0-11.241-3.285-13.315-6.041-3.045-4.043-4.028-9.71-2.568-14.787l25.592-92.411c-.731-.493-1.437-1.033-2.104-1.616-6.709-5.857-8.566-14.332-4.232-19.295 1.849-2.119 4.628-3.286 7.821-3.286 1.865 0 3.802.386 5.717 1.126 2.772-4.554 6.979-7.021 12.091-7.021h47.333c5.396 0 9.475 2.325 12.167 6.925 1.831-.679 3.681-1.031 5.459-1.031 3.196 0 5.975 1.169 7.826 3.288 2.179 2.495 2.861 6.093 1.872 9.873-.895 3.42-3.062 6.767-6.101 9.419-.624.545-1.278 1.052-1.96 1.52l25.627 92.539.035.12.022.121c1.115 5.89-.046 11.439-3.181 15.225-2.017 2.43-5.868 5.332-12.768 5.332zM239.41 540.517c-1.593 0-3.119-.592-4.296-1.665-1.097-.999-1.782-2.336-1.995-3.753-.438-.24-.85-.533-1.226-.876-2.597-2.368-2.783-6.408-.415-9.006.174-.19.358-.369.553-.535.194-1.212.732-2.358 1.572-3.279 1.206-1.321 2.922-2.079 4.71-2.079 1.593 0 3.119.592 4.297 1.666.177.161.344.332.5.511l30.978-11.814-13.821 27.252-14.717-1.059c-.264.931-.744 1.808-1.43 2.56-1.203 1.319-2.921 2.077-4.71 2.077z"/><g fill="#ccc"><polygon points="258.494,533.802 239.924,532.467 237.309,526.924 267.899,515.257"/><circle cx="239.411" cy="534.142" r="3.374"/><circle cx="236.189" cy="529.512" r="3.375"/><circle cx="238.315" cy="525.698" r="3.376"/></g><g fill="#E6E6E6"><ellipse transform="matrix(.658 -.753 .753 .658 -272.157 362.436)" cx="262.755" cy="480.707" rx="8.75" ry="12.875"/><ellipse transform="matrix(-.658 -.753 .753 -.658 197.002 1050.926)" cx="337.255" cy="480.707" rx="8.75" ry="12.875"/></g><path fill="#F2F2F2" d="M365.76 584.416c1.5 7.916-1.5 17-13 17h-105.333c-11.917 0-14.917-10.334-13-17l30-108.333c1.583-7.001 5.373-12 12-12h47.333c6.628 0 10.25 4.249 12 12l30 108.333z"/><circle fill="#47272D" cx="288.631" cy="489.832" r="5.75"/><g fill="#EBE8C5"><path d="M298.881 524.082c0 1.104-.896 2-2 2h-8.75c-1.104 0-2-.896-2-2v-19.25c0-1.104.896-2 2-2h8.75c1.104 0 2 .896 2 2v19.25zM313.881 524.082c0 1.104-.896 2-2 2h-8.75c-1.104 0-2-.896-2-2v-19.25c0-1.104.896-2 2-2h8.75c1.104 0 2 .896 2 2v19.25z"/></g><ellipse fill="#ccc" cx="300.005" cy="507.332" rx="15.366" ry="10.25"/><circle fill="#ED9CC0" cx="300.006" cy="500.832" r="5.75"/><circle fill="#47272D" cx="311.381" cy="489.832" r="5.75"/><circle fill="#fff" cx="288.631" cy="486.332" r="1.5"/><circle fill="#fff" cx="311.381" cy="486.332" r="1.5"/><g fill="#ccc"><polygon points="353.822,541.221 339.201,552.748 333.535,550.415 348.272,521.182"/><circle cx="339.951" cy="554.332" r="3.375"/><circle cx="334.451" cy="553.082" r="3.375"/><circle cx="333.451" cy="548.832" r="3.375"/></g></svg>