<svg version="1" xmlns="http://www.w3.org/2000/svg" width="600" height="82"><path d="M359.464 42.333c-1.407-.001-2.362-.646-2.875-.993l-.136-.092c-2.441-.835-4.25-2.31-5.23-4.271-1.493-2.986-.088-5.048 1.27-7.042l.52-.769c.831-1.244 1.889-2.51 3.55-3.012.349-5.733-.74-12.588-6.559-16.904l3.378-4.953c3.821 2.391 6.78 5.599 8.781 9.477 3.628-5.937 9.562-9.038 17.31-9.115 5.685-.057 9.153 3 9.153 3s-2.75 2.224-8.473 3.154c-9.183 1.492-13.728 7.107-13.487 16.962 1.371.922 2.454 2.214 3.183 3.815.568 1.249 1.224 3.121.366 4.963-.903 1.941-2.801 2.473-4.186 2.86-.848.237-1.647.461-2.162.901-1.096.94-2.587 2.019-4.403 2.019zM252.236 48.913c-1.731 0-2.896-.788-3.667-1.31-.187-.126-.441-.298-.535-.333-3.649-1.215-6.325-3.35-7.734-6.172-1.962-3.923-.224-6.475 1.976-9.706.272-.4.566-.831.877-1.299 1.561-2.341 3.475-4.507 6.888-4.507 1.005 0 1.992.175 3.136.377l.553.096c.341-.032.814-.063 1.387-.063 2.714 0 9.376.766 12.599 7.854.782 1.72 1.695 4.273.615 6.594-1.118 2.401-3.552 3.082-5.701 3.684-1.558.437-3.169.888-4.361 1.909-2.323 1.988-4.184 2.876-6.033 2.876zM247.424 35.535l1.248-3.173c.041-.104 3.609-9.508.24-16.746-2.89 3.121-8.003 7.44-14.533 8.004-2.61.226-5.217-.169-7.75-1.175l-3.051-1.211 1.48-2.93c3.361-6.654 7.109-10.292 10.553-12.212.812-.453 2.855-4.392 2.855-4.392 6.125.376 10.934 2.419 14.351 6.085 2.66-2.859 6.793-6.146 12-6.596 4.122-.356 8.114 1.124 11.866 4.401l4.151 3.626-5.299 1.517c-4.216 1.207-7.166 4.273-9.769 6.979-2.391 2.487-4.468 4.646-7.238 5.028.408 6.45-.949 11.956-1.021 12.243l-.732 2.909-9.351-2.357zM524.523 54.846c-2.874 0-10.781-1.374-14.512-5.343-2.258.756-5.038 1.448-7.927 1.448-2.353 0-4.549-.457-6.529-1.356-1.938-.881-3.514-1.729-4.81-2.598-.853.922-1.809 1.568-2.842 1.912-.305.103-.695.337-1.146.608-1.179.709-2.793 1.68-5.184 1.68-.605 0-1.235-.064-1.874-.192-.559-.111-1.23-.185-1.941-.262-2.229-.242-5.11-.556-7.462-2.449-2.878 1.185-6.851 2.658-11.133 2.658-2.354 0-4.553-.457-6.534-1.357-1.012-.46-1.924-.911-2.749-1.361-1.067.602-2.163.905-3.276.905-.498 0-.997-.063-1.482-.188-1.586-.406-3.379-.66-5.112-.906-3.119-.442-6.345-.9-8.931-2.299l-3.419-1.85c-.547-.296-1.189-.491-1.869-.697-.422-.128-.879-.267-1.345-.443-.802.585-1.731 1.063-2.771 1.419l-.136.092c-.513.347-1.468.993-2.875.993-1.378 0-2.568-.621-3.541-1.33-1.132.262-2.157.39-3.104.39-3.468 0-5.072-1.812-5.721-2.892-.638-1.063-1.635-2.038-2.6-2.98-1.777-1.737-3.99-3.9-3.007-6.845.105-.316.3-1.409.455-2.288.983-5.546 1.979-9.911 5.049-11.445.705-.352 1.507-.53 2.386-.53 2.709 0 6.166 1.826 8.508 3.295 2.171-2.188 4.021-3.414 6.114-3.414 1.637 0 2.899.761 3.9 1.779l.276-.275.241-.227.285-.168c3.811-2.256 7.079-3.758 10.646-3.758 2.451 0 4.754.716 7.039 2.19 1.179.76 2.314 1.228 3.413 1.68 1.139.469 2.363.973 3.493 1.788 1.483-1.073 2.675-1.707 3.199-1.966 1.747-1.169 3.618-1.761 5.565-1.761.56 0 1.127.05 1.696.149 2.147-.869 4.221-1.067 5.665-1.067.552 0 1.009.029 1.339.06l.558-.097c1.144-.203 2.132-.378 3.138-.378 2.919 0 4.741 1.584 6.184 3.508.792-2.564 1.885-4.475 3.71-5.386.702-.352 1.505-.53 2.386-.53 2.709 0 6.164 1.826 8.506 3.295 2.172-2.188 4.022-3.415 6.115-3.415 2.752 0 4.446 2.151 5.617 4.061 2.772.558 5.137 2.19 7.012 3.743 2.601-1.179 6.402-1.774 11.505-1.807 4.478-3.962 11.422-4.585 15.342-4.585.888 0 1.557.032 1.917.055.575-.051 1.132-.076 1.658-.076 3.222 0 5.721.942 7.571 2.868.881-.262 1.782-.394 2.698-.394.241 0 .485.009.729.028l11.983-4.229 2.266 1.694c1.62-.167 3.426-.252 5.386-.252 3.128 0 5.544.216 5.646.226v.001c2.843.272 7.177 4.751 12.891 13.322 5.884 8.82 1.255 14.27-2.027 16.731-6.247 4.685-13.71 5.935-17.135 5.935-2.341 0-6.284-.744-9.588-2.135l-.136.058c-2.917 1.222-7.324 3.068-12.12 3.068-2.354 0-4.554-.457-6.535-1.357-1.023-.466-1.929-.912-2.743-1.354-.267.229-.546.454-.836.672-6.247 4.681-13.71 5.931-17.135 5.931zM109.546 46.028c-5.83 0-9.642-8.389-10.669-10.959l-.215-.537v-.291l-.685.076c-.513.055-1.005.109-1.45.178-.638 1.135-1.643 2.117-2.58 3.037-.961.943-1.956 1.916-2.596 2.98-.646 1.08-2.251 2.893-5.725 2.893-3.311 0-7.367-1.676-10.186-3.084-.459-.229-1.206-.51-1.993-.805-.865-.324-1.837-.689-2.809-1.125-1.993 2.357-4.95 3.947-7.951 5.309-1.979.9-4.177 1.355-6.528 1.355-4.798 0-9.21-1.846-12.13-3.07-.767-.322-1.636-.686-1.975-.77-1.394-.348-2.522-1.145-3.412-2.074-4.033 3.064-10.621 4.164-13.196 4.164-3.424 0-10.888-1.248-17.133-5.936-3.283-2.463-7.912-7.91-2.028-16.729 5.727-8.594 10.069-13.072 12.915-13.323h-.022c.101-.01 2.509-.225 5.634-.225 4.991 0 8.767.519 11.424 1.579l.24-.289.225-.269.279-.211 2.665-1.999 1.286-.961 1.513.533 11.334 4 2.196.775-.049.542c.595.121 1.181.299 1.755.535l.313-.802c1.269-3.176 3.188-7.974 10.496-7.974.527 0 1.081.026 1.653.076.359-.022 1.031-.056 1.927-.056 4.459 0 11.888.771 16.196 5.403 1.843-.912 3.897-1.386 6.071-1.386.357 0 .72.012 1.087.039.531-.047 1.71-.135 3.157-.135 2.357 0 4.404.224 6.116.668 1.38-1.696 3.136-3.026 5.809-3.026 1.005 0 1.993.174 3.138.377l.553.096c.332-.031.792-.06 1.348-.06 1.543 0 4.217.242 6.852 1.626 2.11-1.54 4.691-2.903 7.654-2.903 1.949 0 3.824.593 5.574 1.764.451.226 1.418.742 2.646 1.583l.449-.01c1.952 0 3.825.595 5.575 1.766.365.182 1.054.545 1.938 1.111 4.428-5.458 6.286-6.135 7.726-6.176.522-.045 2.743-.215 5.532-.215 7.826 0 12.709 1.296 14.93 3.959 1.857 2.227 3.082 5.031 3.646 8.351.562.443 1.164.984 1.828 1.653 2.342-1.47 5.799-3.297 8.509-3.297.88 0 1.684.178 2.387.529 3.069 1.534 4.065 5.899 5.05 11.444.156.881.349 1.973.455 2.293.982 2.941-1.23 5.104-3.006 6.84-.965.943-1.962 1.92-2.6 2.982-.65 1.082-2.256 2.895-5.729 2.895-3.319 0-7.371-1.68-10.186-3.086-.46-.23-1.204-.51-1.996-.805-.424-.158-.875-.328-1.34-.51-3.74 2.018-8.754 2.965-11.324 2.965-2.569 0-5.778-.602-8.831-1.635-1.099.666-2.382 1.328-3.929 2.029-1.979.9-4.176 1.357-6.527 1.357-3.197 0-6.228-.84-8.541-1.658-.651.297-1.31.498-1.922.688-.68.207-1.321.4-1.869.699l-1.707.924-1.711.928c-2.585 1.398-5.811 1.855-8.927 2.295-1.736.246-3.53.502-5.118.906-.485.124-.985.189-1.486.189z"/><path fill="#42210B" d="M154.114 6.305c-2 0-8 8-10.666 12-2.668 4-4.001 8.667 1.332 12.667 5.334 4 12 5.334 15.334 5.334s12-2 13.334-6c1.332-4 2-6.667 2-9.334s0-8-3.334-12c-1.392-1.669-4.757-2.41-8.206-2.706-4.815-.414-9.794.038-9.794.039z"/><path fill="#603813" d="M58.115 14.971c-6.667-4.667-12.667 4-15.333 5.333l-4 13.333s1.333 4 4 4.666 11.333 6 18.667 2.666c7.333-3.332 10.667-6.666 7.333-14.666-3.334-7.999-10.667-11.332-10.667-11.332z"/><path fill="#603813" d="M134.114 7.638c-6.666-4.667-12.666 4-15.333 5.333l-4 13.334s1.333 4 4 4.666 11.333 6 18.667 2.666c7.333-3.332 10.666-6.666 7.333-14.666l-10.667-11.333z"/><path fill="#2B1606" d="M142.781 10.971c-6.667-4.667-12.667 4-15.333 5.333-2.667 1.333-4 13.333-4 13.333s1.333 4 4 4.666c2.666.666 11.332 6 18.666 2.666 7.334-3.332 10.667-6.664 7.334-14.665-3.334-8-10.667-11.333-10.667-11.333z"/><path fill="#42210B" d="M70.114 5.637c-6.667-.667-8 2.667-9.333 6s-2.667 7.333-2 10 5.333 6.666 10 7.334c4.667.666 10-.002 12-3.334 2-3.333 10-2.667 7.333-12-.965-3.377-3.588-5.357-6.543-6.51-5.212-2.033-11.457-1.49-11.457-1.49z"/><path fill="#693411" d="M38.781 10.303c-3.333 4-8 10.668-5.333 13.334s8 6.666 10 5.332c2-1.332 8.667-4 8.667-6.666l.667-10-11.333-4-2.668 2z"/><path fill="#693411" d="M95.448 9.638c-7.333-.667-12 5.333-11.333 10.667.667 5.333 2.667 8.667 4.667 9.333s3.334 2.666 6.667 2 8 0 10-4.666c2-4.667 3.332-8 2.666-13.333-.282-2.263-2.606-3.326-5.188-3.8-3.503-.644-7.479-.202-7.479-.201z"/><path fill="#2B1606" d="M80.115 23.637c-5.333-6-6.667-5.333-9.333-.667s-3.333 4-3.333 8c0 3.998 6.667 5.332 9.333 6.666 2.667 1.332 10 4.666 12 1.332 2-3.332 6-5.332 5.333-7.332s-1.333-10.667-4-12l-10 4.001z"/><path fill="#2B1606" d="M179.448 20.971c-5.334-6-6.667-5.333-9.334-.667-2.666 4.667-3.333 4-3.333 7.999 0 4 6.667 5.334 9.333 6.668 2.667 1.332 10 4.666 12 1.332 2-3.332 6.001-5.332 5.334-7.332s-1.333-10.667-4-12l-10 4z"/><path fill="#42210B" d="M114.114 7.638c-4-.667-5.334-1.333-8 2.667s-4 5.333-2.666 8c1.332 2.667 4 4.001 6 4.667s2.666 3.332 7.332-.667c4.668-4 12.001-1.334 8.668-8.667-3.334-7.334-11.334-6-11.334-6z"/><path fill="#693411" d="M160.312 22.23c-2.402-.401-3.203-.801-4.805 1.601-1.602 2.401-2.402 3.202-1.602 4.804s2.402 2.404 3.604 2.803c1.201.4 1.602 2.002 4.404-.4s7.206-.801 5.204-5.205c-2.002-4.403-6.805-3.603-6.805-3.603z"/><path fill="#603813" d="M126.72 17.798c-5.164-3.057-9.52-4.861-14.531-1.629-5.012 3.231-8.793 1.767-9.66 9.775l-.867 8.008s4.061 10.152 8.627 8.982c4.567-1.17 9.941-1.088 13.361-2.938l3.418-1.85c3.42-1.85 7.201-.385 5.668-8.266-1.533-7.878-6.016-12.082-6.016-12.082z"/><path fill="#42210B" d="M19.448 10.305c-2 0-8 8-10.667 12s-4 8.667 1.333 12.667 12 5.334 15.333 5.334 12-2 13.333-6 2-6.668 2-9.334c0-2.667 0-8-3.333-12-1.357-1.628-4.591-2.373-7.949-2.683-4.893-.454-10.05.016-10.05.016z"/><path d="M309.547 46.028c-5.83 0-9.643-8.389-10.67-10.959l-.215-.537v-.291l-.686.076c-.512.055-1.004.109-1.449.178-.638 1.135-1.643 2.117-2.58 3.037-.961.943-1.956 1.916-2.596 2.98-.646 1.08-2.251 2.893-5.725 2.893-3.311 0-7.366-1.676-10.186-3.084-.459-.229-1.206-.51-1.993-.805-.865-.324-1.837-.689-2.809-1.125-1.993 2.357-4.95 3.947-7.951 5.309-1.979.9-4.177 1.355-6.528 1.355-4.798 0-9.21-1.846-12.13-3.07-.767-.322-1.637-.686-1.975-.77-1.395-.348-2.522-1.145-3.412-2.074-4.033 3.064-10.62 4.164-13.195 4.164-3.425 0-10.888-1.248-17.133-5.936-3.283-2.463-7.912-7.91-2.028-16.729 5.725-8.595 10.067-13.073 12.913-13.323h-.022c.101-.01 2.51-.225 5.635-.225 4.99 0 8.767.519 11.424 1.579l.24-.289.226-.269.279-.211 2.665-1.999 1.285-.961 1.514.533 11.334 4 2.196.775-.05.542c.595.121 1.182.299 1.756.535l.313-.802c1.269-3.176 3.188-7.974 10.495-7.974.527 0 1.081.026 1.653.076.358-.022 1.031-.056 1.927-.056 4.46 0 11.888.771 16.196 5.403 1.843-.912 3.897-1.386 6.07-1.386.357 0 .72.012 1.087.039.531-.047 1.711-.135 3.158-.135 2.357 0 4.404.224 6.115.668 1.381-1.696 3.137-3.026 5.809-3.026 1.006 0 1.994.174 3.139.377l.553.096c.332-.031.791-.06 1.348-.06 1.543 0 4.217.242 6.852 1.626 2.109-1.54 4.691-2.903 7.654-2.903 1.949 0 3.824.593 5.574 1.764.451.226 1.418.742 2.645 1.583l.449-.01c1.953 0 3.826.595 5.576 1.766.365.182 1.053.545 1.938 1.111 4.428-5.458 6.285-6.135 7.725-6.176.523-.045 2.744-.215 5.533-.215 7.826 0 12.709 1.296 14.93 3.959 1.857 2.227 3.082 5.031 3.646 8.351.562.443 1.164.984 1.828 1.653 2.342-1.47 5.799-3.297 8.508-3.297.881 0 1.684.178 2.387.529 3.07 1.534 4.066 5.899 5.051 11.444.156.881.348 1.973.455 2.293.982 2.941-1.23 5.104-3.006 6.84-.965.943-1.963 1.92-2.6 2.982-.65 1.082-2.256 2.895-5.729 2.895-3.32 0-7.371-1.68-10.186-3.086-.461-.23-1.205-.51-1.996-.805-.424-.158-.875-.328-1.34-.51-3.74 2.018-8.754 2.965-11.324 2.965s-5.779-.602-8.832-1.635c-1.098.666-2.381 1.328-3.928 2.029-1.979.9-4.176 1.357-6.527 1.357-3.197 0-6.229-.84-8.541-1.658-.652.297-1.311.498-1.922.688-.68.207-1.322.4-1.869.699l-1.707.924-1.711.928c-2.586 1.398-5.811 1.855-8.928 2.295-1.736.246-3.529.502-5.117.906-.485.124-.985.189-1.485.189z"/><path fill="#42210B" d="M354.115 6.305c-2 0-8 8-10.666 12-2.668 4-4.002 8.667 1.332 12.667s12 5.334 15.334 5.334 12-2 13.334-6c1.332-4 2-6.667 2-9.334s0-8-3.334-12l-18-2.667z"/><path fill="#603813" d="M258.115 14.971c-6.667-4.667-12.667 4-15.334 5.333-2.666 1.333-4 13.333-4 13.333s1.334 4 4 4.666c2.667.666 11.333 6 18.667 2.666 7.333-3.332 10.667-6.666 7.333-14.666-3.333-7.999-10.666-11.332-10.666-11.332z"/><path fill="#603813" d="M334.115 7.638c-6.666-4.667-12.666 4-15.334 5.333-2.666 1.333-4 13.334-4 13.334s1.334 4 4 4.666c2.668.666 11.334 6 18.668 2.666 7.332-3.332 10.666-6.666 7.332-14.666-3.332-8-10.666-11.333-10.666-11.333z"/><path fill="#2B1606" d="M342.781 10.971c-6.666-4.667-12.666 4-15.332 5.333-2.668 1.333-4 13.333-4 13.333s1.332 4 4 4.666c2.666.666 11.332 6 18.666 2.666 7.334-3.332 10.666-6.664 7.334-14.665-3.334-8-10.668-11.333-10.668-11.333z"/><path fill="#42210B" d="M270.114 5.637c-6.666-.667-8 2.667-9.333 6s-2.667 7.333-2 10 5.333 6.666 10 7.334c4.667.666 10-.002 12-3.334 2-3.333 10-2.667 7.333-12-2.666-9.333-18-8-18-8z"/><path fill="#693411" d="M238.781 10.303c-3.334 4-8.001 10.668-5.334 13.334s8 6.666 10 5.332c2-1.332 8.667-4 8.667-6.666l.667-10-11.334-4-2.666 2z"/><path fill="#693411" d="M295.448 9.638c-7.334-.667-12 5.333-11.334 10.667.667 5.333 2.667 8.667 4.667 9.333s3.334 2.666 6.667 2 8.001 0 10.001-4.666c2-4.667 3.332-8 2.666-13.333-.282-2.263-2.605-3.326-5.188-3.8-3.501-.644-7.479-.202-7.479-.201z"/><path fill="#2B1606" d="M280.115 23.637c-5.334-6-6.667-5.333-9.334-.667-2.666 4.667-3.333 4-3.333 8 0 3.998 6.667 5.332 9.333 6.666 2.667 1.332 10 4.666 12 1.332 2-3.332 6.001-5.332 5.334-7.332s-1.333-10.667-4-12l-10 4.001z"/><path fill="#2B1606" d="M379.449 20.971c-5.334-6-6.668-5.333-9.334-.667s-3.334 4-3.334 7.999c0 4 6.668 5.334 9.334 6.668 2.666 1.332 10 4.666 12 1.332 2-3.332 6-5.332 5.334-7.332-.668-2-1.334-10.667-4-12-2.668-1.334-10 4-10 4z"/><path fill="#42210B" d="M314.115 7.638c-4-.667-5.334-1.333-8 2.667s-4 5.333-2.666 8c1.332 2.667 4 4.001 6 4.667s2.666 3.332 7.332-.667c4.668-4 12-1.334 8.668-8.667-3.334-7.334-11.334-6-11.334-6z"/><path fill="#603813" d="M326.721 17.798c-5.164-3.057-9.52-4.861-14.531-1.629-5.012 3.231-8.793 1.767-9.66 9.775l-.867 8.008s4.061 10.152 8.627 8.982 9.941-1.088 13.361-2.938l3.418-1.85c3.42-1.85 7.201-.385 5.668-8.266-1.534-7.878-6.016-12.082-6.016-12.082z"/><path fill="#42210B" d="M219.448 10.305c-2 0-7.999 8-10.666 12-2.667 4-4.001 8.667 1.333 12.667 5.333 4 12 5.334 15.333 5.334 3.334 0 12.001-2 13.334-6s2-6.668 2-9.334c0-2.667 0-8-3.334-12-3.333-4.001-18-2.667-18-2.667z"/><path d="M508.546 46.028c-5.83 0-9.643-8.389-10.67-10.959l-.215-.537v-.291l-.685.076c-.513.055-1.005.109-1.45.178-.637 1.135-1.643 2.117-2.579 3.037-.962.943-1.956 1.916-2.596 2.98-.646 1.08-2.251 2.893-5.725 2.893-3.312 0-7.366-1.676-10.187-3.084-.459-.229-1.205-.51-1.992-.805-.865-.324-1.838-.689-2.809-1.125-1.994 2.357-4.95 3.947-7.951 5.309-1.979.9-4.178 1.355-6.529 1.355-4.797 0-9.209-1.846-12.129-3.07-.768-.322-1.637-.686-1.975-.77-1.395-.348-2.522-1.145-3.412-2.074-4.033 3.064-10.621 4.164-13.195 4.164-3.425 0-10.889-1.248-17.133-5.936-3.283-2.463-7.912-7.91-2.028-16.729 5.725-8.595 10.067-13.073 12.913-13.323h-.022c.101-.01 2.509-.225 5.634-.225 4.991 0 8.768.518 11.425 1.578l.24-.289.226-.269.279-.212 2.664-1.998 1.286-.962 1.513.532 11.335 4.001 2.196.774-.05.542c.595.12 1.181.3 1.755.535l.314-.802c1.269-3.176 3.188-7.974 10.495-7.974.527 0 1.081.026 1.653.075.358-.021 1.031-.055 1.927-.055 4.46 0 11.888.771 16.196 5.402 1.843-.912 3.896-1.386 6.07-1.386.357 0 .72.013 1.087.038.53-.047 1.71-.135 3.157-.135 2.357 0 4.404.224 6.116.668 1.38-1.695 3.136-3.025 5.809-3.025 1.005 0 1.993.174 3.138.377l.553.096c.332-.03.792-.059 1.348-.059 1.543 0 4.217.242 6.852 1.625 2.11-1.539 4.691-2.902 7.654-2.902 1.949 0 3.824.592 5.574 1.764.451.225 1.418.742 2.646 1.582l.449-.01c1.952 0 3.825.594 5.575 1.766.365.182 1.054.545 1.938 1.111 4.428-5.459 6.286-6.135 7.726-6.176.522-.045 2.743-.216 5.532-.216 7.826 0 12.709 1.296 14.93 3.96 1.857 2.227 3.082 5.031 3.646 8.35.562.443 1.164.984 1.828 1.653 2.342-1.47 5.799-3.297 8.509-3.297.88 0 1.684.179 2.387.528 3.069 1.534 4.065 5.899 5.05 11.445.156.881.349 1.973.455 2.293.982 2.941-1.23 5.104-3.006 6.84-.965.943-1.962 1.92-2.6 2.982-.65 1.082-2.256 2.895-5.729 2.895-3.319 0-7.371-1.68-10.186-3.086-.46-.23-1.204-.51-1.996-.805-.424-.158-.875-.328-1.34-.51-3.74 2.018-8.754 2.965-11.324 2.965-2.569 0-5.778-.602-8.831-1.635-1.099.666-2.382 1.328-3.929 2.029-1.979.9-4.176 1.357-6.527 1.357-3.197 0-6.228-.84-8.541-1.658-.651.297-1.31.498-1.922.688-.68.207-1.321.4-1.869.699l-1.707.924-1.711.928c-2.585 1.398-5.811 1.855-8.927 2.295-1.736.246-3.53.502-5.118.906-.484.129-.984.194-1.485.194z"/><path fill="#42210B" d="M553.114 6.305c-2 0-8 8-10.666 12-2.668 4-4.001 8.667 1.332 12.667 5.334 4 12 5.334 15.334 5.334s12-2 13.334-6c1.332-4 2-6.667 2-9.333 0-2.667 0-8-3.334-12-1.39-1.667-4.748-2.408-8.192-2.705-4.819-.416-9.808.037-9.808.037z"/><path fill="#603813" d="M457.114 14.971c-6.666-4.667-12.666 3.999-15.333 5.333l-4 13.333s1.333 4 4 4.666 11.333 6 18.667 2.666c7.333-3.332 10.666-6.666 7.333-14.666-3.333-7.999-10.667-11.332-10.667-11.332z"/><path fill="#603813" d="M533.114 7.638c-6.666-4.666-12.666 4-15.333 5.334-2.667 1.333-4 13.333-4 13.333s1.333 4 4 4.666 11.333 6 18.667 2.666c7.333-3.332 10.666-6.666 7.333-14.666-3.333-7.999-10.667-11.333-10.667-11.333z"/><path fill="#2B1606" d="M541.781 10.972c-6.667-4.668-12.667 3.999-15.333 5.332-2.667 1.334-4 13.333-4 13.333s1.333 4 4 4.666c2.666.666 11.332 6 18.666 2.666 7.334-3.332 10.667-6.664 7.334-14.666-3.334-7.999-10.667-11.331-10.667-11.331z"/><path fill="#42210B" d="M469.114 5.638c-6.666-.667-8 2.666-9.334 6-1.332 3.333-2.666 7.332-2 10 .668 2.666 5.334 6.666 10 7.333 4.668.666 10-.002 12-3.334 2-3.333 10-2.667 7.334-12-2.666-9.333-18-7.999-18-7.999z"/><path fill="#693411" d="M437.78 10.304c-3.333 4-8 10.668-5.333 13.334 2.667 2.666 8 6.666 10 5.332 2-1.332 8.667-4 8.667-6.666l.666-10-11.333-4-2.667 2z"/><path fill="#693411" d="M494.448 9.638c-7.334-.666-12 5.333-11.334 10.666.666 5.333 2.666 8.667 4.666 9.333s3.334 2.666 6.668 2c3.332-.666 8 0 10-4.666 2-4.667 3.332-8 2.666-13.333-.282-2.266-2.61-3.329-5.195-3.801-3.501-.641-7.471-.199-7.471-.199z"/><path fill="#2B1606" d="M479.114 23.638c-5.333-6-6.666-5.334-9.333-.667s-3.333 4-3.333 8c0 3.998 6.666 5.332 9.333 6.666 2.667 1.332 10 4.666 12 1.332 2-3.332 6.001-5.332 5.333-7.332-.666-2-1.332-10.667-4-12-2.666-1.333-10 4.001-10 4.001z"/><path fill="#CFEEFF" d="M578.448 20.971c-5.334-6-6.667-5.333-9.334-.667-2.666 4.667-3.333 4.001-3.333 8 0 4 6.667 5.334 9.333 6.668 2.667 1.332 10 4.666 12 1.332 2-3.332 6.001-5.332 5.334-7.332s-1.333-10.667-4-12l-10 3.999z"/><path fill="#42210B" d="M513.114 7.638c-4-.667-5.334-1.334-8 2.666s-4 5.334-2.666 8c1.332 2.668 4 4.002 6 4.668s2.666 3.332 7.332-.668c4.668-4 12.001-1.334 8.668-8.666-3.334-7.334-11.334-6-11.334-6z"/><path fill="#693411" d="M559.312 22.23c-2.402-.401-3.203-.801-4.805 1.601-1.602 2.402-2.402 3.203-1.602 4.804s2.402 2.404 3.604 2.803c1.201.4 1.602 2.002 4.404-.4s7.206-.801 5.204-5.205c-2.002-4.403-6.805-3.603-6.805-3.603z"/><path fill="#603813" d="M525.72 17.798c-5.164-3.057-9.52-4.86-14.531-1.629-5.012 3.23-8.793 1.768-9.66 9.775l-.867 8.008s4.061 10.152 8.627 8.982c4.567-1.17 9.941-1.088 13.361-2.938l3.418-1.85c3.42-1.85 7.201-.385 5.668-8.266-1.533-7.877-6.016-12.082-6.016-12.082z"/><path fill="#42210B" d="M418.448 10.305c-2 0-8 8-10.666 12-2.668 4-4.001 8.667 1.332 12.667 5.334 4 12 5.334 15.334 5.334s12-2 13.334-6c1.332-4 2-6.668 2-9.333 0-2.667 0-8-3.334-12-1.46-1.751-5.09-2.48-8.71-2.747-4.652-.343-9.29.079-9.29.079z"/><path fill="#EDFFFF" d="M579.601 16.792c2 0 8 8 10.666 11.999 2.668 4 4 8.668-1.332 12.668-5.334 4-12 5.334-15.334 5.334s-12-2-13.334-6c-1.332-4-2-6.668-2-9.334 0-2.668 0-8 3.334-12l18-2.667z"/><path fill="#CFEEFF" d="M549.797 20.696c6.666-4.667 12.666 4 15.334 5.333 2.666 1.334 4 13.334 4 13.334s-1.334 4-4 4.666c-2.668.666-11.334 6-18.668 2.666-7.332-3.332-10.666-6.666-7.332-14.666 3.332-7.999 10.666-11.333 10.666-11.333z"/><path fill="#CFEEFF" d="M500.116 20.696c6.666-4.666 12.666 4 15.332 5.333 2.668 1.334 4 13.334 4 13.334s-1.332 4-4 4.666c-2.666.666-11.332 6-18.666 2.666-7.334-3.332-10.666-6.666-7.334-14.665 3.334-8 10.668-11.334 10.668-11.334z"/><path fill="#EBF8FF" d="M457.188 20.698c6.668-4.668 12.668 3.999 15.334 5.333l4 13.333s-1.334 4-4 4.666-11.332 6-18.666 2.666c-7.334-3.332-10.668-6.664-7.334-14.665 3.334-8.001 10.666-11.333 10.666-11.333z"/><path fill="#EDFFFF" d="M541.972 16.947c6.666-.667 8 2.666 9.334 6 1.332 3.333 2.666 7.333 2 10-.668 2.666-5.334 6.665-10 7.333-4.668.666-10-.002-12-3.334-2-3.333-10-2.667-7.334-11.999 2.666-9.334 18-8 18-8z"/><path fill="#fff" d="M568.729 17.497c3.334 4 8 10.668 5.334 13.334-2.668 2.665-8 6.665-10 5.331-2-1.332-8.668-3.999-8.668-6.665l-.666-10 11.334-4 2.666 2z"/><path fill="#fff" d="M480.273 25.897c7.334-.666 12 5.332 11.334 10.666-.666 5.333-2.666 8.667-4.666 9.333s-3.334 2.666-6.668 2c-3.332-.666-8 0-10-4.666-2-4.667-3.332-7.999-2.666-13.333l12.666-4z"/><path fill="#EBF8FF" d="M494.878 19.804c5.334-6 6.666-5.334 9.334-.668 2.666 4.667 3.332 4.001 3.332 8.001 0 3.998-6.666 5.332-9.332 6.666-2.668 1.332-10 4.666-12 1.332-2-3.332-6.002-5.332-5.334-7.332.666-2 1.332-10.667 4-11.999 2.666-1.334 10 4 10 4z"/><path fill="#EBF8FF" d="M417.523 24.385c5.334-6 6.666-5.333 9.334-.666 2.666 4.666 3.332 4 3.332 7.998 0 4-6.666 5.334-9.332 6.668-2.668 1.332-10 4.666-12 1.332-2-3.332-6.002-5.332-5.334-7.332.666-2 1.332-10.667 4-12 2.666-1.332 10 4 10 4z"/><path fill="#EDFFFF" d="M470.035 18.503c3.999-.667 5.333-1.334 7.999 2.666 2.666 4 4 5.335 2.666 8.001-1.332 2.668-4 4.002-6 4.668-1.999.666-2.665 3.331-7.331-.668-4.668-4-12.002-1.334-8.668-8.667 3.334-7.334 11.334-6 11.334-6z"/><path fill="#fff" d="M417.802 31.989c2.402-.4 3.203-.801 4.805 1.602s2.402 3.203 1.602 4.805-2.402 2.404-3.604 2.803c-1.201.4-1.602 2.002-4.404-.4s-7.207-.801-5.205-5.205l6.806-3.605z"/><path fill="#CFEEFF" d="M429.421 20.742c5.164-3.057 9.52-4.861 14.531-1.629 5.011 3.23 8.792 1.768 9.659 9.774l.867 8.008s-4.061 10.152-8.627 8.982c-4.567-1.17-9.94-1.088-13.36-2.938l-3.418-1.85c-3.42-1.85-7.201-.385-5.668-8.266 1.532-7.876 6.016-12.081 6.016-12.081z"/><path fill="#EDFFFF" d="M530.509 21.678c2 0 8 8 10.666 12 2.668 4 4.002 8.666-1.332 12.666s-12 5.334-15.334 5.334-12-2-13.334-6c-1.332-4-2-6.668-2-9.332 0-2.668 0-8 3.334-12.001 3.334-4 18-2.667 18-2.667z"/><path fill="#00A330" d="M227.735 19.656c12.141 4.819 21.283-8.92 21.283-8.92l-1.024-2.442s-11.194-6.585-20.259 11.362z"/><path fill="#007C30" d="M249.142 11.033s-5.5 2.306-17.217 7.216c6.217-2.606 16.069-9.956 16.069-9.956l1.148 2.74z"/><path fill="#00A330" d="M274.708 7.85c-12.382-10.817-22.423 5.454-22.423 5.454l.626 2.573c7.108 11.133 9.69-4.562 21.797-8.027z"/><path fill="#007C30" d="M253.379 14.896s4.458-5.237 16.971-6.318c-10.62 2.376-16.27 9.205-16.27 9.205l-1.87-4.792 1.169 1.905z"/><path fill="#00A330" d="M251.463 33.459s9.292-23.614-13.182-28.766c23.411 1.438 16.316 29.556 16.316 29.556l-3.134-.79z"/><path fill="#42210B" d="M253.649 29.09c-4-.666-5.334-1.333-8 2.667s-4 5.333-2.666 8c1.332 2.667 4 4.001 6 4.667s2.666 3.332 7.332-.667c4.668-4 12-1.334 8.668-8.667-3.334-7.333-11.334-6-11.334-6z"/><g fill="#00A330"><path d="M364.548 34.819s-6.613-24.5 16.295-27.125c-23.428-1.17-19.497 27.562-19.497 27.562l3.202-.437zM358.147 34.468s6.021-18.444-6.357-27.627c14.937 9.344 9.434 28.617 9.434 28.617l-3.077-.99z"/></g><path fill="#693411" d="M360.312 29.231c-2.402-.401-3.203-.801-4.805 1.601s-2.402 3.202-1.602 4.804 2.402 2.404 3.604 2.803c1.201.4 1.602 2.002 4.404-.4s7.205-.801 5.203-5.205c-2.001-4.404-6.804-3.603-6.804-3.603z"/></svg>