<svg version="1" xmlns="http://www.w3.org/2000/svg" width="200" height="82"><path opacity=".5" d="M171.398 62.49c-.799-.344-1.61-.67-2.434-.971l-9.952-57.424c-2.56.018-4.564.17-5.056.212-1.439.041-3.298.717-7.726 6.176-.884-.566-1.572-.93-1.938-1.111-1.75-1.172-3.623-1.766-5.575-1.766l-.449.01c-1.228-.84-2.194-1.357-2.646-1.582-1.75-1.172-3.625-1.764-5.574-1.764-2.963 0-5.544 1.363-7.654 2.902-2.635-1.383-5.309-1.625-6.852-1.625-.556 0-1.016.028-1.348.059l-.553-.096c-1.145-.203-2.133-.377-3.138-.377-2.673 0-4.429 1.33-5.809 3.025-1.712-.444-3.759-.668-6.116-.668-1.447 0-2.627.088-3.157.135-.367-.025-.729-.038-1.087-.038-2.174 0-4.228.474-6.07 1.386-4.306-4.631-11.734-5.402-16.194-5.402-.896 0-1.568.033-1.927.055-.572-.049-1.126-.075-1.653-.075-7.308 0-9.227 4.798-10.495 7.974l-.314.802c-.574-.235-1.16-.415-1.755-.535l.05-.542-2.196-.774-11.336-4.002-1.513-.532-1.286.962-2.664 1.998-.279.212-.226.269-.24.289c-.649-.26-1.368-.485-2.153-.68l53.144 52.466c-.511.314-.979.662-1.396 1.031-4.191 3.738-2.789 9.152 3.189 12.32 2.553 1.354 5.632 2.098 8.67 2.098 1.774 0 3.471-.246 5.017-.721 4.341 2.91 9.265 4.482 14.128 4.482h45.025c5.131 0 8.144-1.482 8.983-4.42 1.996.434 3.888.66 5.58.66 3.039 0 5.244-.746 6.213-2.1 1.14-1.594.444-3.891-1.912-6.305-2.129-2.183-5.444-4.317-9.326-6.013z"/></svg>